{"glyphs":{"0":{"ha":914,"x_min":86,"x_max":828,"o":"m 189 842 q 240 918 189 842 q 457 993 292 993 q 725 842 622 993 q 828 486 828 692 q 725 130 828 281 q 457 -21 622 -21 q 189 130 292 -21 q 86 486 86 281 q 189 842 86 692 m 650 194 q 728 487 728 321 q 650 777 728 653 q 456 901 572 901 q 263 778 339 901 q 186 486 186 654 q 263 194 186 318 q 456 71 340 71 q 650 194 572 71 z "},"1":{"ha":551,"x_min":31,"x_max":415,"o":"m 410 285 l 415 46 q 399 5 415 24 q 360 -14 383 -14 q 322 6 338 -14 q 307 56 307 25 q 310 168 307 86 q 314 488 314 250 l 314 836 l 247 753 q 211 706 238 740 q 114 589 136 607 q 75 571 92 571 q 44 586 58 571 q 31 624 31 611 q 51 663 31 638 q 109 728 71 688 q 174 803 147 769 q 236 879 207 840 l 286 942 q 360 988 322 988 q 399 967 382 988 q 415 916 415 947 q 412 801 415 885 q 408 533 408 717 q 410 285 408 350 z "},"2":{"ha":761,"x_min":64,"x_max":704,"o":"m 178 89 l 371 89 l 635 96 q 684 81 664 96 q 704 44 704 65 q 635 -7 704 -7 l 371 0 l 133 -7 q 64 57 64 -7 q 107 163 64 110 q 167 235 150 217 l 250 325 q 328 410 315 397 q 381 468 340 424 q 433 527 421 513 q 461 561 444 542 q 512 638 478 581 q 546 739 546 696 q 497 855 546 808 q 382 901 447 901 q 222 828 268 901 q 140 754 176 754 q 108 767 121 754 q 94 800 94 781 q 176 924 94 856 q 378 993 257 993 q 573 916 500 993 q 646 747 646 839 q 596 583 646 656 q 501 461 546 510 q 428 380 456 413 q 324 267 400 347 q 178 89 197 136 z "},"3":{"ha":789,"x_min":79,"x_max":703,"o":"m 149 979 l 371 972 l 582 978 q 665 914 665 978 q 634 847 665 883 q 540 747 603 810 q 421 615 478 683 q 629 504 556 588 q 703 298 703 421 q 615 77 703 175 q 372 -21 526 -21 q 167 43 256 -21 q 79 163 79 108 q 118 203 81 203 q 161 171 144 203 q 235 106 186 142 q 382 71 283 71 q 540 138 481 71 q 603 304 603 204 q 533 467 603 404 q 365 536 463 529 q 239 461 294 461 q 192 475 214 461 q 179 532 168 496 q 315 625 201 603 q 532 878 431 753 l 371 883 l 160 876 q 149 876 154 876 q 104 895 115 876 q 93 928 93 914 q 104 960 93 942 q 149 979 115 979 z "},"4":{"ha":803,"x_min":32,"x_max":749,"o":"m 690 314 l 600 317 l 607 56 q 607 46 607 50 q 582 -6 607 10 q 553 -14 567 -14 l 524 -6 q 499 46 499 10 q 499 56 499 50 l 504 319 l 401 321 l 97 315 q 93 315 96 315 q 42 344 56 315 q 33 374 33 363 q 37 397 33 386 q 65 446 40 408 q 128 531 89 483 q 275 714 168 578 l 438 921 q 535 986 488 986 q 607 903 607 986 q 603 788 607 874 q 600 413 600 703 l 679 417 q 729 403 710 417 q 749 366 749 389 q 730 328 749 343 q 690 314 711 314 m 160 410 l 506 410 q 508 658 508 546 l 506 853 q 160 410 358 683 z "},"5":{"ha":799,"x_min":86,"x_max":725,"o":"m 600 876 l 403 883 q 281 881 343 883 q 217 878 218 878 q 225 739 225 807 q 217 596 225 671 l 214 571 q 418 646 311 646 q 645 555 565 646 q 725 324 725 464 q 635 81 725 183 q 389 -21 544 -21 q 176 53 267 -21 q 86 193 86 128 q 98 227 86 214 q 128 240 110 240 q 155 232 146 240 q 181 199 164 224 l 200 169 q 389 71 283 71 q 560 149 494 71 q 625 326 625 226 q 567 490 625 425 q 413 554 510 554 q 218 478 317 554 q 167 451 186 451 q 113 510 113 451 q 122 601 113 525 q 131 728 131 676 q 123 844 131 781 q 115 914 115 908 q 192 979 115 979 l 403 972 l 600 979 q 611 979 606 979 q 656 960 644 979 q 667 928 667 942 q 656 895 667 914 q 611 876 644 876 q 600 876 606 876 z "},"6":{"ha":801,"x_min":86,"x_max":728,"o":"m 86 369 q 228 806 86 626 q 589 986 371 986 q 678 938 678 986 q 601 886 678 886 q 329 772 442 886 q 196 501 217 658 q 297 592 232 556 q 436 629 361 629 q 650 535 572 629 q 728 310 728 440 q 646 79 728 179 q 412 -21 564 -21 q 172 89 260 -21 q 86 369 86 200 m 418 540 q 369 540 418 540 q 258 465 321 540 q 196 295 196 390 q 260 134 196 200 q 416 68 324 68 q 568 136 508 68 q 628 303 628 204 q 572 472 628 403 q 418 540 515 540 z "},"7":{"ha":681,"x_min":43,"x_max":646,"o":"m 113 979 l 338 972 l 563 979 q 646 914 646 979 q 619 828 646 886 q 540 664 593 769 q 414 391 486 558 q 303 89 342 224 l 288 33 q 231 -14 269 -14 q 183 46 183 -14 q 190 92 183 56 q 219 183 197 128 l 239 232 q 283 340 271 314 q 365 531 294 365 l 519 878 l 338 883 l 113 876 q 43 928 43 876 q 113 979 43 979 z "},"8":{"ha":800,"x_min":82,"x_max":718,"o":"m 310 547 q 178 651 221 597 q 135 785 135 706 q 209 928 135 864 q 398 993 283 993 q 589 928 513 993 q 665 786 665 864 q 625 654 665 708 q 501 547 585 600 q 718 250 718 440 q 628 60 718 142 q 400 -21 539 -21 q 172 60 261 -21 q 82 250 82 142 q 310 547 82 444 m 618 261 q 400 493 618 400 q 182 261 182 400 q 244 123 182 175 q 400 71 306 71 q 556 123 494 71 q 618 261 618 175 m 403 597 q 528 685 488 643 q 568 778 568 726 q 517 866 568 831 q 401 901 467 901 q 284 866 336 901 q 232 778 232 831 q 273 686 232 726 q 403 597 314 646 z "},"9":{"ha":799,"x_min":71,"x_max":713,"o":"m 713 603 q 572 163 713 339 q 210 -14 431 -14 q 121 35 121 -14 q 197 86 121 86 q 472 197 361 86 q 603 471 582 307 q 502 380 567 417 q 363 343 438 343 q 149 442 226 343 q 71 669 71 540 q 157 896 71 797 q 392 993 244 993 q 626 883 539 993 q 713 603 713 772 m 540 838 q 509 871 540 838 q 386 904 478 904 q 232 836 294 904 q 171 668 171 767 q 227 501 171 569 q 381 432 283 432 q 540 507 478 432 q 603 676 603 582 q 540 838 603 771 z "}," ":{"ha":331,"x_min":0,"x_max":0,"o":""},"!":{"ha":336,"x_min":104,"x_max":232,"o":"m 104 55 q 104 71 104 55 q 124 113 104 88 q 173 139 144 139 q 217 119 201 139 q 232 65 232 99 q 212 5 232 31 q 164 -21 192 -21 q 120 1 136 -21 q 104 55 104 22 m 214 650 l 218 356 q 168 286 218 286 q 118 356 118 286 l 122 650 q 117 861 122 744 q 113 986 113 978 q 168 1056 113 1056 q 224 986 224 1056 q 219 847 224 964 q 214 650 214 731 z "},"\"":{"ha":475,"x_min":76,"x_max":399,"o":"m 303 989 q 310 998 303 989 q 343 1007 318 1007 q 383 988 368 1007 q 399 949 399 968 q 392 885 399 931 q 383 803 386 839 q 379 749 381 768 q 374 713 378 731 q 363 688 369 694 q 343 681 356 681 q 324 688 331 681 q 313 713 317 694 q 308 749 310 731 q 303 803 306 768 q 294 883 300 839 q 288 949 288 928 q 303 989 288 971 m 92 989 q 99 998 92 989 q 132 1007 107 1007 q 172 988 157 1007 q 188 949 188 968 q 181 885 188 931 q 172 803 175 839 q 168 749 169 768 q 163 713 167 731 q 151 688 158 694 q 132 681 144 681 q 113 688 119 681 q 102 713 106 694 q 97 749 99 731 q 92 803 94 768 q 83 883 89 839 q 76 949 76 928 q 92 989 76 971 z "},"#":{"ha":1115,"x_min":67,"x_max":1049,"o":"m 411 381 l 656 381 l 700 613 l 456 613 l 411 381 m 924 294 l 728 297 q 682 38 708 194 q 625 -19 671 -19 q 586 29 586 -19 q 605 140 586 49 q 636 300 624 231 l 396 300 l 350 36 q 293 -21 339 -21 q 264 -8 275 -21 q 253 22 253 4 q 260 74 253 39 l 281 171 q 307 299 300 257 l 131 294 q 67 340 67 294 q 131 386 67 386 l 325 382 l 369 611 l 190 607 q 126 653 126 607 q 190 699 126 699 l 383 694 q 411 842 401 783 l 428 933 q 485 990 439 990 q 513 977 501 990 q 525 948 525 964 q 514 884 525 932 q 474 693 503 836 l 714 693 l 743 842 l 760 935 q 817 992 771 992 q 845 978 833 992 q 857 949 857 965 q 846 885 857 933 q 806 694 835 838 l 985 699 q 1049 653 1049 699 q 985 607 1049 607 l 788 611 l 743 382 l 924 386 q 988 340 988 386 q 924 294 988 294 z "},"$":{"ha":769,"x_min":72,"x_max":699,"o":"m 699 258 q 628 78 699 153 q 443 -15 558 3 q 446 -82 446 -62 q 397 -153 446 -153 q 349 -82 349 -153 l 350 -18 q 157 36 242 -11 q 72 129 72 83 q 96 169 72 160 q 115 171 101 171 q 158 150 129 171 q 353 71 247 78 q 356 497 356 329 q 174 629 233 565 q 114 774 114 693 q 179 915 114 854 q 350 986 244 975 l 350 1040 q 397 1111 350 1111 q 444 1040 444 1111 l 444 986 q 592 944 532 978 q 653 871 653 911 q 642 843 653 854 q 610 832 631 832 q 538 863 590 832 q 442 896 486 894 q 439 561 439 674 q 644 405 596 467 q 699 258 693 343 m 439 449 q 440 75 439 138 q 550 136 506 86 q 594 249 594 189 q 557 354 594 310 q 439 449 519 399 m 215 771 q 356 608 215 699 q 353 896 356 765 q 253 856 292 889 q 215 771 215 824 z "},"%":{"ha":1117,"x_min":67,"x_max":1051,"o":"m 775 1049 q 813 976 814 1029 q 735 836 813 922 q 444 10 457 42 q 396 -21 432 -21 q 365 -8 378 -21 q 353 26 353 4 q 388 132 353 49 q 635 801 536 499 q 572 790 611 790 q 467 810 532 790 q 474 753 474 782 q 417 582 474 651 q 269 513 360 513 q 122 579 179 513 q 67 751 67 647 q 125 924 67 856 q 265 993 183 993 q 420 933 347 993 q 560 872 493 872 q 656 897 626 872 l 667 936 q 718 1046 692 1028 q 742 1058 728 1058 q 775 1049 757 1058 m 154 754 q 154 719 154 754 q 186 638 154 683 q 272 592 218 592 q 357 636 325 592 q 389 751 389 681 q 358 868 389 822 q 272 914 326 914 q 186 869 218 914 q 154 754 154 825 m 696 46 q 640 218 640 114 q 699 391 640 322 q 848 460 757 460 q 995 393 939 460 q 1051 222 1051 326 q 993 48 1051 117 q 844 -21 935 -21 q 696 46 753 -21 m 729 221 q 729 185 729 221 q 760 104 729 150 q 845 58 792 58 q 931 103 899 58 q 963 218 963 147 q 931 335 963 289 q 847 381 900 381 q 761 336 793 381 q 729 221 729 292 z "},"&":{"ha":1063,"x_min":65,"x_max":1032,"o":"m 569 492 l 743 485 q 876 521 815 485 q 938 625 938 557 q 832 764 938 729 q 774 790 790 778 q 757 824 757 803 q 810 869 757 869 q 959 794 886 869 q 1032 633 1032 718 q 981 494 1032 547 q 706 397 892 397 q 743 246 743 335 q 655 68 743 157 q 414 -21 567 -21 q 163 77 261 -21 q 65 322 65 175 q 113 484 65 406 q 242 617 161 563 q 166 711 196 657 q 136 819 136 765 q 200 972 136 908 q 375 1035 264 1035 q 508 1003 447 1035 q 569 933 569 971 q 557 900 569 913 q 528 888 544 888 q 469 916 511 888 q 369 944 426 944 q 272 911 311 944 q 233 828 233 878 q 257 733 233 778 q 317 663 281 688 q 366 672 340 672 q 417 665 392 672 q 472 606 472 651 q 414 547 472 561 q 365 542 393 542 q 308 557 338 542 q 165 326 165 486 q 235 146 165 219 q 411 74 306 74 q 581 132 517 74 q 646 269 646 190 q 576 390 646 390 q 531 378 565 390 q 478 365 496 365 q 448 380 461 365 q 435 422 435 394 q 474 470 435 449 q 569 492 513 492 z "},"'":{"ha":264,"x_min":76,"x_max":188,"o":"m 92 989 q 99 998 92 989 q 132 1007 107 1007 q 172 988 157 1007 q 188 949 188 968 q 181 885 188 931 q 172 803 175 839 q 168 749 169 768 q 163 713 167 731 q 151 688 158 694 q 132 681 144 681 q 113 688 119 681 q 102 713 106 694 q 97 749 99 731 q 92 803 94 768 q 83 883 89 839 q 76 949 76 928 q 92 989 76 971 z "},"(":{"ha":419,"x_min":64,"x_max":392,"o":"m 338 908 q 168 332 168 686 q 356 -256 168 -21 q 372 -290 372 -276 q 346 -319 372 -319 q 244 -242 301 -319 q 64 394 64 1 q 93 633 64 508 q 164 848 122 758 q 253 997 206 938 q 333 1056 301 1056 q 392 1004 392 1056 q 383 969 392 983 q 338 908 374 956 z "},")":{"ha":421,"x_min":26,"x_max":356,"o":"m 356 394 q 174 -243 356 0 q 74 -319 118 -319 q 47 -290 47 -319 q 64 -256 47 -276 q 251 332 251 -19 q 81 911 251 683 q 35 974 43 961 q 28 1005 28 986 q 40 1040 28 1024 q 87 1056 56 1056 q 165 996 118 1056 q 256 847 215 936 q 326 633 297 758 q 356 394 356 508 z "},"*":{"ha":589,"x_min":88,"x_max":501,"o":"m 325 771 l 340 646 q 311 593 340 608 q 288 588 301 588 q 262 604 275 588 q 249 640 249 621 q 256 710 249 658 q 264 771 264 761 q 209 729 247 760 q 158 691 171 699 q 129 683 144 683 q 100 696 114 683 q 88 726 88 708 q 122 774 88 758 q 236 821 190 796 q 122 868 190 846 q 88 915 88 882 q 100 944 88 932 q 130 957 113 957 q 160 949 147 957 q 210 911 172 942 q 264 871 249 881 q 249 999 258 914 q 278 1051 249 1036 q 301 1057 288 1057 q 327 1041 314 1057 q 340 1009 340 1025 q 333 947 340 993 q 325 871 326 900 q 378 911 340 881 q 431 949 417 942 q 460 957 444 957 q 488 945 475 957 q 501 915 501 933 q 465 868 501 883 q 353 821 379 835 q 465 774 379 807 q 501 726 501 761 q 488 697 501 710 q 458 685 475 685 q 430 692 442 685 q 380 729 418 699 q 325 771 342 760 z "},"+":{"ha":735,"x_min":63,"x_max":671,"o":"m 411 404 l 614 408 q 621 408 618 408 q 660 392 650 408 q 671 363 671 375 q 660 333 671 350 q 621 317 650 317 q 581 317 618 317 q 411 321 544 317 l 417 103 q 403 61 417 76 q 368 46 390 46 q 322 103 322 46 q 328 321 322 133 q 142 317 186 317 q 81 330 97 317 q 64 356 64 343 q 69 381 64 369 q 122 408 85 408 l 328 404 q 322 603 322 576 q 368 660 322 660 q 403 645 390 660 q 417 603 417 631 q 411 404 417 576 z "},",":{"ha":292,"x_min":39,"x_max":211,"o":"m 90 -39 l 81 50 q 99 115 81 90 q 142 142 122 142 q 175 136 161 142 q 211 81 211 118 q 210 68 211 75 q 162 -119 210 -25 q 67 -212 114 -212 q 47 -205 56 -212 q 39 -186 39 -197 q 65 -133 39 -175 q 90 -39 90 -90 z "},"-":{"ha":594,"x_min":92,"x_max":503,"o":"m 149 408 l 297 404 l 446 408 q 453 408 450 408 q 492 392 482 408 q 503 363 503 375 q 492 333 503 350 q 453 317 482 317 q 446 317 450 317 l 297 321 l 149 317 q 142 317 144 317 q 102 333 113 317 q 92 363 92 350 q 102 392 92 375 q 142 408 113 408 q 149 408 144 408 z "},".":{"ha":288,"x_min":78,"x_max":208,"o":"m 98 122 q 108 135 98 122 q 147 149 118 149 q 192 128 176 149 q 208 73 208 107 q 188 13 208 39 q 139 -14 167 -14 q 94 8 111 -14 q 78 63 78 29 q 98 122 78 96 z "},"/":{"ha":504,"x_min":78,"x_max":425,"o":"m 128 -211 q 78 -156 78 -211 q 129 89 78 -132 q 240 591 207 418 q 288 839 274 764 q 310 951 303 914 q 319 997 317 988 q 375 1056 332 1056 q 425 997 425 1056 q 408 904 425 978 q 203 -57 281 367 q 183 -153 190 -125 q 128 -211 172 -211 z "},":":{"ha":314,"x_min":92,"x_max":222,"o":"m 112 682 q 122 695 112 682 q 161 708 132 708 q 206 688 190 708 q 222 633 222 667 q 201 572 222 599 q 153 546 181 546 q 108 567 125 546 q 92 622 92 589 q 112 682 92 656 m 112 122 q 122 135 112 122 q 161 149 132 149 q 206 128 190 149 q 222 73 222 107 q 201 13 222 39 q 153 -14 181 -14 q 108 8 125 -14 q 92 63 92 29 q 112 122 92 96 z "},";":{"ha":336,"x_min":65,"x_max":238,"o":"m 117 -39 l 107 50 q 125 115 107 90 q 168 142 149 142 q 201 136 188 142 q 238 81 238 118 q 236 68 238 75 q 188 -119 236 -25 q 93 -212 140 -212 q 74 -205 82 -212 q 65 -186 65 -197 q 91 -133 65 -175 q 117 -39 117 -90 m 127 682 q 137 695 127 682 q 176 708 147 708 q 222 688 206 708 q 238 633 238 667 q 217 572 238 599 q 169 546 197 546 q 124 567 140 546 q 107 622 107 589 q 127 682 107 656 z "},"<":{"ha":754,"x_min":60,"x_max":657,"o":"m 608 706 q 656 661 656 706 q 656 654 656 657 q 635 621 656 635 q 540 576 614 607 q 403 517 465 546 q 310 474 342 488 q 233 433 279 460 q 210 408 210 418 q 481 267 210 386 q 611 207 601 213 q 657 147 657 182 q 642 114 657 128 q 620 100 628 100 q 611 100 613 100 q 483 150 569 100 q 260 264 332 231 l 161 311 q 61 410 61 356 q 147 492 61 451 q 261 547 179 508 l 426 631 q 557 695 532 685 q 608 706 582 706 z "},"=":{"ha":822,"x_min":108,"x_max":714,"o":"m 411 504 l 657 508 q 664 508 661 508 q 703 492 693 508 q 714 463 714 475 q 703 433 714 450 q 664 417 693 417 q 657 417 661 417 l 411 421 l 165 417 q 158 417 161 417 q 119 433 129 417 q 108 463 108 450 q 119 492 108 475 q 158 508 129 508 q 165 508 161 508 l 411 504 m 165 308 l 411 304 l 657 308 q 664 308 661 308 q 703 292 693 308 q 714 263 714 275 q 703 233 714 250 q 664 217 693 217 q 657 217 661 217 l 411 221 l 165 217 q 158 217 161 217 q 119 233 129 217 q 108 263 108 250 q 119 292 108 275 q 158 308 129 308 q 165 308 161 308 z "},">":{"ha":754,"x_min":96,"x_max":692,"o":"m 367 201 q 342 188 367 201 q 278 153 317 174 q 209 117 240 133 q 150 101 178 101 q 97 156 97 101 q 119 192 97 178 q 215 240 147 210 q 413 329 282 269 q 544 408 544 389 q 467 463 544 422 q 448 472 460 467 q 435 478 436 476 l 356 514 q 275 550 317 533 l 196 583 q 97 660 97 617 q 113 693 97 675 q 125 701 119 697 q 135 706 131 704 q 147 707 140 707 l 158 707 q 169 704 161 707 q 181 701 178 701 q 196 694 185 700 q 326 631 242 675 l 493 547 q 640 474 603 497 q 692 414 692 442 q 682 372 692 397 q 643 339 669 356 q 517 276 617 322 q 367 201 418 229 z "},"?":{"ha":626,"x_min":68,"x_max":557,"o":"m 471 606 q 399 531 447 579 q 313 363 313 444 q 264 282 313 282 q 213 360 213 282 q 299 558 213 464 q 371 633 322 585 q 457 799 457 724 q 409 920 457 874 q 310 967 361 967 q 178 914 219 967 q 115 861 138 861 q 81 874 93 861 q 68 906 68 886 q 140 1005 68 954 q 299 1056 211 1056 q 485 984 414 1056 q 557 804 557 913 q 471 606 557 696 m 199 55 q 199 71 199 55 q 219 113 199 88 q 267 139 239 139 q 311 119 296 139 q 326 65 326 99 q 306 5 326 31 q 258 -21 286 -21 q 215 1 231 -21 q 199 55 199 22 z "},"@":{"ha":1393,"x_min":81,"x_max":1325,"o":"m 986 574 q 958 338 986 557 l 958 276 q 1064 81 958 81 q 1173 152 1125 81 q 1221 381 1221 224 q 1147 657 1221 538 q 961 835 1076 775 q 704 894 846 894 q 338 722 490 894 q 186 309 186 549 q 318 -79 186 69 q 631 -228 450 -228 q 866 -173 776 -228 q 973 -118 956 -118 q 997 -129 990 -118 q 1008 -160 1008 -142 q 979 -204 1008 -178 q 840 -283 939 -247 q 624 -319 740 -319 q 238 -146 393 -319 q 82 303 82 28 q 82 321 82 311 q 162 647 82 492 q 385 894 242 801 q 696 986 529 986 q 706 986 700 986 q 1149 821 974 986 q 1325 371 1325 656 q 1249 97 1325 206 q 1065 -12 1174 -12 q 883 163 911 -12 q 789 38 850 89 q 642 -12 728 -12 q 499 43 556 -12 q 396 314 396 142 q 481 563 396 457 q 701 669 567 669 q 874 607 786 669 q 932 669 883 669 q 986 574 986 669 m 875 300 l 875 507 q 710 578 803 578 q 556 504 618 578 q 493 326 493 431 q 533 148 493 221 q 645 75 572 75 q 778 140 718 75 q 875 300 839 204 z "},"A":{"ha":1135,"x_min":44,"x_max":1100,"o":"m 801 469 q 652 897 669 897 q 535 581 635 897 l 501 475 q 637 485 563 485 q 801 469 711 485 m 369 360 q 203 260 272 328 q 135 132 135 192 q 149 87 135 103 q 188 71 164 71 q 369 360 264 71 m 1100 72 q 1078 5 1100 31 q 1022 -21 1056 -21 q 929 69 961 -21 q 829 378 867 256 q 637 396 724 396 q 478 382 550 396 q 344 88 388 156 q 183 -21 275 -21 q 82 22 119 -21 q 44 129 44 65 q 142 322 44 225 q 394 456 239 419 q 509 790 456 625 q 569 972 563 956 q 650 1056 599 1056 q 735 983 707 1056 q 774 868 742 964 l 911 451 q 1004 408 968 435 q 1040 363 1040 382 q 1006 331 1040 331 q 939 350 993 331 q 1017 129 999 157 q 1046 96 1035 101 q 1071 88 1057 90 q 1100 72 1100 82 z "},"B":{"ha":1031,"x_min":61,"x_max":957,"o":"m 260 229 l 267 410 q 124 453 175 414 q 74 546 74 493 q 124 638 74 599 q 267 690 175 676 q 254 932 254 903 q 507 1063 254 1063 q 783 990 685 1063 q 881 808 881 917 q 772 607 881 700 q 957 338 957 506 q 889 144 957 228 q 713 19 821 60 q 494 -21 604 -21 q 271 9 372 -21 q 115 79 169 39 q 61 147 61 119 q 75 188 61 174 q 108 203 89 203 q 115 203 108 203 q 152 184 121 203 q 223 140 183 165 q 327 96 263 115 q 456 76 392 76 q 464 76 460 76 q 738 149 629 76 q 846 335 846 221 q 807 456 846 400 q 701 544 768 511 q 367 414 558 439 l 372 236 q 372 226 372 231 q 347 175 372 190 q 317 165 332 165 l 286 175 q 260 229 260 192 m 364 933 q 367 699 364 885 q 685 646 535 699 q 778 801 778 717 q 708 926 778 886 q 535 965 639 965 q 364 933 432 965 m 364 604 l 364 508 q 499 533 425 511 q 615 582 574 554 q 403 607 539 607 q 364 604 378 607 m 268 503 l 268 597 q 169 551 169 586 q 268 503 169 506 z "},"C":{"ha":967,"x_min":79,"x_max":889,"o":"m 532 1063 q 785 976 686 1063 q 883 775 883 890 q 826 626 883 685 q 692 567 769 567 q 561 617 614 567 q 508 730 508 669 q 535 831 508 790 q 599 871 561 871 q 633 859 619 871 q 647 830 647 847 q 628 785 647 813 q 608 728 608 758 q 632 678 608 699 q 694 658 656 658 q 758 688 732 658 q 783 768 783 718 q 717 903 783 842 q 532 965 653 965 q 288 834 383 965 q 192 525 192 703 q 292 212 192 347 q 544 76 392 76 q 672 94 613 76 q 761 138 731 113 q 851 199 835 199 q 878 188 867 199 q 889 163 889 178 q 785 44 889 108 q 543 -21 682 -21 q 211 136 343 -21 q 79 523 79 296 q 208 906 79 750 q 532 1063 338 1063 z "},"D":{"ha":1143,"x_min":69,"x_max":1065,"o":"m 1065 518 q 999 254 1065 374 q 802 57 933 135 q 491 -21 671 -21 q 190 83 311 -21 q 69 342 69 188 q 141 534 69 454 q 317 633 213 614 q 311 914 317 751 q 244 961 244 914 q 338 1032 244 1008 q 544 1056 431 1056 q 763 1010 658 1056 q 931 886 867 964 q 1065 518 1065 726 m 313 299 l 318 469 l 318 536 q 216 465 254 518 q 178 342 178 411 q 265 154 178 233 q 496 76 356 76 q 820 203 689 76 q 951 504 951 331 q 849 814 951 678 q 714 919 797 881 q 529 958 631 958 q 425 946 481 958 l 418 640 q 586 583 511 635 q 661 474 661 531 q 633 431 661 440 q 613 426 626 426 q 586 437 599 426 q 550 474 574 447 q 514 511 526 500 q 417 547 467 547 l 418 447 l 422 364 q 425 313 425 328 q 424 283 425 299 q 408 249 424 268 q 377 231 393 231 q 349 236 361 231 q 313 299 313 254 z "},"E":{"ha":876,"x_min":74,"x_max":843,"o":"m 324 657 q 513 706 425 706 q 636 671 600 706 q 678 594 678 640 q 654 531 678 558 q 494 475 603 475 q 396 495 450 475 q 303 544 342 515 q 185 326 185 464 q 267 155 185 233 q 490 76 349 76 q 707 136 631 76 q 804 196 783 196 q 843 160 843 196 q 799 88 843 129 q 670 13 754 46 q 497 -21 586 -21 q 186 82 301 -21 q 74 314 74 186 q 236 607 74 500 q 160 803 160 685 q 253 992 160 921 q 465 1063 347 1063 q 672 1019 583 1063 q 761 922 761 975 q 733 878 761 889 q 709 876 725 876 q 661 897 693 876 q 480 965 571 965 q 329 922 389 965 q 263 794 263 881 q 324 657 263 707 m 394 601 l 379 594 q 501 558 428 558 q 575 593 575 558 q 507 622 575 622 q 394 601 439 622 z "},"F":{"ha":892,"x_min":35,"x_max":865,"o":"m 236 67 l 243 476 q 151 540 151 492 q 164 575 151 563 q 191 589 178 589 q 243 581 204 589 l 239 804 q 90 859 146 815 q 35 968 35 903 q 69 1051 35 1011 q 174 1090 104 1090 q 286 1038 244 1090 q 338 899 328 986 q 781 1053 579 899 q 826 1075 814 1075 q 865 1039 860 1075 q 781 924 865 981 q 575 831 697 867 q 343 796 453 796 l 343 567 q 452 560 389 560 q 600 576 515 560 q 695 592 685 592 q 719 581 706 592 q 732 553 732 571 q 633 489 732 514 q 417 464 533 464 q 343 467 381 464 l 350 67 q 293 -14 350 -14 q 236 67 236 -14 m 236 904 q 172 1000 225 1000 q 143 989 156 1000 q 131 964 131 978 q 236 904 131 917 z "},"G":{"ha":1085,"x_min":79,"x_max":1064,"o":"m 813 474 q 706 521 790 506 q 639 528 668 528 q 594 518 610 528 q 551 483 551 504 q 642 447 551 447 q 813 474 733 447 m 826 390 q 642 357 733 357 q 497 391 550 357 q 443 477 443 425 q 494 575 443 529 q 643 621 547 621 q 807 585 739 621 q 903 515 875 550 q 971 557 928 525 q 1028 589 1014 589 q 1064 547 1064 589 q 931 429 1064 500 q 817 106 931 235 q 532 -22 704 -22 q 207 136 336 -22 q 79 522 79 296 q 211 906 79 749 q 546 1063 344 1063 q 771 1015 669 1063 q 872 908 872 967 q 844 864 872 874 q 819 861 835 861 q 722 913 792 861 q 546 965 661 965 q 292 834 392 965 q 192 525 192 703 q 288 212 192 347 q 531 76 383 76 q 739 173 653 76 q 826 390 825 269 z "},"H":{"ha":993,"x_min":63,"x_max":871,"o":"m 63 551 q 100 600 67 600 q 157 578 122 600 l 149 985 q 165 1035 149 1015 q 206 1056 182 1056 q 246 1036 229 1056 q 263 985 263 1017 q 259 865 263 953 q 256 540 256 778 q 415 519 315 519 q 746 656 638 519 l 739 963 q 800 1056 739 1056 q 858 1013 849 1056 q 869 881 869 972 q 843 607 869 790 l 853 57 q 825 -4 854 14 q 796 -14 811 -14 l 767 -4 q 739 57 738 14 l 747 479 l 747 524 q 598 453 694 479 q 413 426 501 426 q 256 440 325 426 l 263 57 q 235 -4 264 14 q 206 -14 219 -14 l 176 -4 q 149 57 147 14 l 154 464 q 63 551 63 494 z "},"I":{"ha":831,"x_min":51,"x_max":775,"o":"m 676 617 l 675 382 q 577 78 675 176 q 340 -21 479 -21 q 125 60 200 -21 q 51 242 51 142 q 115 406 51 343 q 263 469 179 469 q 394 417 346 469 q 443 288 443 364 q 392 176 443 211 q 364 167 375 167 q 346 188 343 167 q 350 203 346 189 q 358 278 358 242 q 329 345 358 314 q 256 376 300 376 q 181 341 211 376 q 151 245 151 306 q 196 129 151 185 q 329 76 242 76 q 510 153 444 76 q 575 369 575 231 l 576 617 q 574 932 576 810 q 436 919 492 919 q 136 1007 136 919 q 189 1056 136 1056 q 280 1038 196 1056 q 436 1021 364 1021 q 608 1038 508 1021 q 717 1056 707 1056 q 775 1009 775 1056 q 679 946 775 963 q 676 617 676 815 z "},"J":{"ha":800,"x_min":11,"x_max":738,"o":"m 639 674 l 638 331 l 638 104 q 544 -219 638 -112 q 309 -326 450 -326 q 89 -237 168 -326 q 11 -37 11 -147 q 78 145 11 72 q 233 218 144 218 q 372 165 321 218 q 424 36 424 113 q 371 -75 424 -40 q 344 -85 354 -85 q 326 -64 324 -85 q 331 -47 326 -62 q 339 27 339 -10 q 308 95 339 64 q 229 126 278 126 q 146 78 181 126 q 111 -42 111 31 q 163 -174 111 -115 q 303 -232 214 -232 q 478 -142 415 -232 q 540 106 540 -53 q 538 675 540 485 q 536 933 536 865 q 399 921 456 921 q 99 1008 99 921 q 151 1057 99 1057 q 242 1040 158 1057 q 398 1022 325 1022 q 570 1040 471 1022 q 679 1057 669 1057 q 738 1010 738 1057 q 642 947 738 964 l 642 928 l 639 674 z "},"K":{"ha":981,"x_min":58,"x_max":979,"o":"m 331 607 l 332 485 q 464 524 421 493 q 331 607 418 592 m 236 493 l 236 613 q 176 591 199 607 q 154 554 154 575 q 236 493 154 513 m 229 47 l 233 393 q 105 455 151 410 q 58 558 58 500 q 106 661 58 617 q 233 715 153 706 l 226 985 q 242 1036 226 1017 q 283 1056 257 1056 q 325 1036 310 1056 q 340 991 340 1017 q 333 711 340 965 q 542 592 469 688 q 656 774 608 667 q 721 994 704 882 q 778 1056 732 1056 q 812 1042 799 1056 q 825 1004 825 1028 q 756 757 825 906 q 597 511 686 608 q 821 90 736 226 q 944 -6 878 -1 l 956 -6 q 979 -12 979 -6 l 979 -19 q 955 -87 979 -61 q 897 -112 931 -112 q 841 -99 864 -112 q 809 -75 818 -85 q 781 -42 800 -65 q 663 151 740 4 l 513 446 q 333 389 433 401 l 343 57 q 343 47 343 51 q 317 -6 343 11 q 286 -14 301 -14 l 256 -6 q 229 47 229 11 z "},"L":{"ha":863,"x_min":49,"x_max":815,"o":"m 222 18 q 125 -12 157 -12 q 71 10 93 -12 q 49 67 49 33 q 69 122 49 100 q 117 146 90 146 q 176 136 143 146 q 204 531 204 228 q 186 840 204 690 q 168 1008 168 990 q 183 1042 168 1025 q 222 1058 199 1058 q 283 988 272 1058 q 304 534 304 836 q 275 107 304 232 q 508 76 371 76 q 652 116 592 76 q 713 221 713 156 q 692 276 713 253 q 643 299 672 299 q 578 244 589 299 q 538 190 564 190 q 508 213 521 190 q 496 261 496 235 q 538 351 496 313 q 646 390 581 390 q 763 344 711 390 q 815 221 815 299 q 725 47 815 111 q 501 -21 629 -21 q 222 18 374 -21 z "},"M":{"ha":1374,"x_min":43,"x_max":1310,"o":"m 351 869 l 349 994 q 364 1035 349 1017 q 401 1053 376 1053 q 463 1004 440 1053 q 778 319 653 569 q 1028 861 914 582 q 1092 1011 1060 939 q 1149 1053 1111 1053 q 1206 982 1206 1053 l 1199 521 q 1251 106 1199 174 q 1273 97 1258 99 q 1299 94 1288 96 q 1310 85 1310 93 q 1285 17 1310 43 q 1226 -10 1261 -10 q 1101 324 1101 -10 l 1101 790 l 833 201 q 783 158 814 158 q 726 206 751 158 q 664 351 725 208 q 456 796 603 494 l 456 472 q 417 145 456 251 q 313 6 379 39 q 221 -14 271 -14 q 91 45 139 -14 q 43 181 43 104 q 95 317 43 257 q 219 378 147 378 q 270 363 250 378 q 290 321 290 349 q 224 269 290 269 q 171 244 193 269 q 149 180 149 218 q 169 117 149 142 q 228 93 190 93 q 328 199 301 93 q 356 537 356 304 q 351 869 356 769 z "},"N":{"ha":1219,"x_min":43,"x_max":1186,"o":"m 221 -11 q 91 48 139 -11 q 43 183 43 107 q 95 320 43 260 q 219 381 147 381 q 270 366 250 381 q 290 324 290 351 q 224 272 290 272 q 171 247 193 272 q 149 183 149 221 q 169 120 149 144 q 228 96 190 96 q 357 496 357 96 q 335 783 357 606 q 313 991 313 961 q 332 1039 313 1021 q 378 1057 351 1057 q 440 1008 417 1057 q 654 618 515 863 q 894 213 793 374 q 881 406 889 213 q 874 661 874 600 q 904 924 874 815 q 963 1022 922 986 q 1058 1057 1004 1057 q 1149 1028 1111 1057 q 1186 963 1186 1000 q 1154 925 1186 925 q 1114 938 1144 925 q 1060 950 1083 950 q 972 549 972 950 q 988 260 972 454 q 1003 43 1003 65 q 984 3 1003 21 q 940 -15 965 -15 q 875 33 903 -15 q 717 310 806 157 l 540 625 q 435 811 464 767 q 454 463 454 628 q 221 -11 454 -11 z "},"O":{"ha":1126,"x_min":76,"x_max":1046,"o":"m 642 965 q 475 897 547 965 q 368 728 403 828 q 333 557 333 628 q 338 443 333 486 q 345 376 342 400 q 349 347 349 351 q 317 313 349 313 q 265 384 289 313 q 242 533 242 456 q 351 904 242 746 q 639 1063 461 1063 q 931 910 817 1063 q 1046 528 1046 757 q 915 140 1046 300 q 573 -21 783 -21 q 219 131 363 -21 q 76 519 76 282 q 97 677 76 617 q 157 738 117 738 q 189 724 176 738 q 201 697 201 711 q 192 624 201 683 q 183 519 183 565 q 299 196 183 315 q 569 76 414 76 q 769 139 682 76 q 897 299 856 201 q 939 506 939 397 q 939 519 939 513 q 858 834 939 703 q 642 965 776 965 z "},"P":{"ha":960,"x_min":54,"x_max":913,"o":"m 278 442 q 274 696 278 592 q 184 655 217 689 q 151 581 151 621 q 184 501 151 542 q 278 442 217 461 m 374 331 q 381 59 381 92 q 364 6 381 26 q 331 -15 347 -15 q 303 -8 315 -15 q 267 57 267 10 l 276 347 q 111 436 171 369 q 54 581 54 504 q 113 716 54 657 q 269 789 172 775 l 263 954 q 307 1021 265 1003 q 511 1056 393 1056 q 798 956 683 1056 q 913 724 913 857 q 844 500 913 590 q 438 329 717 329 q 374 331 388 329 m 371 696 q 372 424 372 660 q 411 422 381 422 q 693 496 582 422 q 804 719 804 569 q 717 891 804 822 q 510 960 631 960 q 369 942 425 960 q 372 789 369 892 q 523 726 458 778 q 588 622 588 675 q 574 588 588 600 q 543 575 561 575 q 501 603 525 575 q 371 696 425 692 z "},"Q":{"ha":1151,"x_min":79,"x_max":1071,"o":"m 332 561 q 353 407 332 469 q 374 335 374 344 q 344 306 374 306 q 269 390 304 306 q 235 563 235 474 q 353 917 235 771 q 651 1063 471 1063 q 951 910 832 1063 q 1071 533 1071 757 q 1010 260 1071 386 q 843 60 949 135 q 957 -103 950 -86 q 964 -133 964 -119 q 951 -163 964 -147 q 921 -179 938 -179 q 867 -146 889 -179 q 806 -53 861 -139 l 763 15 q 586 -21 674 -21 q 228 143 378 -21 q 79 547 79 308 q 114 764 79 724 q 155 785 131 785 q 192 768 179 785 q 206 738 206 754 q 194 687 206 721 q 183 536 183 653 q 301 213 183 347 q 586 79 419 79 q 704 100 669 79 q 594 278 594 256 q 607 319 594 301 q 636 337 619 336 q 667 328 653 338 q 688 307 681 318 q 719 256 696 296 q 786 143 742 217 q 918 310 869 203 q 967 543 967 418 q 876 840 967 721 q 651 960 786 960 q 424 847 515 960 q 332 561 332 735 z "},"R":{"ha":1026,"x_min":58,"x_max":993,"o":"m 328 933 q 333 660 328 854 q 485 606 413 651 q 601 497 558 560 q 710 605 669 539 q 750 740 750 671 q 669 905 750 844 q 469 965 589 965 q 328 933 404 965 m 332 569 l 332 439 q 411 436 364 436 q 506 454 458 436 q 332 569 446 543 m 236 449 l 236 575 q 154 520 154 564 q 236 449 154 476 m 969 -8 q 993 -15 993 -8 l 993 -22 q 969 -87 993 -58 q 919 -115 944 -115 q 864 -99 894 -115 q 784 -14 833 -82 q 683 153 735 54 l 556 376 q 379 346 469 346 q 333 347 343 346 l 342 57 q 326 6 342 25 q 285 -14 311 -14 q 243 6 258 -14 q 228 76 228 25 q 233 358 228 126 q 103 421 147 378 q 58 519 58 464 q 108 617 58 575 q 233 665 157 658 l 222 942 q 271 1025 222 1001 q 471 1063 354 1063 q 749 971 640 1063 q 858 743 858 879 q 802 559 858 647 q 651 417 746 471 q 835 93 808 133 q 958 -8 899 -4 l 969 -8 z "},"S":{"ha":807,"x_min":64,"x_max":749,"o":"m 343 203 q 333 200 343 203 q 308 203 322 196 q 294 221 294 210 q 301 247 294 232 q 314 275 308 261 q 303 326 328 308 q 244 346 274 346 q 190 322 215 346 q 164 254 164 297 q 225 134 164 192 q 392 76 286 76 q 567 139 497 76 q 638 292 638 201 q 454 507 638 414 q 411 528 444 513 q 365 551 378 544 q 324 574 353 558 q 280 600 296 589 q 242 626 264 611 q 171 690 208 649 q 118 841 118 754 q 203 995 118 928 q 402 1063 288 1063 q 597 1019 517 1063 q 678 922 678 976 q 650 878 678 889 q 625 875 640 875 q 595 885 610 875 q 562 911 581 894 q 528 938 543 928 q 414 965 486 965 q 285 928 342 965 q 229 835 229 890 q 282 733 229 781 q 431 637 329 692 q 565 561 532 582 q 698 442 647 513 q 749 292 749 372 q 649 72 749 164 q 396 -21 550 -21 q 153 60 242 -21 q 64 238 64 140 q 115 388 64 335 q 244 442 167 442 q 364 403 322 442 q 406 314 406 364 q 379 232 406 264 q 343 203 364 211 z "},"T":{"ha":874,"x_min":28,"x_max":835,"o":"m 447 39 q 447 31 447 39 q 431 5 447 24 q 390 -14 415 -14 q 349 5 364 -14 q 334 39 335 24 q 333 69 333 54 q 336 174 333 85 q 339 521 339 264 q 354 867 339 778 q 192 899 281 872 q 28 1007 28 949 q 56 1054 26 1039 q 83 1061 69 1061 q 110 1050 96 1061 q 146 1028 131 1039 q 375 964 200 990 q 488 1077 411 1038 q 651 1117 564 1117 q 785 1078 738 1117 q 835 990 835 1040 q 778 896 835 939 q 576 853 721 853 q 453 857 497 853 q 439 578 439 815 q 443 197 439 340 q 447 39 447 54 m 640 1019 q 476 953 524 1019 q 556 946 513 946 q 665 958 599 946 q 731 990 731 971 q 640 1019 731 1019 z "},"U":{"ha":1101,"x_min":39,"x_max":1049,"o":"m 211 958 q 158 933 179 958 q 136 875 136 908 q 149 819 136 842 q 174 783 161 796 q 186 764 186 771 q 147 731 186 731 q 74 774 108 731 q 39 875 39 817 q 75 994 39 933 q 211 1063 119 1063 q 351 999 303 1063 q 400 859 400 936 q 365 594 400 782 q 329 356 329 406 q 371 151 329 226 q 495 76 413 76 q 651 175 578 76 q 761 394 724 274 q 806 628 799 514 q 801 964 801 725 q 861 1056 801 1056 q 933 940 933 1056 q 897 585 933 913 q 928 281 900 435 q 982 99 956 126 q 1019 87 990 89 q 1049 71 1049 85 q 1022 6 1049 32 q 967 -22 994 -22 q 931 -14 940 -22 q 886 36 910 -3 q 853 144 865 75 q 839 220 840 213 q 833 266 838 228 q 825 315 828 304 q 709 83 792 186 q 488 -21 626 -21 q 281 86 350 -21 q 219 303 219 185 q 258 597 219 422 q 296 846 296 772 q 211 958 296 958 z "},"V":{"ha":1024,"x_min":33,"x_max":986,"o":"m 292 497 l 296 733 q 193 960 296 960 q 146 942 164 960 q 129 906 128 925 q 142 875 131 888 q 171 861 150 869 q 215 811 215 843 q 163 763 215 763 q 72 805 110 763 q 33 907 33 847 q 75 1015 33 967 q 186 1063 117 1063 q 364 969 319 1063 q 403 744 403 893 q 397 503 401 664 q 435 197 397 310 q 538 83 472 83 q 620 163 583 83 q 711 428 657 242 q 806 757 765 615 q 872 996 868 985 q 933 1054 892 1054 q 973 1036 960 1054 q 986 999 986 1018 q 947 853 986 979 q 828 462 907 728 q 710 114 750 196 q 529 -21 643 -21 q 353 115 415 -21 q 292 497 292 250 z "},"W":{"ha":1472,"x_min":33,"x_max":1443,"o":"m 290 497 l 294 733 q 192 960 294 960 q 145 942 163 960 q 129 906 128 925 q 142 874 131 886 q 171 860 150 868 q 215 810 215 842 q 163 761 215 761 q 72 803 110 761 q 33 906 33 846 q 75 1015 33 967 q 185 1063 117 1063 q 363 969 318 1063 q 401 744 401 893 l 396 503 q 430 196 396 308 q 522 83 464 83 q 647 199 590 83 q 704 449 704 315 l 701 758 q 761 850 701 850 q 833 735 833 850 q 806 440 833 699 q 864 201 807 313 q 988 89 921 89 q 1083 200 1049 89 q 1118 507 1118 311 l 1113 744 q 1147 969 1113 890 q 1313 1063 1186 1063 q 1403 1029 1364 1063 q 1443 963 1443 996 q 1413 929 1443 929 q 1374 944 1403 929 q 1322 960 1344 960 q 1219 733 1219 960 l 1224 501 q 1163 119 1224 253 q 983 -14 1103 -14 q 849 55 907 -14 q 756 244 790 124 q 663 50 722 121 q 526 -21 604 -21 q 349 113 408 -21 q 290 497 290 246 z "},"X":{"ha":1044,"x_min":39,"x_max":999,"o":"m 507 446 q 311 125 367 221 l 249 19 q 194 -14 225 -14 q 139 35 139 -14 q 151 76 139 58 l 213 169 q 458 543 317 321 q 313 853 383 743 q 189 963 243 963 q 138 926 150 963 q 133 899 133 914 q 144 877 133 885 q 176 861 156 869 q 221 811 221 843 q 169 763 221 763 q 76 804 117 763 q 39 906 39 842 q 103 1033 39 988 q 188 1061 139 1061 q 193 1061 190 1061 q 361 963 288 1061 q 522 643 438 864 q 655 866 571 721 q 753 1033 739 1011 q 797 1056 769 1056 q 836 1041 825 1056 q 847 1008 847 1026 q 837 969 847 990 q 790 888 826 947 l 574 542 q 849 76 739 76 q 892 94 876 76 q 907 137 907 111 q 889 176 907 163 q 847 192 871 190 q 789 221 789 196 q 813 258 789 246 q 865 271 836 271 q 959 231 919 271 q 999 130 999 190 q 956 24 999 69 q 842 -22 914 -22 q 700 56 769 -22 q 507 446 619 151 z "},"Y":{"ha":810,"x_min":29,"x_max":772,"o":"m 29 990 q 79 1056 29 1056 q 107 1042 93 1056 q 127 1010 121 1029 q 144 948 133 992 q 172 849 156 904 q 303 586 219 690 q 390 529 349 529 q 421 535 411 529 q 581 1019 482 922 q 672 1061 622 1061 q 747 1030 721 1061 q 772 946 772 999 q 692 699 772 831 q 518 475 613 568 q 507 288 507 406 q 514 65 507 169 q 521 -61 521 -40 q 505 -100 521 -82 q 464 -118 489 -118 q 403 11 411 -118 q 401 129 401 44 q 418 431 401 214 q 382 428 401 428 q 253 481 311 428 q 142 649 196 535 q 59 856 89 763 q 29 990 29 950 m 663 961 q 581 817 633 961 q 522 603 528 672 q 626 768 575 664 q 678 932 678 872 q 663 961 678 961 z "},"Z":{"ha":865,"x_min":17,"x_max":818,"o":"m 129 154 q 338 499 193 258 q 586 953 482 740 q 413 929 489 929 q 283 933 338 929 q 187 944 229 936 q 110 972 144 953 q 79 1017 76 990 q 128 1063 79 1063 q 215 1044 133 1063 q 383 1026 297 1026 q 561 1044 469 1026 q 667 1063 653 1063 q 732 1008 732 1063 q 689 901 732 979 q 571 695 646 822 q 442 478 496 568 q 235 131 283 218 q 508 76 408 76 q 665 113 608 76 q 721 212 721 149 q 672 294 721 275 q 635 303 656 303 q 596 279 614 303 q 585 188 564 247 q 589 174 589 175 q 557 154 590 149 q 504 203 524 160 q 494 240 494 225 q 494 258 494 254 q 538 349 494 306 q 647 393 581 393 q 766 344 714 393 q 818 201 818 294 q 735 44 818 108 q 525 -21 653 -21 q 190 42 397 -21 q 105 -8 151 -8 q 40 11 58 -8 q 18 58 18 35 q 26 99 18 81 q 61 135 33 118 q 129 154 89 151 z "},"[":{"ha":483,"x_min":106,"x_max":447,"o":"m 208 -222 l 269 -222 l 390 -218 q 397 -218 394 -218 q 437 -235 426 -218 q 447 -264 447 -251 q 437 -293 447 -276 q 397 -310 426 -310 q 390 -310 394 -310 l 269 -306 l 163 -311 q 122 -299 138 -311 q 106 -269 106 -286 q 110 -47 106 -253 q 114 368 114 158 q 110 783 114 578 q 106 1006 106 989 q 122 1035 106 1022 q 163 1047 138 1047 l 269 1042 l 390 1046 q 397 1046 394 1046 q 437 1029 426 1046 q 447 1000 447 1013 q 437 971 447 988 q 397 954 426 954 q 390 954 394 954 l 269 958 l 208 958 q 200 368 200 483 q 208 -222 200 253 z "},"\\":{"ha":504,"x_min":79,"x_max":426,"o":"m 426 -156 q 376 -211 426 -211 q 321 -153 331 -211 l 303 -57 q 96 904 196 522 q 79 997 79 978 q 129 1056 79 1056 q 185 997 172 1056 l 203 901 q 332 271 272 525 l 410 -61 q 426 -156 426 -135 z "},"]":{"ha":483,"x_min":36,"x_max":378,"o":"m 214 1042 l 321 1047 q 362 1035 346 1047 q 378 1006 378 1022 q 374 783 378 989 q 369 367 369 576 q 374 -48 369 158 q 378 -270 378 -254 q 362 -299 378 -286 q 321 -311 346 -311 l 214 -306 l 93 -310 q 86 -310 89 -310 q 47 -293 57 -310 q 36 -264 36 -276 q 47 -235 36 -251 q 86 -218 57 -218 q 93 -218 89 -218 l 214 -222 l 275 -222 q 283 368 283 253 q 275 958 283 483 l 214 958 l 93 954 q 86 954 89 954 q 47 971 57 954 q 36 1000 36 988 q 47 1029 36 1013 q 86 1046 57 1046 q 93 1046 89 1046 l 214 1042 z "},"^":{"ha":724,"x_min":58,"x_max":668,"o":"m 668 549 q 657 524 671 538 q 619 511 643 511 q 576 544 594 511 q 524 646 576 547 q 361 933 376 933 q 249 741 351 933 q 146 544 146 549 q 104 511 128 511 q 58 551 58 511 q 133 703 58 578 l 196 808 q 242 892 217 844 l 313 1024 q 363 1056 331 1056 q 414 1025 396 1056 q 555 768 456 939 q 661 579 654 597 q 668 549 668 561 z "},"_":{"ha":800,"x_min":69,"x_max":731,"o":"m 119 -218 l 400 -222 l 674 -218 q 681 -218 678 -218 q 720 -235 710 -218 q 731 -264 731 -251 q 720 -293 731 -276 q 681 -310 710 -310 q 674 -310 678 -310 l 400 -306 l 126 -310 q 119 -310 122 -310 q 80 -293 90 -310 q 69 -264 69 -276 q 80 -235 69 -251 q 119 -218 90 -218 z "},"`":{"ha":396,"x_min":96,"x_max":299,"o":"m 299 853 q 261 824 299 824 q 160 883 224 824 q 97 1003 97 944 q 96 1011 96 1007 q 126 1050 96 1038 q 154 1056 138 1056 q 218 981 186 1056 q 268 903 238 938 q 299 853 299 869 z "},"a":{"ha":793,"x_min":67,"x_max":742,"o":"m 649 336 q 663 167 649 235 q 700 92 678 100 q 720 86 708 88 q 737 82 732 85 q 742 71 742 79 q 721 9 742 32 q 660 -14 700 -14 q 599 37 621 -14 q 576 169 576 88 q 472 38 539 89 q 322 -14 406 -14 q 178 42 238 -14 q 67 332 67 144 q 154 596 67 483 q 379 708 242 708 q 560 638 483 708 q 613 708 560 708 q 676 613 676 708 q 649 336 676 518 m 568 324 l 561 538 q 388 618 479 618 q 231 536 296 618 q 165 338 165 454 q 208 149 165 222 q 328 76 251 76 q 469 144 404 76 q 568 324 533 213 z "},"b":{"ha":767,"x_min":92,"x_max":701,"o":"m 701 363 q 614 99 701 211 q 389 -14 526 -14 q 208 57 286 -14 q 156 -14 208 -14 q 92 81 92 -14 q 119 358 92 176 q 107 715 119 453 q 94 997 94 976 q 109 1038 94 1018 q 140 1057 124 1057 q 169 1050 156 1057 q 203 996 203 1035 q 203 986 203 990 l 203 547 q 304 664 240 619 q 449 708 368 708 q 589 653 529 708 q 701 363 701 550 m 200 371 l 207 157 q 381 76 289 76 q 538 158 472 76 q 603 356 603 240 q 560 545 603 472 q 440 618 517 618 q 299 550 364 618 q 200 371 235 482 z "},"c":{"ha":707,"x_min":64,"x_max":654,"o":"m 619 143 q 654 106 654 143 q 574 24 654 69 q 404 -21 492 -21 q 161 86 260 -21 q 64 347 64 193 q 161 608 64 501 q 419 715 258 715 q 574 676 506 715 q 642 597 642 636 q 614 547 642 558 q 591 544 606 544 q 554 564 576 544 q 407 625 481 625 q 239 544 311 625 q 168 348 168 464 q 241 151 168 232 q 419 69 314 69 q 579 125 503 69 q 619 143 606 143 z "},"d":{"ha":817,"x_min":65,"x_max":772,"o":"m 589 317 l 589 538 q 392 618 507 618 q 236 537 304 618 q 168 345 168 456 q 217 154 168 235 q 349 76 265 76 q 589 317 494 76 m 647 1056 q 715 943 715 1056 q 710 843 715 900 l 693 661 q 675 457 678 492 q 688 185 675 275 q 736 89 701 96 q 772 68 772 89 q 752 12 772 38 q 694 -14 732 -14 q 599 172 617 -14 q 342 -14 496 -14 q 186 44 250 -14 q 65 332 65 151 q 157 596 65 483 q 392 708 249 708 q 589 640 496 708 q 592 956 592 899 q 605 1034 592 1013 q 647 1056 618 1056 z "},"e":{"ha":749,"x_min":33,"x_max":681,"o":"m 440 625 q 287 556 349 625 q 206 396 225 488 q 374 374 281 374 q 525 406 468 374 q 582 493 582 438 q 544 587 582 549 q 440 625 506 625 m 381 286 q 204 307 308 286 q 277 139 213 208 q 428 69 342 69 q 569 112 514 69 q 642 154 625 154 q 670 144 660 154 q 681 118 681 133 q 601 29 681 79 q 428 -21 521 -21 q 198 81 283 -21 q 107 325 113 183 q 33 397 33 349 q 57 439 33 429 q 78 442 65 442 q 115 429 92 442 q 231 635 147 556 q 428 715 315 715 q 611 653 542 715 q 681 490 681 590 q 594 338 681 389 q 381 286 508 286 z "},"f":{"ha":454,"x_min":28,"x_max":472,"o":"m 81 697 l 150 694 l 150 813 q 198 995 150 935 q 314 1056 246 1056 q 427 1031 382 1056 q 472 975 472 1006 q 433 929 472 929 q 387 946 424 929 q 329 963 350 963 q 243 800 243 963 l 243 694 l 378 697 q 415 685 400 697 q 431 653 431 674 q 378 611 431 611 l 243 614 l 247 115 q 197 -97 247 -22 q 92 -171 146 -171 q 39 -144 39 -171 q 49 -123 39 -133 q 78 -96 60 -112 q 108 -61 96 -79 q 153 101 149 -4 q 157 349 157 207 q 151 614 157 490 l 81 611 q 28 653 28 611 q 43 685 28 674 q 81 697 58 697 z "},"g":{"ha":775,"x_min":65,"x_max":681,"o":"m 567 325 l 567 538 q 398 618 490 618 q 237 536 306 618 q 168 340 168 454 q 212 151 168 225 q 331 76 256 76 q 469 147 406 76 q 567 325 532 217 m 564 643 q 617 708 567 708 q 681 613 681 708 q 653 336 681 518 q 669 83 669 167 q 583 -208 669 -97 q 344 -319 497 -319 q 183 -284 261 -319 q 106 -213 106 -249 q 138 -178 106 -178 q 208 -203 150 -178 q 344 -229 267 -229 q 519 -147 456 -229 q 583 69 583 -64 q 576 169 583 118 q 476 40 544 94 q 335 -14 408 -14 q 128 101 201 -14 q 65 344 65 206 q 158 596 65 483 q 390 708 251 708 q 564 643 486 708 z "},"h":{"ha":801,"x_min":92,"x_max":751,"o":"m 686 438 l 679 219 l 679 160 q 707 92 682 103 q 729 87 717 89 q 747 82 742 85 q 751 71 751 79 q 728 10 751 35 q 675 -14 706 -14 q 603 26 624 -14 q 582 150 582 67 l 588 406 q 547 559 588 501 q 435 617 506 617 q 298 538 364 617 q 204 358 232 460 l 208 57 q 156 -14 208 -14 q 92 81 92 -14 q 119 358 92 176 q 107 715 119 453 q 94 997 94 976 q 109 1038 94 1018 q 140 1057 124 1057 q 169 1050 156 1057 q 203 996 203 1035 q 203 986 203 990 l 203 532 q 453 708 304 708 q 626 628 565 708 q 686 438 686 549 z "},"i":{"ha":311,"x_min":93,"x_max":219,"o":"m 163 1007 q 219 940 219 1007 q 199 883 219 910 q 151 856 179 856 q 93 926 93 856 q 113 983 93 960 q 163 1007 133 1007 m 208 639 l 201 347 l 208 56 q 156 -14 208 -14 q 103 56 103 -14 l 110 347 l 103 639 q 156 708 103 708 q 208 639 208 708 z "},"j":{"ha":310,"x_min":-10,"x_max":219,"o":"m 163 1007 q 219 940 219 1007 q 199 883 219 910 q 151 856 179 856 q 93 926 93 856 q 113 983 93 960 q 163 1007 133 1007 m 208 639 l 201 319 l 200 14 q 140 -184 200 -106 q 28 -262 79 -262 q -10 -236 -10 -262 q 50 -158 -10 -217 q 93 -85 75 -135 q 111 28 111 -35 l 110 319 l 103 639 q 156 708 103 708 q 208 639 208 708 z "},"k":{"ha":708,"x_min":92,"x_max":661,"o":"m 204 358 l 208 57 q 156 -14 208 -14 q 92 81 92 -14 q 119 358 92 176 q 107 715 119 453 q 94 997 94 976 q 109 1038 94 1018 q 140 1057 124 1057 q 169 1050 156 1057 q 203 996 203 1035 q 203 986 203 990 l 203 532 q 453 708 304 708 q 581 662 532 708 q 631 546 631 615 q 513 351 631 432 l 444 307 l 547 149 q 588 104 565 119 q 627 87 611 89 q 653 82 643 85 q 661 71 663 79 q 640 12 661 38 q 590 -14 619 -14 q 568 -14 585 -14 q 482 71 533 -14 q 478 78 481 75 q 428 159 476 81 q 351 276 379 238 q 292 296 315 276 q 268 351 268 315 q 308 404 268 388 q 331 408 319 408 q 399 374 363 408 q 492 446 451 397 q 533 533 533 494 q 447 617 533 617 q 300 539 369 617 q 204 358 231 461 z "},"l":{"ha":311,"x_min":103,"x_max":208,"o":"m 208 986 l 201 521 l 208 56 q 156 -14 208 -14 q 103 56 103 -14 l 110 521 l 103 986 q 156 1056 103 1056 q 208 986 208 1056 z "},"m":{"ha":1218,"x_min":94,"x_max":1168,"o":"m 1103 438 l 1096 219 l 1096 160 q 1124 92 1099 103 q 1146 87 1133 89 q 1163 82 1158 85 q 1168 71 1168 79 q 1145 10 1168 35 q 1092 -14 1122 -14 q 1019 26 1040 -14 q 999 150 999 67 l 1004 406 q 967 559 1004 501 q 864 617 929 617 q 736 538 799 617 q 649 358 674 458 l 653 57 q 600 -14 653 -14 q 536 81 536 -14 q 564 358 536 176 q 422 617 564 617 q 294 538 357 617 q 207 358 232 458 l 211 57 q 158 -14 211 -14 q 94 81 94 -14 q 122 358 94 176 q 110 522 122 417 q 99 650 99 628 q 114 690 99 672 q 153 708 129 708 q 192 690 176 708 q 207 651 207 672 q 206 589 207 631 q 206 532 206 547 q 442 708 299 708 q 574 661 522 708 q 647 532 626 614 q 883 708 740 708 q 1044 629 989 708 q 1103 438 1103 550 z "},"n":{"ha":804,"x_min":94,"x_max":754,"o":"m 689 438 l 682 219 l 682 160 q 710 92 685 103 q 732 87 719 89 q 749 82 744 85 q 754 71 754 79 q 731 10 754 35 q 678 -14 708 -14 q 606 26 626 -14 q 585 150 585 67 l 590 406 q 549 559 590 501 q 438 617 508 617 q 301 538 367 617 q 207 358 235 460 l 211 57 q 158 -14 211 -14 q 94 81 94 -14 q 122 358 94 176 q 110 522 122 417 q 99 650 99 628 q 114 690 99 672 q 153 708 129 708 q 192 690 176 708 q 207 651 207 672 q 206 589 207 631 q 206 532 206 547 q 456 708 307 708 q 628 628 567 708 q 689 438 689 549 z "},"o":{"ha":781,"x_min":64,"x_max":717,"o":"m 163 346 q 163 288 163 346 q 226 150 163 231 q 387 69 290 69 q 551 151 483 69 q 618 347 618 232 q 553 544 618 463 q 394 625 489 625 q 229 543 299 625 q 163 346 163 461 m 156 85 q 110 139 156 85 q 64 346 64 192 q 157 608 64 500 q 392 715 250 715 q 625 609 533 715 q 717 348 717 503 q 623 86 717 193 q 388 -21 529 -21 q 156 85 247 -21 z "},"p":{"ha":792,"x_min":78,"x_max":726,"o":"m 443 618 q 203 378 297 618 l 203 157 q 400 76 285 76 q 556 158 489 76 q 624 350 624 239 q 576 540 624 461 q 443 618 528 618 m 203 54 q 200 -122 200 -51 q 199 -225 200 -192 q 186 -297 196 -282 q 144 -319 174 -319 q 96 -296 114 -319 q 78 -218 78 -272 q 82 -115 78 -164 l 99 50 q 117 238 114 210 l 117 264 l 118 317 l 118 339 q 106 510 118 397 q 93 647 93 622 q 108 690 93 672 q 147 708 124 708 q 186 690 171 708 q 201 651 201 672 q 201 588 201 631 q 200 529 200 544 q 306 664 249 619 q 453 708 364 708 q 606 650 542 708 q 726 363 726 543 q 635 99 726 211 q 400 -14 543 -14 q 203 54 296 -14 z "},"q":{"ha":768,"x_min":67,"x_max":676,"o":"m 67 332 q 154 596 67 483 q 379 708 242 708 q 560 638 483 708 q 613 708 560 708 q 676 613 676 708 q 649 336 676 518 q 661 3 649 247 q 674 -260 674 -240 q 658 -301 674 -281 q 627 -321 643 -321 q 597 -314 611 -321 q 564 -261 564 -299 q 565 -250 564 -256 l 565 147 q 464 31 528 75 q 319 -14 400 -14 q 178 42 238 -14 q 67 332 67 144 m 568 324 l 561 538 q 388 618 479 618 q 231 536 296 618 q 165 338 165 454 q 208 149 165 222 q 328 76 251 76 q 469 144 404 76 q 568 324 533 213 z "},"r":{"ha":567,"x_min":94,"x_max":544,"o":"m 207 318 l 211 57 q 158 -14 211 -14 q 94 81 94 -14 q 122 358 94 176 q 110 522 122 417 q 99 649 99 626 q 114 690 99 671 q 153 708 129 708 q 192 690 176 708 q 207 651 207 671 q 206 589 207 632 q 206 529 206 546 q 292 654 232 599 q 413 708 353 708 q 509 684 474 708 q 544 629 544 660 q 529 582 544 599 q 490 565 514 565 q 436 590 465 565 q 392 617 410 617 q 285 517 346 617 q 207 318 224 418 z "},"s":{"ha":632,"x_min":50,"x_max":578,"o":"m 578 200 q 501 47 578 107 q 317 -14 424 -14 q 129 35 210 -14 q 50 133 50 85 q 76 176 50 165 q 117 174 103 188 q 172 119 119 172 q 229 91 188 106 q 303 76 271 76 q 429 108 381 76 q 478 199 478 140 q 339 319 478 272 q 142 410 185 372 q 103 458 121 428 q 86 521 86 488 q 155 652 86 596 q 319 708 224 708 q 475 676 415 708 q 535 603 535 643 q 486 557 535 557 q 444 572 467 557 q 316 618 378 618 q 222 590 254 618 q 185 528 185 564 q 221 471 185 493 q 339 416 257 449 q 439 375 421 383 q 539 303 500 349 q 578 200 578 257 z "},"t":{"ha":468,"x_min":28,"x_max":439,"o":"m 369 607 l 254 610 l 251 281 q 261 115 251 153 q 317 76 271 76 q 369 91 339 76 q 407 106 400 106 q 436 76 436 106 q 385 17 436 47 q 283 -14 333 -14 q 163 164 163 -14 l 161 610 q 97 606 115 606 q 28 651 28 606 q 97 697 28 697 l 158 694 l 156 850 q 208 919 156 919 q 261 850 261 919 l 257 693 l 369 699 q 439 651 439 699 q 369 607 439 607 z "},"u":{"ha":811,"x_min":86,"x_max":760,"o":"m 210 594 l 199 289 q 240 135 199 193 q 351 76 281 76 q 489 156 422 76 q 582 336 554 236 l 578 638 q 631 708 578 708 q 694 613 694 708 q 667 336 694 518 q 681 167 667 235 q 718 92 696 100 q 738 86 726 88 q 755 82 750 85 q 760 71 760 79 q 737 10 760 33 q 679 -14 714 -14 q 592 164 592 -14 q 333 -14 489 -14 q 161 68 222 -14 q 100 271 100 153 l 108 481 q 97 584 108 524 q 86 660 86 644 q 103 692 86 675 q 146 708 121 708 q 210 594 210 708 z "},"v":{"ha":674,"x_min":32,"x_max":643,"o":"m 371 172 l 443 371 q 493 521 460 415 q 539 658 526 626 q 593 708 558 708 q 628 695 614 708 q 643 663 643 682 q 635 624 643 644 q 622 588 628 603 q 606 548 615 574 q 582 488 596 522 q 505 276 568 453 q 413 43 442 100 q 335 -14 383 -14 q 263 36 288 -14 q 190 219 254 51 l 107 438 q 44 601 57 565 q 32 659 32 636 q 46 695 32 682 q 81 708 60 708 q 138 660 118 708 q 178 538 150 628 l 260 304 q 317 147 303 182 q 336 111 331 113 q 371 172 347 111 z "},"w":{"ha":1092,"x_min":35,"x_max":1057,"o":"m 318 111 q 408 373 332 111 q 494 658 485 635 q 556 708 514 708 q 615 660 599 708 l 696 372 q 785 111 774 111 q 876 371 800 111 q 922 533 894 431 l 956 654 q 1007 708 972 708 q 1042 696 1028 708 q 1057 663 1057 683 q 1032 564 1057 642 q 997 457 1007 486 q 933 261 986 428 q 858 40 879 94 q 781 -14 836 -14 q 700 58 725 -14 q 604 363 650 203 q 548 524 558 524 q 521 468 538 524 l 485 340 q 385 35 413 86 q 308 -14 361 -14 q 229 63 256 -14 q 221 86 226 71 q 206 129 215 101 q 188 185 197 157 q 140 329 179 213 l 103 439 q 75 519 90 476 q 35 655 35 629 q 49 694 35 681 q 85 708 64 708 q 140 660 125 708 q 176 538 142 658 l 221 390 q 236 346 226 375 q 290 174 269 236 q 318 111 311 111 z "},"x":{"ha":683,"x_min":39,"x_max":660,"o":"m 393 364 l 535 151 q 656 69 589 78 q 660 64 661 68 q 640 5 660 31 q 590 -21 619 -21 q 535 6 561 -21 q 483 68 508 32 q 440 129 458 104 l 336 286 q 199 85 244 153 q 141 1 154 17 q 111 -15 128 -15 q 79 -1 94 -15 q 64 29 64 14 q 68 56 64 44 q 126 142 72 68 q 285 363 185 217 l 165 540 q 73 617 107 615 q 39 633 39 619 q 82 710 39 688 q 108 717 94 717 q 171 682 139 717 q 254 567 203 647 l 342 435 l 501 675 q 551 708 528 708 q 564 706 558 708 q 593 668 593 693 q 580 622 593 643 q 499 507 567 600 l 393 364 z "},"y":{"ha":789,"x_min":86,"x_max":694,"o":"m 582 336 l 578 638 q 631 708 578 708 q 694 604 694 708 q 665 336 694 522 q 682 83 682 167 q 592 -209 682 -99 q 343 -319 503 -319 q 182 -284 260 -319 q 104 -213 104 -249 q 136 -178 104 -178 q 213 -203 150 -178 q 343 -229 275 -229 q 527 -147 458 -229 q 596 69 596 -64 q 592 164 596 118 q 333 -14 489 -14 q 161 68 222 -14 q 100 271 100 153 l 108 481 q 97 584 108 524 q 86 660 86 644 q 103 692 86 675 q 146 708 121 708 q 210 594 210 708 l 199 289 q 240 135 199 193 q 351 76 281 76 q 489 156 422 76 q 582 336 554 236 z "},"z":{"ha":664,"x_min":49,"x_max":618,"o":"m 340 83 l 549 90 q 618 42 618 90 q 549 -7 618 -7 l 340 0 q 115 -7 265 -3 q 49 42 49 -7 q 97 133 49 76 q 246 319 171 217 l 394 518 q 453 607 440 583 q 335 611 349 611 l 132 604 q 63 653 63 604 q 132 701 63 701 l 335 694 l 532 701 q 599 653 599 701 q 528 533 599 615 q 352 308 457 450 q 193 86 247 167 q 340 83 304 83 z "},"{":{"ha":426,"x_min":19,"x_max":369,"o":"m 317 -319 q 210 -279 254 -319 q 167 -169 167 -239 q 177 -35 167 -128 q 188 114 188 57 q 176 230 188 171 q 144 299 165 289 q 100 286 121 286 q 19 356 19 286 q 42 413 17 390 q 96 435 67 435 q 144 426 125 435 q 174 506 160 446 q 189 621 189 565 q 178 769 189 676 q 168 903 168 861 q 212 1014 168 972 q 318 1056 256 1056 q 364 1031 351 1056 q 369 1006 369 1019 q 361 981 369 993 q 318 954 349 954 q 265 889 265 954 q 276 775 265 863 q 286 622 286 688 q 218 374 286 463 q 254 319 246 335 q 274 247 263 304 q 285 118 285 190 q 274 -42 285 46 q 264 -156 264 -129 q 317 -218 264 -218 q 361 -244 347 -218 q 367 -269 367 -257 q 361 -294 367 -282 q 317 -319 349 -319 z "},"|":{"ha":306,"x_min":104,"x_max":201,"o":"m 200 1042 l 194 354 q 197 -133 194 -26 q 201 -306 201 -294 q 153 -375 201 -375 q 104 -306 104 -375 q 108 -126 104 -256 q 111 354 111 3 l 106 1042 q 153 1111 106 1111 q 200 1042 200 1111 z "},"}":{"ha":426,"x_min":57,"x_max":407,"o":"m 282 299 q 249 233 260 289 q 239 112 239 178 q 249 -47 239 46 q 260 -169 260 -140 q 216 -279 260 -239 q 110 -319 172 -319 q 65 -294 78 -319 q 60 -269 60 -282 q 67 -244 60 -257 q 110 -218 79 -218 q 163 -156 163 -218 q 152 -53 163 -140 q 142 117 142 35 q 174 322 142 265 q 208 374 181 335 q 140 622 140 463 q 151 786 140 699 q 161 889 161 874 q 108 954 161 954 q 64 981 78 954 q 57 1006 57 993 q 64 1031 57 1019 q 108 1056 75 1056 q 215 1014 171 1056 q 258 903 258 972 q 248 781 258 874 q 238 626 238 688 q 252 506 238 565 q 282 426 267 446 q 331 435 299 435 q 385 413 363 435 q 407 356 407 390 q 364 292 407 306 q 326 286 347 286 q 282 299 306 286 z "},"~":{"ha":767,"x_min":82,"x_max":688,"o":"m 82 331 q 142 415 82 376 q 271 457 203 457 q 417 416 339 457 q 526 375 494 375 q 576 388 558 375 q 608 414 593 400 q 654 444 642 444 q 686 408 686 444 q 636 331 686 372 q 533 289 586 289 q 405 329 479 289 q 290 369 331 369 q 208 329 249 369 q 133 285 163 285 q 93 299 104 285 q 82 331 82 313 z "},"":{"ha":331,"x_min":0,"x_max":0,"o":""},"":{"ha":306,"x_min":89,"x_max":217,"o":"m 109 731 q 119 744 109 731 q 157 757 129 757 q 201 735 185 757 q 217 681 217 714 q 196 623 217 649 q 147 597 175 597 q 104 617 119 597 q 89 671 89 638 q 109 731 89 704 m 203 381 l 199 86 q 203 -111 199 6 q 208 -250 208 -228 q 153 -319 208 -319 q 97 -250 97 -319 q 102 -124 97 -240 q 107 86 107 -8 l 103 381 q 153 450 103 450 q 203 381 203 450 z "},"":{"ha":742,"x_min":79,"x_max":669,"o":"m 453 825 l 450 714 q 594 671 535 710 q 657 594 657 633 q 643 558 657 574 q 612 543 629 543 q 546 579 594 543 q 449 624 499 618 q 447 426 447 575 q 450 69 447 278 q 567 108 511 74 q 635 143 622 143 q 669 108 669 143 q 601 31 669 74 q 451 -19 533 -11 l 454 -117 q 406 -187 454 -187 q 357 -118 357 -187 q 358 -15 357 -49 q 156 110 232 8 q 79 346 79 211 q 154 582 79 481 q 360 708 231 683 q 358 831 358 747 q 406 896 358 896 q 453 825 453 896 m 361 81 q 364 362 364 283 q 363 497 364 440 l 363 615 q 236 519 289 593 q 183 351 183 446 q 232 181 183 257 q 361 81 282 108 z "},"":{"ha":744,"x_min":81,"x_max":672,"o":"m 507 446 l 299 450 q 300 364 300 419 q 256 174 300 271 q 213 90 238 135 q 335 89 243 89 q 521 94 428 89 l 614 99 q 654 84 636 99 q 672 46 672 69 q 603 -7 672 -7 l 393 0 l 168 -7 q 103 31 117 -7 q 97 65 97 42 q 128 137 97 88 q 181 237 158 186 q 207 328 204 288 q 210 394 210 368 q 206 447 210 421 l 140 446 q 88 475 103 446 q 82 498 82 485 q 97 523 82 511 q 125 538 111 535 q 164 538 139 540 q 192 536 189 536 l 175 611 q 151 763 151 717 q 221 926 151 860 q 418 993 292 993 q 564 954 494 993 q 635 874 633 915 q 627 850 631 857 q 611 833 624 843 q 526 858 589 815 q 400 901 464 901 q 294 866 336 901 q 251 767 251 831 q 286 533 251 703 l 507 538 q 514 538 511 538 q 553 521 543 538 q 564 492 564 504 q 553 463 564 479 q 514 446 543 446 q 507 446 511 446 z "},"":{"ha":890,"x_min":85,"x_max":806,"o":"m 692 574 q 735 406 735 499 q 692 239 735 314 l 775 160 q 806 113 806 133 q 789 75 806 92 q 753 58 772 58 q 713 76 733 58 q 629 161 692 94 q 445 94 553 94 q 261 163 338 94 l 188 86 q 136 60 157 60 q 100 74 115 60 q 85 113 85 92 q 114 160 85 133 l 199 242 q 158 404 158 314 q 200 569 158 494 q 114 654 117 650 q 86 704 86 683 q 103 742 86 725 q 140 758 119 758 q 188 728 161 758 l 264 649 q 444 715 340 715 q 628 650 547 715 l 701 728 q 753 754 732 754 q 788 739 774 754 q 804 703 804 728 q 775 654 804 679 q 692 574 721 600 m 308 249 q 444 186 364 186 q 583 251 525 186 q 640 408 640 317 q 585 561 640 500 q 450 625 531 625 q 312 560 369 625 q 254 404 254 494 q 308 249 254 314 z "},"":{"ha":813,"x_min":74,"x_max":735,"o":"m 182 418 q 107 458 107 418 q 113 481 107 468 q 150 507 126 507 q 182 507 154 507 q 314 503 210 507 l 200 704 l 119 840 q 89 894 96 888 q 74 946 74 925 q 91 981 74 967 q 126 996 108 996 q 160 975 144 996 q 213 892 188 947 l 307 700 q 407 518 367 581 q 537 762 444 575 q 644 971 629 949 q 682 993 658 993 q 720 980 706 993 q 735 955 735 967 q 734 937 735 943 q 731 923 733 931 q 719 899 728 915 q 699 864 710 882 q 615 721 665 807 l 492 503 q 642 507 604 507 q 713 463 713 507 q 697 430 713 442 q 633 418 681 418 q 453 422 586 418 l 453 313 l 656 317 q 697 305 681 317 q 713 272 713 293 q 697 240 713 251 q 635 228 681 228 q 453 232 590 228 l 457 56 q 403 -14 457 -14 q 349 56 349 -14 l 354 232 q 182 228 225 228 q 106 269 106 228 q 111 289 106 279 q 164 317 126 317 l 354 313 l 354 422 q 182 418 225 418 z "},"":{"ha":322,"x_min":113,"x_max":210,"o":"m 208 950 l 203 740 l 210 535 q 160 471 210 471 q 113 535 113 471 l 119 740 q 114 950 118 810 q 160 1010 114 1010 q 208 950 208 1010 m 208 160 l 203 -50 l 210 -256 q 160 -319 210 -319 q 113 -256 113 -319 l 119 -50 l 114 160 q 160 219 114 219 q 208 160 208 219 z "},"":{"ha":744,"x_min":75,"x_max":675,"o":"m 532 122 q 624 -68 624 36 q 539 -249 624 -172 q 328 -326 454 -326 q 156 -281 236 -326 q 75 -189 75 -235 q 100 -150 75 -160 q 122 -147 108 -147 q 154 -161 135 -147 l 190 -190 q 322 -235 238 -235 q 460 -187 407 -235 q 513 -65 513 -139 q 485 13 513 -18 q 444 60 458 44 q 396 100 431 75 l 347 133 q 239 203 289 175 q 90 422 90 304 q 142 550 90 493 q 279 626 193 607 q 140 835 140 736 q 213 998 140 933 q 384 1063 286 1063 q 549 1031 482 1063 q 617 956 617 1000 q 594 919 617 928 q 574 917 588 917 q 539 931 561 917 q 403 972 472 972 q 294 935 335 972 q 251 846 251 900 q 400 657 251 756 q 572 539 535 574 q 629 476 610 504 q 674 350 674 418 q 664 281 674 317 q 532 122 631 172 m 347 543 q 311 543 347 543 q 234 508 275 543 q 193 421 193 472 q 250 321 193 369 q 349 248 290 286 q 451 181 408 210 q 538 247 506 200 q 571 356 571 294 q 497 478 571 418 q 347 543 419 543 z "},"":{"ha":543,"x_min":97,"x_max":446,"o":"m 167 1007 q 224 940 224 1007 q 203 883 224 910 q 156 856 183 856 q 97 926 97 856 q 117 983 97 960 q 167 1007 138 1007 m 389 1007 q 446 940 446 1007 q 426 883 446 910 q 378 856 406 856 q 319 926 319 856 q 340 983 319 960 q 389 1007 360 1007 z "},"":{"ha":1050,"x_min":89,"x_max":961,"o":"m 532 882 q 638 858 589 882 q 688 806 688 835 q 650 767 688 767 q 605 786 640 767 q 539 806 569 806 q 415 749 461 806 q 368 613 368 693 q 417 476 368 533 q 539 421 467 421 q 619 438 578 421 q 669 456 660 456 q 700 424 700 456 q 651 373 700 401 q 532 344 603 344 q 354 424 428 344 q 283 614 283 503 q 353 803 283 725 q 532 882 422 882 m 217 926 q 281 991 217 926 q 525 1056 344 1056 q 833 926 706 1056 q 961 614 961 796 q 833 302 961 432 q 525 172 706 172 q 217 302 344 172 q 89 614 89 432 q 217 926 89 796 m 275 353 q 524 246 378 246 q 773 353 669 246 q 876 614 876 461 q 773 874 876 767 q 523 982 669 982 q 274 874 376 982 q 172 615 172 767 q 275 353 172 463 z "},"":{"ha":569,"x_min":65,"x_max":503,"o":"m 442 758 q 450 677 442 728 q 483 619 458 626 l 493 617 q 503 610 503 615 q 485 563 503 581 q 439 544 468 544 q 374 656 385 544 q 314 576 356 608 q 225 544 272 544 q 108 609 151 544 q 65 761 65 674 q 122 917 65 849 q 261 986 178 986 q 367 942 322 986 q 413 986 374 986 q 458 907 458 986 q 442 758 458 894 m 369 764 l 365 865 q 269 910 324 910 q 167 844 204 910 q 145 752 144 807 q 169 658 146 697 q 233 618 193 618 q 311 661 272 618 q 369 764 350 704 z "},"":{"ha":704,"x_min":61,"x_max":618,"o":"m 246 694 q 254 702 246 694 q 278 710 263 710 q 300 706 293 710 q 328 669 328 694 q 316 633 328 644 q 271 596 304 621 q 231 564 238 571 q 164 485 164 503 q 231 406 164 467 q 271 374 238 399 q 316 337 304 349 q 328 306 328 325 q 315 274 328 288 q 287 260 301 260 q 257 268 272 260 l 235 285 q 172 353 190 335 q 92 428 154 371 q 61 481 61 458 q 72 519 61 504 q 119 567 83 535 l 171 615 q 205 651 181 624 q 246 694 229 678 m 568 708 q 618 663 618 708 q 606 633 618 644 q 561 596 594 621 q 521 564 528 571 q 454 485 454 503 q 521 406 454 467 q 561 374 528 399 q 606 337 594 349 q 618 306 618 325 q 606 274 618 288 q 577 260 592 260 q 547 268 563 260 l 525 285 q 463 353 481 335 q 382 428 444 371 q 351 481 351 458 q 363 519 351 504 q 410 567 374 535 l 461 615 q 497 653 472 626 q 537 694 521 679 q 568 708 553 708 z "},"":{"ha":881,"x_min":108,"x_max":772,"o":"m 772 349 l 769 265 l 772 182 q 747 133 772 147 q 724 125 736 125 l 700 133 q 675 182 675 147 l 679 265 l 679 318 q 439 321 535 321 l 165 317 q 117 339 131 317 q 108 363 108 351 q 115 386 108 374 q 165 408 129 408 l 439 404 l 713 408 q 772 349 772 408 z "},"":{"ha":594,"x_min":92,"x_max":503,"o":"m 149 408 l 297 404 l 446 408 q 453 408 450 408 q 492 392 482 408 q 503 363 503 375 q 492 333 503 350 q 453 317 482 317 q 446 317 450 317 l 297 321 l 149 317 q 142 317 144 317 q 102 333 113 317 q 92 363 92 350 q 102 392 92 375 q 142 408 113 408 q 149 408 144 408 z "},"":{"ha":1050,"x_min":89,"x_max":961,"o":"m 217 926 q 281 991 217 926 q 525 1056 344 1056 q 833 926 706 1056 q 961 614 961 796 q 833 302 961 432 q 525 172 706 172 q 217 302 344 172 q 89 614 89 432 q 217 926 89 796 m 275 353 q 524 246 378 246 q 773 353 669 246 q 876 614 876 461 q 773 874 876 767 q 523 982 669 982 q 274 874 376 982 q 172 615 172 767 q 275 353 172 463 m 336 418 l 342 638 l 335 828 q 506 893 335 893 q 656 845 601 893 q 710 731 710 797 q 597 578 710 631 q 629 523 614 551 q 663 472 644 494 q 721 438 685 438 q 731 431 731 438 q 694 372 731 388 q 665 367 682 367 q 596 426 633 367 l 560 490 q 519 560 546 517 q 469 556 494 556 q 418 560 444 556 q 422 428 422 460 q 378 365 422 365 q 336 418 336 365 m 418 806 l 415 732 q 414 643 414 694 q 474 656 440 656 q 550 640 508 656 q 603 667 578 640 q 628 729 628 694 q 600 791 628 764 q 515 818 572 818 q 418 806 458 818 z "},"":{"ha":606,"x_min":69,"x_max":536,"o":"m 126 976 l 303 972 l 479 976 q 486 976 483 976 q 526 960 515 976 q 536 931 536 943 q 526 901 536 918 q 486 885 515 885 q 479 885 483 885 l 303 889 l 126 885 q 119 885 122 885 q 80 901 90 885 q 69 931 69 918 q 80 960 69 943 q 119 976 90 976 q 126 976 122 976 z "},"":{"ha":464,"x_min":68,"x_max":396,"o":"m 113 935 q 232 993 158 993 q 351 935 306 993 q 396 790 396 876 q 351 646 396 704 q 232 588 306 588 q 113 646 158 588 q 68 790 68 706 q 113 935 68 875 m 173 700 q 184 682 173 700 q 233 664 194 664 q 292 699 271 664 q 313 789 313 733 q 292 881 313 844 q 233 917 271 917 q 173 881 194 917 q 151 790 151 844 q 173 700 151 736 z "},"":{"ha":792,"x_min":90,"x_max":699,"o":"m 396 83 l 642 88 q 649 88 646 88 q 688 71 678 88 q 699 42 699 54 q 688 13 699 29 q 649 -4 678 -4 q 642 -4 646 -4 l 396 0 l 150 -4 q 143 -4 146 -4 q 103 13 114 -4 q 93 42 93 29 q 103 71 93 54 q 143 88 114 88 q 150 88 146 88 l 396 83 m 439 494 l 642 499 q 649 499 646 499 q 688 482 678 499 q 699 453 699 465 q 688 424 699 440 q 649 407 678 407 q 609 407 646 407 q 439 411 572 407 l 444 235 q 431 193 444 208 q 396 178 418 178 q 350 235 350 178 q 356 411 350 257 q 169 407 214 407 q 108 420 125 407 q 92 447 92 433 q 97 469 92 460 q 150 499 113 499 l 356 494 q 350 651 350 628 q 396 708 350 708 q 431 694 418 708 q 444 653 444 679 q 439 494 444 628 z "},"":{"ha":519,"x_min":68,"x_max":453,"o":"m 181 546 l 251 546 l 394 553 q 453 508 453 553 q 394 464 453 464 l 253 469 q 124 464 210 468 q 85 478 101 464 q 68 521 68 492 q 108 597 68 550 q 326 911 326 840 q 308 960 329 940 q 253 981 286 981 q 181 951 213 981 q 128 918 150 921 q 96 928 106 915 q 86 958 86 942 q 135 1026 86 989 q 256 1063 183 1063 q 372 1021 328 1063 q 417 929 417 979 q 385 819 417 879 q 356 769 372 789 q 290 683 314 719 l 233 614 q 181 546 206 581 z "},"":{"ha":514,"x_min":67,"x_max":450,"o":"m 132 1063 l 244 1060 l 346 1063 q 421 1011 421 1063 q 410 981 421 996 q 354 920 399 967 q 288 846 310 874 q 407 778 364 829 q 450 656 450 728 q 394 524 450 583 q 244 464 339 464 q 122 506 178 464 q 67 583 67 547 q 100 618 67 618 q 135 600 117 618 q 248 547 190 547 q 332 579 306 547 q 363 661 363 610 q 327 747 363 713 q 240 785 292 782 q 164 739 197 739 q 114 786 114 739 q 135 825 114 807 q 197 851 157 843 q 313 978 278 938 q 231 982 250 982 l 132 978 q 78 1018 78 978 q 92 1050 78 1038 q 132 1063 107 1063 z "},"":{"ha":396,"x_min":97,"x_max":299,"o":"m 299 1003 q 235 883 299 943 q 134 822 171 822 q 97 853 97 822 q 113 887 97 871 q 151 932 128 903 q 178 984 163 949 q 209 1038 193 1019 q 249 1056 225 1056 q 285 1040 272 1056 q 299 1003 299 1025 z "},"":{"ha":849,"x_min":115,"x_max":788,"o":"m 517 42 q 376 -14 457 -14 q 226 56 296 -14 l 236 -249 q 236 -258 236 -254 q 217 -307 236 -294 q 182 -319 197 -319 l 153 -311 q 128 -258 128 -294 q 128 -249 128 -254 l 136 236 q 115 603 115 522 q 179 707 115 707 q 235 622 235 707 q 231 535 235 594 q 228 263 228 476 q 269 128 228 179 q 381 78 311 78 q 516 156 450 78 q 610 336 582 235 l 606 638 q 658 708 606 708 q 722 613 722 708 q 694 336 722 518 q 709 167 694 235 q 746 92 724 100 q 766 86 754 88 q 783 82 778 85 q 788 71 788 79 q 765 10 788 33 q 707 -14 742 -14 q 619 164 619 -14 q 517 42 579 96 z "},"":{"ha":872,"x_min":61,"x_max":732,"o":"m 731 985 l 724 368 q 728 -57 724 118 q 732 -256 732 -232 q 717 -300 732 -281 q 678 -319 703 -319 q 638 -301 653 -319 q 624 -242 624 -282 q 628 -28 624 -203 q 632 368 632 147 l 625 965 q 543 968 583 968 l 461 965 q 454 355 454 532 q 458 -26 454 178 q 463 -249 463 -229 q 408 -319 463 -319 q 354 -249 354 -319 q 358 -28 354 -203 q 363 368 363 147 l 363 456 q 145 542 229 463 q 61 740 61 622 q 152 969 61 886 q 403 1056 243 1053 l 543 1051 l 664 1056 q 713 1036 694 1056 q 731 985 731 1017 z "},"":{"ha":308,"x_min":89,"x_max":219,"o":"m 109 411 q 119 424 109 411 q 158 438 129 438 q 203 417 188 438 q 219 362 219 396 q 199 301 219 328 q 150 275 178 275 q 106 297 122 275 q 89 351 89 318 q 109 411 89 385 z "},"":{"ha":460,"x_min":60,"x_max":376,"o":"m 231 -14 q 303 -95 231 -56 q 376 -190 376 -135 q 328 -282 376 -244 q 213 -319 279 -319 q 103 -289 147 -319 q 60 -222 60 -258 q 67 -204 60 -212 q 85 -196 74 -196 q 134 -214 97 -196 q 201 -232 171 -232 q 253 -218 231 -232 q 276 -189 276 -204 q 254 -156 276 -174 q 213 -131 253 -156 q 158 -86 174 -107 q 142 -36 142 -65 l 142 17 l 231 17 l 231 -14 z "},"":{"ha":413,"x_min":36,"x_max":318,"o":"m 318 992 l 314 764 l 318 525 q 294 476 318 490 q 272 469 283 469 q 250 476 261 469 q 228 525 228 490 q 232 764 229 604 l 232 931 l 189 882 l 157 842 q 79 776 107 776 q 36 818 36 776 q 82 888 36 842 q 171 983 128 931 q 230 1049 214 1035 q 268 1063 246 1063 q 318 992 318 1063 z "},"":{"ha":497,"x_min":67,"x_max":431,"o":"m 118 929 q 144 961 118 929 q 249 993 169 993 q 379 929 328 993 q 431 768 431 865 q 380 608 431 671 q 249 546 329 546 q 117 608 168 546 q 67 768 67 671 q 118 929 67 865 m 176 661 q 190 642 176 661 q 249 622 203 622 q 321 662 294 622 q 347 768 347 701 q 321 876 347 835 q 249 917 294 917 q 176 876 203 917 q 150 767 150 835 q 176 661 150 700 z "},"":{"ha":703,"x_min":86,"x_max":643,"o":"m 425 261 q 376 306 376 261 q 388 337 376 325 q 432 374 399 349 q 474 406 465 399 q 540 485 540 467 q 474 564 540 503 q 432 596 465 571 q 388 633 399 621 q 376 663 376 644 q 390 696 376 682 q 417 710 403 710 q 446 700 432 710 q 465 688 460 694 q 504 645 469 682 q 571 579 539 608 q 611 542 603 550 q 643 489 643 513 q 632 450 643 465 q 585 401 621 435 l 533 354 q 498 317 522 343 q 457 276 474 290 q 425 261 440 261 m 168 276 q 160 269 168 276 q 136 261 151 261 q 114 264 121 261 q 86 301 86 276 q 97 337 86 325 q 142 374 108 349 q 183 406 175 399 q 250 485 250 467 q 183 564 250 503 q 142 596 175 571 q 97 633 108 621 q 86 663 86 644 q 99 696 86 682 q 127 710 113 710 q 156 700 142 710 q 174 688 169 694 q 214 645 179 682 q 281 579 249 608 q 321 542 313 550 q 353 489 353 513 q 342 450 353 465 q 294 401 331 435 l 243 354 q 209 318 233 344 q 168 276 185 292 z "},"":{"ha":1172,"x_min":57,"x_max":1110,"o":"m 339 992 l 335 764 l 339 525 q 317 476 339 490 q 294 469 306 469 q 272 476 283 469 q 249 525 249 490 q 253 764 250 604 l 253 931 l 210 882 l 178 842 q 100 776 128 776 q 57 818 57 776 q 103 888 57 842 q 192 983 149 931 q 251 1049 235 1035 q 289 1063 267 1063 q 339 992 339 1063 m 692 760 q 561 410 624 597 q 447 67 499 222 q 413 -5 428 10 q 383 -19 397 -19 q 333 26 333 -19 q 354 108 333 51 l 425 285 q 527 560 475 410 q 589 742 579 710 l 681 1006 q 743 1064 700 1064 q 773 1053 763 1060 q 783 1015 783 1046 q 763 936 783 985 l 692 760 m 1019 253 l 1072 256 q 1097 244 1085 256 q 1108 213 1108 232 q 1088 186 1108 194 q 1050 178 1067 178 q 1019 181 1033 178 l 1024 46 q 981 -14 1024 -14 q 939 46 939 -14 l 943 183 l 889 185 l 707 181 q 661 224 661 181 q 689 285 661 244 q 781 408 717 325 l 885 543 q 960 600 929 600 q 1007 578 990 600 q 1024 521 1024 556 l 1019 253 m 760 253 l 942 253 q 943 386 943 289 l 942 494 q 760 253 914 464 z "},"":{"ha":1186,"x_min":57,"x_max":1115,"o":"m 339 992 l 335 764 l 339 525 q 317 476 339 490 q 294 469 306 469 q 272 476 283 469 q 249 525 249 490 q 253 764 250 604 l 253 931 l 210 882 l 178 842 q 100 776 128 776 q 57 818 57 776 q 103 888 57 842 q 192 983 149 931 q 251 1049 235 1035 q 289 1063 267 1063 q 339 992 339 1063 m 843 78 l 914 78 l 1057 85 q 1115 40 1115 85 q 1057 -4 1115 -4 l 915 1 l 786 -4 q 747 10 764 -4 q 731 44 731 24 q 771 128 731 85 q 989 443 989 372 q 970 492 992 472 q 915 513 949 513 q 844 483 875 513 q 790 450 813 453 q 758 460 768 447 q 749 490 749 474 q 797 558 749 521 q 917 594 844 594 q 1035 553 990 594 q 1079 461 1079 511 q 1047 351 1079 411 q 1018 301 1035 321 q 953 215 976 251 l 896 146 q 843 78 868 113 m 692 760 q 561 410 624 597 q 447 67 499 222 q 413 -5 428 10 q 383 -19 397 -19 q 333 26 333 -19 q 354 108 333 51 l 425 285 q 527 560 475 410 q 589 742 579 710 l 681 1006 q 743 1064 700 1064 q 773 1053 763 1060 q 783 1015 783 1046 q 763 936 783 985 l 692 760 z "},"":{"ha":1242,"x_min":75,"x_max":1182,"o":"m 764 760 q 633 410 696 597 q 519 67 571 222 q 485 -5 500 10 q 456 -19 469 -19 q 406 26 406 -19 q 426 108 406 51 l 497 285 q 599 560 547 410 q 661 742 651 710 l 753 1006 q 815 1064 772 1064 q 845 1053 835 1060 q 856 1015 856 1046 q 835 936 856 985 l 764 760 m 1092 253 l 1144 256 q 1169 244 1157 256 q 1181 213 1181 232 q 1160 186 1181 194 q 1122 178 1139 178 q 1092 181 1106 178 l 1096 46 q 1053 -14 1096 -14 q 1011 46 1011 -14 l 1015 183 l 961 185 l 779 181 q 733 224 733 181 q 761 285 733 244 q 853 408 789 325 l 957 543 q 1032 600 1001 600 q 1079 578 1063 600 q 1096 521 1096 556 l 1092 253 m 832 253 l 1014 253 q 1015 386 1015 289 l 1014 494 q 832 253 986 464 m 140 1063 l 253 1060 l 354 1063 q 429 1011 429 1063 q 418 981 429 996 q 363 920 407 967 q 296 846 318 874 q 415 778 372 829 q 458 656 458 728 q 403 524 458 583 q 253 464 347 464 q 131 506 186 464 q 75 583 75 547 q 108 618 75 618 q 143 600 125 618 q 256 547 199 547 q 340 579 314 547 q 371 661 371 610 q 335 747 371 713 q 249 785 300 782 q 172 739 206 739 q 122 786 122 739 q 144 825 122 807 q 206 851 165 843 q 321 978 286 938 q 239 982 258 982 l 140 978 q 86 1018 86 978 q 101 1050 86 1038 q 140 1063 115 1063 z "},"":{"ha":615,"x_min":65,"x_max":554,"o":"m 410 376 q 324 178 410 272 q 251 103 300 151 q 165 -62 165 13 q 213 -184 165 -137 q 311 -231 260 -231 q 444 -178 403 -231 q 507 -125 485 -125 q 542 -137 529 -125 q 554 -169 554 -150 q 482 -268 554 -218 q 324 -319 413 -319 q 137 -248 208 -319 q 65 -68 65 -176 q 151 131 65 40 q 224 206 175 157 q 310 373 310 292 q 358 454 310 454 q 410 376 410 454 m 316 731 q 326 744 316 731 q 364 757 336 757 q 408 735 392 757 q 424 681 424 714 q 403 623 424 649 q 354 597 382 597 q 311 617 326 597 q 296 671 296 638 q 316 731 296 704 z "},"":{"ha":892,"x_min":54,"x_max":839,"o":"m 708 442 l 769 443 q 819 428 800 443 q 839 389 839 413 q 742 336 839 336 l 774 236 q 813 125 788 196 q 839 35 839 54 q 826 1 839 15 q 792 -14 813 -14 q 731 35 751 -14 q 683 180 710 92 q 633 342 657 268 q 401 346 467 346 q 246 342 336 346 q 154 38 161 53 q 100 -14 136 -14 q 67 -1 79 -14 q 54 33 54 13 q 92 176 54 64 q 146 339 131 289 l 121 339 q 54 390 54 339 q 121 442 54 442 q 178 440 161 442 l 360 972 q 440 1056 389 1056 q 494 1035 475 1056 q 526 981 513 1015 q 597 772 540 946 q 708 442 654 597 m 314 553 l 276 438 q 443 433 361 433 q 603 438 525 433 q 442 897 460 897 q 314 553 425 897 m 519 1144 q 482 1115 519 1115 q 381 1175 444 1115 q 318 1294 318 1236 q 317 1303 317 1299 q 347 1342 317 1329 q 375 1347 358 1347 q 439 1272 407 1347 q 490 1194 460 1228 q 519 1144 519 1161 z "},"":{"ha":1135,"x_min":44,"x_max":1100,"o":"m 801 469 q 652 897 669 897 q 535 581 635 897 l 501 475 q 637 485 563 485 q 801 469 711 485 m 369 360 q 203 260 272 328 q 135 132 135 192 q 149 87 135 103 q 188 71 164 71 q 369 360 264 71 m 1100 72 q 1078 5 1100 31 q 1022 -21 1056 -21 q 929 69 961 -21 q 829 378 867 256 q 637 396 724 396 q 478 382 550 396 q 344 88 388 156 q 183 -21 275 -21 q 82 22 119 -21 q 44 129 44 65 q 142 322 44 225 q 394 456 239 419 q 509 790 456 625 q 569 972 563 956 q 650 1056 599 1056 q 735 983 707 1056 q 774 868 742 964 l 911 451 q 1004 408 968 435 q 1040 363 1040 382 q 1006 331 1040 331 q 939 350 993 331 q 1017 129 999 157 q 1046 96 1035 101 q 1071 88 1057 90 q 1100 72 1100 82 m 788 1294 q 724 1174 788 1235 q 623 1114 660 1114 q 586 1144 586 1114 q 601 1178 586 1163 q 640 1224 617 1194 q 667 1276 651 1240 q 698 1329 682 1311 q 738 1347 714 1347 q 774 1332 761 1347 q 788 1294 788 1317 z "},"":{"ha":1135,"x_min":44,"x_max":1100,"o":"m 801 469 q 652 897 669 897 q 535 581 635 897 l 501 475 q 637 485 563 485 q 801 469 711 485 m 369 360 q 203 260 272 328 q 135 132 135 192 q 149 87 135 103 q 188 71 164 71 q 369 360 264 71 m 1100 72 q 1078 5 1100 31 q 1022 -21 1056 -21 q 929 69 961 -21 q 829 378 867 256 q 637 396 724 396 q 478 382 550 396 q 344 88 388 156 q 183 -21 275 -21 q 82 22 119 -21 q 44 129 44 65 q 142 322 44 225 q 394 456 239 419 q 509 790 456 625 q 569 972 563 956 q 650 1056 599 1056 q 735 983 707 1056 q 774 868 742 964 l 911 451 q 1004 408 968 435 q 1040 363 1040 382 q 1006 331 1040 331 q 939 350 993 331 q 1017 129 999 157 q 1046 96 1035 101 q 1071 88 1057 90 q 1100 72 1100 82 m 728 1199 q 651 1265 671 1265 q 574 1199 631 1265 q 545 1163 569 1196 q 498 1129 521 1129 q 461 1140 475 1129 q 447 1172 447 1156 q 460 1201 447 1189 q 490 1229 472 1214 q 568 1311 542 1272 q 608 1356 593 1343 q 650 1368 625 1368 q 691 1356 675 1368 q 734 1310 707 1344 q 775 1263 761 1276 q 808 1233 789 1249 q 847 1192 842 1206 q 853 1175 853 1185 q 849 1153 853 1165 q 810 1129 839 1129 q 800 1129 807 1129 q 778 1142 793 1129 q 747 1176 763 1154 q 728 1199 731 1197 z "},"":{"ha":1135,"x_min":44,"x_max":1100,"o":"m 801 469 q 652 897 669 897 q 535 581 635 897 l 501 475 q 637 485 563 485 q 801 469 711 485 m 369 360 q 203 260 272 328 q 135 132 135 192 q 149 87 135 103 q 188 71 164 71 q 369 360 264 71 m 1100 72 q 1078 5 1100 31 q 1022 -21 1056 -21 q 929 69 961 -21 q 829 378 867 256 q 637 396 724 396 q 478 382 550 396 q 344 88 388 156 q 183 -21 275 -21 q 82 22 119 -21 q 44 129 44 65 q 142 322 44 225 q 394 456 239 419 q 509 790 456 625 q 569 972 563 956 q 650 1056 599 1056 q 735 983 707 1056 q 774 868 742 964 l 911 451 q 1004 408 968 435 q 1040 363 1040 382 q 1006 331 1040 331 q 939 350 993 331 q 1017 129 999 157 q 1046 96 1035 101 q 1071 88 1057 90 q 1100 72 1100 82 m 910 1253 q 874 1170 910 1206 q 791 1135 839 1135 q 677 1173 743 1135 q 588 1211 611 1211 q 546 1199 564 1211 q 523 1180 528 1186 q 499 1147 518 1174 q 467 1126 481 1126 q 443 1131 453 1126 q 414 1185 414 1144 q 458 1262 414 1225 q 561 1299 503 1299 q 690 1260 619 1299 q 792 1221 761 1221 q 845 1256 822 1221 q 881 1292 868 1292 q 901 1280 893 1292 q 910 1253 910 1268 z "},"":{"ha":1135,"x_min":44,"x_max":1100,"o":"m 801 469 q 652 897 669 897 q 535 581 635 897 l 501 475 q 637 485 563 485 q 801 469 711 485 m 369 360 q 203 260 272 328 q 135 132 135 192 q 149 87 135 103 q 188 71 164 71 q 369 360 264 71 m 1100 72 q 1078 5 1100 31 q 1022 -21 1056 -21 q 929 69 961 -21 q 829 378 867 256 q 637 396 724 396 q 478 382 550 396 q 344 88 388 156 q 183 -21 275 -21 q 82 22 119 -21 q 44 129 44 65 q 142 322 44 225 q 394 456 239 419 q 509 790 456 625 q 569 972 563 956 q 650 1056 599 1056 q 735 983 707 1056 q 774 868 742 964 l 911 451 q 1004 408 968 435 q 1040 363 1040 382 q 1006 331 1040 331 q 939 350 993 331 q 1017 129 999 157 q 1046 96 1035 101 q 1071 88 1057 90 q 1100 72 1100 82 m 546 1325 q 603 1258 603 1325 q 583 1201 603 1228 q 535 1174 563 1174 q 476 1244 476 1174 q 497 1301 476 1278 q 546 1325 517 1325 m 768 1325 q 825 1258 825 1325 q 805 1201 825 1228 q 757 1174 785 1174 q 699 1244 699 1174 q 719 1301 699 1278 q 768 1325 739 1325 z "},"":{"ha":1135,"x_min":44,"x_max":1100,"o":"m 801 469 q 652 897 669 897 q 535 581 635 897 l 501 475 q 637 485 563 485 q 801 469 711 485 m 369 360 q 203 260 272 328 q 135 132 135 192 q 149 87 135 103 q 188 71 164 71 q 369 360 264 71 m 1100 72 q 1078 5 1100 31 q 1022 -21 1056 -21 q 929 69 961 -21 q 829 378 867 256 q 637 396 724 396 q 478 382 550 396 q 344 88 388 156 q 183 -21 275 -21 q 82 22 119 -21 q 44 129 44 65 q 142 322 44 225 q 394 456 239 419 q 509 790 456 625 q 569 972 563 956 q 650 1056 599 1056 q 735 983 707 1056 q 774 868 742 964 l 911 451 q 1004 408 968 435 q 1040 363 1040 382 q 1006 331 1040 331 q 939 350 993 331 q 1017 129 999 157 q 1046 96 1035 101 q 1071 88 1057 90 q 1100 72 1100 82 m 558 1331 q 576 1350 558 1331 q 649 1369 594 1369 q 739 1331 703 1369 q 775 1238 775 1293 q 740 1144 775 1182 q 649 1107 706 1107 q 557 1143 593 1107 q 522 1237 522 1181 q 558 1331 522 1293 m 606 1192 q 615 1182 606 1192 q 649 1172 624 1172 q 692 1192 674 1172 q 710 1238 710 1213 q 691 1284 710 1264 q 649 1304 672 1304 q 606 1284 625 1304 q 588 1238 588 1264 q 606 1192 588 1213 z "},"":{"ha":1382,"x_min":35,"x_max":1367,"o":"m 1086 0 l 879 -7 q 803 53 813 -7 q 756 347 785 156 q 608 360 681 360 q 468 346 535 360 q 335 51 379 121 q 174 -57 265 -57 q 71 -12 107 -57 q 35 93 35 32 q 131 287 35 189 q 385 419 228 385 q 572 965 400 460 q 654 1049 601 1049 l 949 1042 l 1143 1049 q 1213 996 1213 1049 q 1143 943 1213 943 l 949 950 q 754 944 801 950 q 810 611 782 769 q 911 608 871 608 q 1147 615 911 608 q 1198 601 1179 615 q 1217 561 1217 586 q 1147 510 1217 510 l 911 517 q 828 514 878 517 q 908 97 899 132 q 1086 92 997 92 l 1297 99 q 1367 46 1367 99 q 1297 -7 1367 -7 l 1086 0 m 626 447 q 746 435 686 447 q 657 897 693 768 q 528 553 640 897 q 492 439 492 442 l 626 447 m 360 324 q 194 224 263 292 q 125 96 125 156 q 140 51 125 67 q 178 35 154 35 q 360 324 254 35 z "},"":{"ha":967,"x_min":79,"x_max":889,"o":"m 538 -21 q 614 -97 544 -60 q 683 -190 683 -135 q 635 -282 683 -244 q 520 -319 586 -319 q 410 -289 454 -319 q 367 -222 367 -258 q 374 -204 367 -212 q 392 -196 381 -196 q 441 -214 404 -196 q 508 -232 478 -232 q 560 -218 538 -232 q 583 -189 583 -204 q 562 -158 583 -174 q 515 -126 540 -142 q 449 -22 449 -93 q 449 -11 449 -17 q 211 136 308 18 q 79 523 79 296 q 208 906 79 750 q 532 1063 338 1063 q 785 976 686 1063 q 883 775 883 890 q 826 626 883 685 q 692 567 769 567 q 561 617 614 567 q 508 730 508 669 q 535 831 508 790 q 599 871 561 871 q 633 859 619 871 q 647 830 647 847 q 628 785 647 813 q 608 728 608 758 q 632 678 608 699 q 694 658 656 658 q 758 688 732 658 q 783 768 783 718 q 717 903 783 842 q 532 965 653 965 q 288 834 383 965 q 192 525 192 703 q 292 212 192 347 q 544 76 392 76 q 672 94 613 76 q 761 138 731 113 q 851 199 835 199 q 878 188 867 199 q 889 163 889 178 q 785 44 889 108 q 538 -21 682 -21 z "},"":{"ha":876,"x_min":74,"x_max":843,"o":"m 324 657 q 513 706 425 706 q 636 671 600 706 q 678 594 678 640 q 654 531 678 558 q 494 475 603 475 q 396 495 450 475 q 303 544 342 515 q 185 326 185 464 q 267 155 185 233 q 490 76 349 76 q 707 136 631 76 q 804 196 783 196 q 843 160 843 196 q 799 88 843 129 q 670 13 754 46 q 497 -21 586 -21 q 186 82 301 -21 q 74 314 74 186 q 236 607 74 500 q 160 803 160 685 q 253 992 160 921 q 465 1063 347 1063 q 672 1019 583 1063 q 761 922 761 975 q 733 878 761 889 q 709 876 725 876 q 661 897 693 876 q 480 965 571 965 q 329 922 389 965 q 263 794 263 881 q 324 657 263 707 m 394 601 l 379 594 q 501 558 428 558 q 575 593 575 558 q 507 622 575 622 q 394 601 439 622 m 525 1146 q 488 1117 525 1117 q 386 1176 450 1117 q 324 1296 324 1238 q 322 1304 322 1300 q 353 1343 322 1331 q 381 1349 364 1349 q 444 1274 413 1349 q 494 1197 464 1231 q 525 1146 525 1163 z "},"":{"ha":876,"x_min":74,"x_max":843,"o":"m 324 657 q 513 706 425 706 q 636 671 600 706 q 678 594 678 640 q 654 531 678 558 q 494 475 603 475 q 396 495 450 475 q 303 544 342 515 q 185 326 185 464 q 267 155 185 233 q 490 76 349 76 q 707 136 631 76 q 804 196 783 196 q 843 160 843 196 q 799 88 843 129 q 670 13 754 46 q 497 -21 586 -21 q 186 82 301 -21 q 74 314 74 186 q 236 607 74 500 q 160 803 160 685 q 253 992 160 921 q 465 1063 347 1063 q 672 1019 583 1063 q 761 922 761 975 q 733 878 761 889 q 709 876 725 876 q 661 897 693 876 q 480 965 571 965 q 329 922 389 965 q 263 794 263 881 q 324 657 263 707 m 394 601 l 379 594 q 501 558 428 558 q 575 593 575 558 q 507 622 575 622 q 394 601 439 622 m 621 1294 q 557 1174 621 1235 q 456 1114 493 1114 q 419 1144 419 1114 q 435 1178 419 1163 q 474 1224 450 1194 q 500 1276 485 1240 q 531 1329 515 1311 q 571 1347 547 1347 q 608 1332 594 1347 q 621 1294 621 1317 z "},"":{"ha":876,"x_min":74,"x_max":843,"o":"m 324 657 q 513 706 425 706 q 636 671 600 706 q 678 594 678 640 q 654 531 678 558 q 494 475 603 475 q 396 495 450 475 q 303 544 342 515 q 185 326 185 464 q 267 155 185 233 q 490 76 349 76 q 707 136 631 76 q 804 196 783 196 q 843 160 843 196 q 799 88 843 129 q 670 13 754 46 q 497 -21 586 -21 q 186 82 301 -21 q 74 314 74 186 q 236 607 74 500 q 160 803 160 685 q 253 992 160 921 q 465 1063 347 1063 q 672 1019 583 1063 q 761 922 761 975 q 733 878 761 889 q 709 876 725 876 q 661 897 693 876 q 480 965 571 965 q 329 922 389 965 q 263 794 263 881 q 324 657 263 707 m 394 601 l 379 594 q 501 558 428 558 q 575 593 575 558 q 507 622 575 622 q 394 601 439 622 m 561 1199 q 483 1265 504 1265 q 407 1199 463 1265 q 378 1163 403 1196 q 331 1129 354 1129 q 294 1140 308 1129 q 282 1168 282 1153 q 294 1202 282 1190 q 324 1229 306 1214 q 401 1311 375 1272 q 442 1356 426 1343 q 483 1368 458 1368 q 524 1356 508 1368 q 567 1310 540 1344 q 608 1263 594 1276 q 642 1232 622 1249 q 681 1192 675 1206 q 686 1174 686 1183 q 682 1153 686 1164 q 643 1129 672 1129 q 633 1129 640 1129 q 611 1142 626 1129 q 580 1176 596 1154 q 561 1199 564 1197 z "},"":{"ha":876,"x_min":74,"x_max":843,"o":"m 324 657 q 513 706 425 706 q 636 671 600 706 q 678 594 678 640 q 654 531 678 558 q 494 475 603 475 q 396 495 450 475 q 303 544 342 515 q 185 326 185 464 q 267 155 185 233 q 490 76 349 76 q 707 136 631 76 q 804 196 783 196 q 843 160 843 196 q 799 88 843 129 q 670 13 754 46 q 497 -21 586 -21 q 186 82 301 -21 q 74 314 74 186 q 236 607 74 500 q 160 803 160 685 q 253 992 160 921 q 465 1063 347 1063 q 672 1019 583 1063 q 761 922 761 975 q 733 878 761 889 q 709 876 725 876 q 661 897 693 876 q 480 965 571 965 q 329 922 389 965 q 263 794 263 881 q 324 657 263 707 m 394 601 l 379 594 q 501 558 428 558 q 575 593 575 558 q 507 622 575 622 q 394 601 439 622 m 386 1324 q 443 1257 443 1324 q 423 1199 443 1226 q 375 1172 403 1172 q 317 1243 317 1172 q 337 1300 317 1276 q 386 1324 357 1324 m 608 1324 q 665 1257 665 1324 q 645 1199 665 1226 q 597 1172 625 1172 q 539 1243 539 1172 q 559 1300 539 1276 q 608 1324 579 1324 z "},"":{"ha":831,"x_min":51,"x_max":775,"o":"m 676 617 l 675 382 q 577 78 675 176 q 340 -21 479 -21 q 125 60 200 -21 q 51 242 51 142 q 115 406 51 343 q 263 469 179 469 q 394 417 346 469 q 443 288 443 364 q 392 176 443 211 q 364 167 375 167 q 346 188 343 167 q 350 203 346 189 q 358 278 358 242 q 329 345 358 314 q 256 376 300 376 q 181 341 211 376 q 151 245 151 306 q 196 129 151 185 q 329 76 242 76 q 510 153 444 76 q 575 369 575 231 l 576 617 q 574 932 576 810 q 436 919 492 919 q 136 1007 136 919 q 189 1056 136 1056 q 280 1038 196 1056 q 436 1021 364 1021 q 608 1038 508 1021 q 717 1056 707 1056 q 775 1009 775 1056 q 679 946 775 963 q 676 617 676 815 m 515 1144 q 478 1115 515 1115 q 376 1175 440 1115 q 314 1294 314 1236 q 313 1303 313 1299 q 343 1342 313 1329 q 371 1347 354 1347 q 435 1272 403 1347 q 485 1195 454 1229 q 515 1144 515 1161 z "},"":{"ha":831,"x_min":51,"x_max":775,"o":"m 676 617 l 675 382 q 577 78 675 176 q 340 -21 479 -21 q 125 60 200 -21 q 51 242 51 142 q 115 406 51 343 q 263 469 179 469 q 394 417 346 469 q 443 288 443 364 q 392 176 443 211 q 364 167 375 167 q 346 188 343 167 q 350 203 346 189 q 358 278 358 242 q 329 345 358 314 q 256 376 300 376 q 181 341 211 376 q 151 245 151 306 q 196 129 151 185 q 329 76 242 76 q 510 153 444 76 q 575 369 575 231 l 576 617 q 574 932 576 810 q 436 919 492 919 q 136 1007 136 919 q 189 1056 136 1056 q 280 1038 196 1056 q 436 1021 364 1021 q 608 1038 508 1021 q 717 1056 707 1056 q 775 1009 775 1056 q 679 946 775 963 q 676 617 676 815 m 593 1294 q 529 1174 593 1235 q 429 1114 465 1114 q 392 1144 393 1114 q 407 1178 392 1163 q 446 1224 422 1194 q 472 1276 457 1240 q 503 1329 488 1311 q 543 1347 519 1347 q 580 1332 567 1347 q 593 1294 593 1317 z "},"":{"ha":831,"x_min":51,"x_max":775,"o":"m 676 617 l 675 382 q 577 78 675 176 q 340 -21 479 -21 q 125 60 200 -21 q 51 242 51 142 q 115 406 51 343 q 263 469 179 469 q 394 417 346 469 q 443 288 443 364 q 392 176 443 211 q 364 167 375 167 q 346 188 343 167 q 350 203 346 189 q 358 278 358 242 q 329 345 358 314 q 256 376 300 376 q 181 341 211 376 q 151 245 151 306 q 196 129 151 185 q 329 76 242 76 q 510 153 444 76 q 575 369 575 231 l 576 617 q 574 932 576 810 q 436 919 492 919 q 136 1007 136 919 q 189 1056 136 1056 q 280 1038 196 1056 q 436 1021 364 1021 q 608 1038 508 1021 q 717 1056 707 1056 q 775 1009 775 1056 q 679 946 775 963 q 676 617 676 815 m 519 1199 q 442 1265 463 1265 q 365 1199 421 1265 q 337 1163 361 1196 q 290 1129 313 1129 q 253 1140 267 1129 q 240 1168 240 1153 q 252 1202 240 1190 q 282 1229 264 1214 q 360 1311 333 1272 q 400 1356 385 1343 q 442 1368 417 1368 q 483 1356 467 1368 q 526 1310 499 1344 q 567 1263 553 1276 q 600 1232 581 1249 q 639 1192 633 1206 q 644 1174 644 1183 q 640 1153 644 1164 q 601 1129 631 1129 q 592 1129 599 1129 q 569 1142 585 1129 q 538 1176 554 1154 q 519 1199 522 1197 z "},"":{"ha":831,"x_min":51,"x_max":775,"o":"m 676 617 l 675 382 q 577 78 675 176 q 340 -21 479 -21 q 125 60 200 -21 q 51 242 51 142 q 115 406 51 343 q 263 469 179 469 q 394 417 346 469 q 443 288 443 364 q 392 176 443 211 q 364 167 375 167 q 346 188 343 167 q 350 203 346 189 q 358 278 358 242 q 329 345 358 314 q 256 376 300 376 q 181 341 211 376 q 151 245 151 306 q 196 129 151 185 q 329 76 242 76 q 510 153 444 76 q 575 369 575 231 l 576 617 q 574 932 576 810 q 436 919 492 919 q 136 1007 136 919 q 189 1056 136 1056 q 280 1038 196 1056 q 436 1021 364 1021 q 608 1038 508 1021 q 717 1056 707 1056 q 775 1009 775 1056 q 679 946 775 963 q 676 617 676 815 m 344 1324 q 401 1257 401 1324 q 381 1199 401 1226 q 333 1172 361 1172 q 275 1243 275 1172 q 295 1300 275 1276 q 344 1324 315 1324 m 567 1324 q 624 1257 624 1324 q 603 1199 624 1226 q 556 1172 583 1172 q 497 1243 497 1172 q 517 1300 497 1276 q 567 1324 538 1324 z "},"":{"ha":1011,"x_min":10,"x_max":933,"o":"m 186 472 l 58 469 q 25 483 40 469 q 10 516 10 496 q 25 549 10 536 q 70 561 42 561 q 186 557 99 561 l 179 908 q 113 961 113 908 q 206 1032 113 1008 q 412 1056 299 1056 q 629 1009 525 1056 q 800 883 733 963 q 933 510 933 724 q 804 144 933 297 q 638 23 740 67 q 408 -21 536 -21 q 193 8 281 -21 q 107 86 107 40 q 131 122 107 113 q 151 125 139 125 q 182 115 164 125 l 186 472 m 518 515 q 446 469 518 469 q 286 474 407 469 q 294 86 286 239 q 411 78 333 78 q 717 204 608 78 q 825 511 825 331 q 719 818 825 692 q 583 919 667 882 q 397 956 499 956 q 293 943 344 956 q 286 557 286 835 l 461 561 q 502 549 486 561 q 518 515 518 536 z "},"":{"ha":1219,"x_min":43,"x_max":1186,"o":"m 221 -11 q 91 48 139 -11 q 43 183 43 107 q 95 320 43 260 q 219 381 147 381 q 270 366 250 381 q 290 324 290 351 q 224 272 290 272 q 171 247 193 272 q 149 183 149 221 q 169 120 149 144 q 228 96 190 96 q 357 496 357 96 q 335 783 357 606 q 313 991 313 961 q 332 1039 313 1021 q 378 1057 351 1057 q 440 1008 417 1057 q 654 618 515 863 q 894 213 793 374 q 881 406 889 213 q 874 661 874 600 q 904 924 874 815 q 963 1022 922 986 q 1058 1057 1004 1057 q 1149 1028 1111 1057 q 1186 963 1186 1000 q 1154 925 1186 925 q 1114 938 1144 925 q 1060 950 1083 950 q 972 549 972 950 q 988 260 972 454 q 1003 43 1003 65 q 984 3 1003 21 q 940 -15 965 -15 q 875 33 903 -15 q 717 310 806 157 l 540 625 q 435 811 464 767 q 454 463 454 628 q 221 -11 454 -11 m 951 1253 q 916 1170 951 1206 q 833 1135 881 1135 q 719 1173 785 1135 q 629 1211 653 1211 q 588 1199 606 1211 q 565 1180 569 1186 q 540 1147 560 1174 q 508 1126 522 1126 q 485 1131 494 1126 q 456 1185 456 1144 q 500 1262 456 1225 q 603 1299 544 1299 q 732 1260 661 1299 q 833 1221 803 1221 q 887 1256 864 1221 q 922 1292 910 1292 q 943 1280 935 1292 q 951 1253 951 1268 z "},"":{"ha":1126,"x_min":76,"x_max":1046,"o":"m 642 965 q 475 897 547 965 q 368 728 403 828 q 333 557 333 628 q 338 443 333 486 q 345 376 342 400 q 349 347 349 351 q 317 313 349 313 q 265 384 289 313 q 242 533 242 456 q 351 904 242 746 q 639 1063 461 1063 q 931 910 817 1063 q 1046 528 1046 757 q 915 140 1046 300 q 573 -21 783 -21 q 219 131 363 -21 q 76 519 76 282 q 97 677 76 617 q 157 738 117 738 q 189 724 176 738 q 201 697 201 711 q 192 624 201 683 q 183 519 183 565 q 299 196 183 315 q 569 76 414 76 q 769 139 682 76 q 897 299 856 201 q 939 506 939 397 q 939 519 939 513 q 858 834 939 703 q 642 965 776 965 m 682 1144 q 644 1115 682 1115 q 543 1175 607 1115 q 481 1294 481 1236 q 479 1303 479 1299 q 510 1342 479 1329 q 538 1347 521 1347 q 601 1272 569 1347 q 651 1195 621 1229 q 682 1144 682 1161 z "},"":{"ha":1126,"x_min":76,"x_max":1046,"o":"m 642 965 q 475 897 547 965 q 368 728 403 828 q 333 557 333 628 q 338 443 333 486 q 345 376 342 400 q 349 347 349 351 q 317 313 349 313 q 265 384 289 313 q 242 533 242 456 q 351 904 242 746 q 639 1063 461 1063 q 931 910 817 1063 q 1046 528 1046 757 q 915 140 1046 300 q 573 -21 783 -21 q 219 131 363 -21 q 76 519 76 282 q 97 677 76 617 q 157 738 117 738 q 189 724 176 738 q 201 697 201 711 q 192 624 201 683 q 183 519 183 565 q 299 196 183 315 q 569 76 414 76 q 769 139 682 76 q 897 299 856 201 q 939 506 939 397 q 939 519 939 513 q 858 834 939 703 q 642 965 776 965 m 760 1294 q 696 1174 760 1235 q 595 1114 632 1114 q 558 1144 558 1114 q 574 1178 558 1163 q 613 1224 589 1194 q 639 1276 624 1240 q 670 1329 654 1311 q 710 1347 686 1347 q 747 1332 733 1347 q 760 1294 760 1317 z "},"":{"ha":1126,"x_min":76,"x_max":1046,"o":"m 642 965 q 475 897 547 965 q 368 728 403 828 q 333 557 333 628 q 338 443 333 486 q 345 376 342 400 q 349 347 349 351 q 317 313 349 313 q 265 384 289 313 q 242 533 242 456 q 351 904 242 746 q 639 1063 461 1063 q 931 910 817 1063 q 1046 528 1046 757 q 915 140 1046 300 q 573 -21 783 -21 q 219 131 363 -21 q 76 519 76 282 q 97 677 76 617 q 157 738 117 738 q 189 724 176 738 q 201 697 201 711 q 192 624 201 683 q 183 519 183 565 q 299 196 183 315 q 569 76 414 76 q 769 139 682 76 q 897 299 856 201 q 939 506 939 397 q 939 519 939 513 q 858 834 939 703 q 642 965 776 965 m 714 1199 q 637 1265 658 1265 q 560 1199 615 1265 q 531 1163 556 1196 q 484 1129 507 1129 q 447 1140 461 1129 q 433 1172 433 1156 q 446 1201 433 1189 q 476 1229 458 1214 q 554 1311 528 1272 q 594 1356 579 1343 q 636 1368 611 1368 q 677 1356 661 1368 q 720 1310 693 1344 q 761 1263 747 1276 q 794 1233 775 1249 q 833 1192 828 1206 q 839 1175 839 1185 q 835 1153 839 1165 q 796 1129 825 1129 q 786 1129 793 1129 q 764 1142 779 1129 q 733 1176 749 1154 q 714 1199 717 1197 z "},"":{"ha":1126,"x_min":76,"x_max":1046,"o":"m 642 965 q 475 897 547 965 q 368 728 403 828 q 333 557 333 628 q 338 443 333 486 q 345 376 342 400 q 349 347 349 351 q 317 313 349 313 q 265 384 289 313 q 242 533 242 456 q 351 904 242 746 q 639 1063 461 1063 q 931 910 817 1063 q 1046 528 1046 757 q 915 140 1046 300 q 573 -21 783 -21 q 219 131 363 -21 q 76 519 76 282 q 97 677 76 617 q 157 738 117 738 q 189 724 176 738 q 201 697 201 711 q 192 624 201 683 q 183 519 183 565 q 299 196 183 315 q 569 76 414 76 q 769 139 682 76 q 897 299 856 201 q 939 506 939 397 q 939 519 939 513 q 858 834 939 703 q 642 965 776 965 m 882 1253 q 847 1170 882 1206 q 763 1135 811 1135 q 649 1173 715 1135 q 560 1211 583 1211 q 518 1199 536 1211 q 495 1180 500 1186 q 471 1147 490 1174 q 439 1126 453 1126 q 415 1131 425 1126 q 386 1185 386 1144 q 431 1262 386 1225 q 533 1299 475 1299 q 663 1260 592 1299 q 764 1221 733 1221 q 817 1256 794 1221 q 853 1292 840 1292 q 874 1280 865 1292 q 882 1253 882 1268 z "},"":{"ha":1126,"x_min":76,"x_max":1046,"o":"m 642 965 q 475 897 547 965 q 368 728 403 828 q 333 557 333 628 q 338 443 333 486 q 345 376 342 400 q 349 347 349 351 q 317 313 349 313 q 265 384 289 313 q 242 533 242 456 q 351 904 242 746 q 639 1063 461 1063 q 931 910 817 1063 q 1046 528 1046 757 q 915 140 1046 300 q 573 -21 783 -21 q 219 131 363 -21 q 76 519 76 282 q 97 677 76 617 q 157 738 117 738 q 189 724 176 738 q 201 697 201 711 q 192 624 201 683 q 183 519 183 565 q 299 196 183 315 q 569 76 414 76 q 769 139 682 76 q 897 299 856 201 q 939 506 939 397 q 939 519 939 513 q 858 834 939 703 q 642 965 776 965 m 511 1324 q 568 1257 568 1324 q 548 1199 568 1226 q 500 1172 528 1172 q 442 1243 442 1172 q 462 1300 442 1276 q 511 1324 482 1324 m 733 1324 q 790 1257 790 1324 q 770 1199 790 1226 q 722 1172 750 1172 q 664 1243 664 1172 q 684 1300 664 1276 q 733 1324 704 1324 z "},"":{"ha":700,"x_min":97,"x_max":603,"o":"m 585 600 q 599 562 599 583 q 542 492 599 540 q 407 357 428 381 q 589 175 497 267 q 603 144 603 163 q 590 111 603 125 q 560 97 576 97 q 531 106 544 97 q 510 122 518 114 q 469 168 503 131 q 350 296 435 206 l 181 113 q 143 96 164 96 q 110 110 122 96 q 97 137 97 125 q 99 154 97 149 q 102 164 100 160 q 110 175 104 168 q 121 186 117 182 q 136 200 125 190 q 165 228 147 210 q 293 356 229 292 q 192 457 271 381 l 114 533 q 100 568 100 551 q 114 599 100 585 q 148 613 128 613 q 181 599 168 613 q 256 518 194 586 l 350 418 q 510 592 506 588 q 551 615 533 615 q 585 600 569 615 z "},"":{"ha":1126,"x_min":69,"x_max":1039,"o":"m 471 88 q 563 76 510 76 q 763 140 676 76 q 890 302 849 203 q 932 519 932 401 q 899 738 932 638 q 801 897 865 839 q 471 88 575 367 m 438 -6 q 429 -26 435 -11 q 419 -49 424 -42 q 408 -68 415 -57 q 372 -89 396 -89 q 331 -76 347 -89 q 315 -44 315 -62 q 340 33 315 -26 q 142 222 214 96 q 69 519 69 349 q 89 674 69 611 q 150 738 108 738 q 182 724 169 738 q 194 691 194 711 q 185 625 194 671 q 176 519 176 579 q 233 277 176 379 q 385 122 290 175 q 550 531 425 213 l 714 951 q 635 965 681 965 q 467 895 540 965 q 360 726 394 825 q 326 538 326 626 q 334 406 326 450 q 342 347 342 361 q 310 313 342 313 q 258 383 282 313 q 235 533 235 453 q 345 903 235 744 q 628 1063 456 1063 q 749 1042 690 1063 q 815 1117 776 1117 q 853 1103 839 1117 q 867 1072 867 1089 q 863 1044 867 1054 q 852 1017 860 1033 q 842 993 844 1000 q 988 801 936 925 q 1039 519 1039 678 q 908 139 1039 299 q 563 -21 776 -21 q 438 -6 494 -21 z "},"":{"ha":1101,"x_min":39,"x_max":1049,"o":"m 211 958 q 158 933 179 958 q 136 875 136 908 q 149 819 136 842 q 174 783 161 796 q 186 764 186 771 q 147 731 186 731 q 74 774 108 731 q 39 875 39 817 q 75 994 39 933 q 211 1063 119 1063 q 351 999 303 1063 q 400 859 400 936 q 365 594 400 782 q 329 356 329 406 q 371 151 329 226 q 495 76 413 76 q 651 175 578 76 q 761 394 724 274 q 806 628 799 514 q 801 964 801 725 q 861 1056 801 1056 q 933 940 933 1056 q 897 585 933 913 q 928 281 900 435 q 982 99 956 126 q 1019 87 990 89 q 1049 71 1049 85 q 1022 6 1049 32 q 967 -22 994 -22 q 931 -14 940 -22 q 886 36 910 -3 q 853 144 865 75 q 839 220 840 213 q 833 266 838 228 q 825 315 828 304 q 709 83 792 186 q 488 -21 626 -21 q 281 86 350 -21 q 219 303 219 185 q 258 597 219 422 q 296 846 296 772 q 211 958 296 958 m 640 1144 q 603 1115 640 1115 q 501 1175 565 1115 q 439 1294 439 1236 q 438 1303 438 1299 q 468 1342 438 1329 q 496 1347 479 1347 q 560 1272 528 1347 q 610 1195 579 1229 q 640 1144 640 1161 z "},"":{"ha":1101,"x_min":39,"x_max":1049,"o":"m 211 958 q 158 933 179 958 q 136 875 136 908 q 149 819 136 842 q 174 783 161 796 q 186 764 186 771 q 147 731 186 731 q 74 774 108 731 q 39 875 39 817 q 75 994 39 933 q 211 1063 119 1063 q 351 999 303 1063 q 400 859 400 936 q 365 594 400 782 q 329 356 329 406 q 371 151 329 226 q 495 76 413 76 q 651 175 578 76 q 761 394 724 274 q 806 628 799 514 q 801 964 801 725 q 861 1056 801 1056 q 933 940 933 1056 q 897 585 933 913 q 928 281 900 435 q 982 99 956 126 q 1019 87 990 89 q 1049 71 1049 85 q 1022 6 1049 32 q 967 -22 994 -22 q 931 -14 940 -22 q 886 36 910 -3 q 853 144 865 75 q 839 220 840 213 q 833 266 838 228 q 825 315 828 304 q 709 83 792 186 q 488 -21 626 -21 q 281 86 350 -21 q 219 303 219 185 q 258 597 219 422 q 296 846 296 772 q 211 958 296 958 m 718 1294 q 654 1174 718 1235 q 553 1114 590 1114 q 517 1144 517 1114 q 532 1178 517 1163 q 571 1224 547 1194 q 597 1276 582 1240 q 628 1329 613 1311 q 668 1347 644 1347 q 705 1332 692 1347 q 718 1294 718 1317 z "},"":{"ha":1101,"x_min":39,"x_max":1049,"o":"m 211 958 q 158 933 179 958 q 136 875 136 908 q 149 819 136 842 q 174 783 161 796 q 186 764 186 771 q 147 731 186 731 q 74 774 108 731 q 39 875 39 817 q 75 994 39 933 q 211 1063 119 1063 q 351 999 303 1063 q 400 859 400 936 q 365 594 400 782 q 329 356 329 406 q 371 151 329 226 q 495 76 413 76 q 651 175 578 76 q 761 394 724 274 q 806 628 799 514 q 801 964 801 725 q 861 1056 801 1056 q 933 940 933 1056 q 897 585 933 913 q 928 281 900 435 q 982 99 956 126 q 1019 87 990 89 q 1049 71 1049 85 q 1022 6 1049 32 q 967 -22 994 -22 q 931 -14 940 -22 q 886 36 910 -3 q 853 144 865 75 q 839 220 840 213 q 833 266 838 228 q 825 315 828 304 q 709 83 792 186 q 488 -21 626 -21 q 281 86 350 -21 q 219 303 219 185 q 258 597 219 422 q 296 846 296 772 q 211 958 296 958 m 672 1199 q 595 1265 615 1265 q 518 1199 575 1265 q 490 1163 514 1196 q 442 1129 465 1129 q 406 1140 419 1129 q 392 1172 392 1156 q 404 1201 392 1189 q 435 1229 417 1214 q 513 1311 486 1272 q 553 1356 538 1343 q 594 1368 569 1368 q 635 1356 619 1368 q 678 1310 651 1344 q 719 1263 706 1276 q 753 1233 733 1249 q 792 1192 786 1206 q 797 1175 797 1185 q 793 1153 797 1165 q 754 1129 783 1129 q 744 1129 751 1129 q 722 1142 738 1129 q 691 1176 707 1154 q 672 1199 675 1197 z "},"":{"ha":1101,"x_min":39,"x_max":1049,"o":"m 211 958 q 158 933 179 958 q 136 875 136 908 q 149 819 136 842 q 174 783 161 796 q 186 764 186 771 q 147 731 186 731 q 74 774 108 731 q 39 875 39 817 q 75 994 39 933 q 211 1063 119 1063 q 351 999 303 1063 q 400 859 400 936 q 365 594 400 782 q 329 356 329 406 q 371 151 329 226 q 495 76 413 76 q 651 175 578 76 q 761 394 724 274 q 806 628 799 514 q 801 964 801 725 q 861 1056 801 1056 q 933 940 933 1056 q 897 585 933 913 q 928 281 900 435 q 982 99 956 126 q 1019 87 990 89 q 1049 71 1049 85 q 1022 6 1049 32 q 967 -22 994 -22 q 931 -14 940 -22 q 886 36 910 -3 q 853 144 865 75 q 839 220 840 213 q 833 266 838 228 q 825 315 828 304 q 709 83 792 186 q 488 -21 626 -21 q 281 86 350 -21 q 219 303 219 185 q 258 597 219 422 q 296 846 296 772 q 211 958 296 958 m 479 1325 q 536 1258 536 1325 q 516 1201 536 1228 q 468 1174 496 1174 q 410 1244 410 1174 q 430 1301 410 1278 q 479 1325 450 1325 m 701 1325 q 758 1258 758 1325 q 738 1201 758 1228 q 690 1174 718 1174 q 632 1244 632 1174 q 652 1301 632 1278 q 701 1325 672 1325 z "},"":{"ha":810,"x_min":29,"x_max":772,"o":"m 29 990 q 79 1056 29 1056 q 107 1042 93 1056 q 127 1010 121 1029 q 144 948 133 992 q 172 849 156 904 q 303 586 219 690 q 390 529 349 529 q 421 535 411 529 q 581 1019 482 922 q 672 1061 622 1061 q 747 1030 721 1061 q 772 946 772 999 q 692 699 772 831 q 518 475 613 568 q 507 288 507 406 q 514 65 507 169 q 521 -61 521 -40 q 505 -100 521 -82 q 464 -118 489 -118 q 403 11 411 -118 q 401 129 401 44 q 418 431 401 214 q 382 428 401 428 q 253 481 311 428 q 142 649 196 535 q 59 856 89 763 q 29 990 29 950 m 663 961 q 581 817 633 961 q 522 603 528 672 q 626 768 575 664 q 678 932 678 872 q 663 961 678 961 m 539 1294 q 475 1174 539 1235 q 374 1114 411 1114 q 338 1144 338 1114 q 353 1178 338 1163 q 392 1224 368 1194 q 418 1276 403 1240 q 449 1329 433 1311 q 489 1347 465 1347 q 526 1332 513 1347 q 539 1294 539 1317 z "},"":{"ha":788,"x_min":136,"x_max":749,"o":"m 136 56 l 143 521 l 136 986 q 189 1056 136 1056 q 242 986 242 1056 q 238 840 242 961 q 401 864 306 864 q 653 781 557 864 q 749 572 749 697 q 653 363 749 446 q 400 279 557 279 q 236 303 304 279 l 242 56 q 189 -14 242 -14 q 136 56 136 -14 m 239 754 q 236 552 236 676 q 238 389 236 428 q 408 367 308 367 q 576 423 507 367 q 644 572 644 479 q 576 720 644 664 q 408 776 507 776 q 239 754 310 776 z "},"":{"ha":756,"x_min":28,"x_max":715,"o":"m 81 697 l 150 694 l 150 813 q 210 996 150 936 q 373 1056 271 1056 q 533 999 475 1056 q 592 854 592 943 q 569 751 592 801 q 515 669 547 701 q 439 550 439 597 q 536 413 439 475 q 700 261 669 335 q 715 182 715 225 q 658 42 715 97 q 519 -14 600 -14 q 383 17 439 -14 q 326 88 326 49 q 372 135 326 135 q 426 105 383 135 q 508 75 469 75 q 581 104 547 75 q 614 174 614 131 q 542 297 614 250 q 492 330 526 308 q 438 365 458 351 q 335 535 335 433 q 411 696 335 622 q 488 835 488 776 q 456 928 488 894 q 369 963 425 963 q 251 800 251 963 l 251 57 q 237 6 251 25 q 197 -14 222 -14 q 158 5 172 -14 q 143 57 143 24 q 147 221 143 90 q 151 521 151 351 l 151 614 l 81 611 q 28 653 28 611 q 43 685 28 674 q 81 697 58 697 z "},"":{"ha":793,"x_min":67,"x_max":742,"o":"m 649 336 q 663 167 649 235 q 700 92 678 100 q 720 86 708 88 q 737 82 732 85 q 742 71 742 79 q 721 9 742 32 q 660 -14 700 -14 q 599 37 621 -14 q 576 169 576 88 q 472 38 539 89 q 322 -14 406 -14 q 178 42 238 -14 q 67 332 67 144 q 154 596 67 483 q 379 708 242 708 q 560 638 483 708 q 613 708 560 708 q 676 613 676 708 q 649 336 676 518 m 568 324 l 561 538 q 388 618 479 618 q 231 536 296 618 q 165 338 165 454 q 208 149 165 222 q 328 76 251 76 q 469 144 404 76 q 568 324 533 213 m 469 853 q 432 824 469 824 q 331 883 394 824 q 268 1003 268 944 q 267 1011 267 1007 q 297 1050 267 1038 q 325 1056 308 1056 q 389 981 357 1056 q 439 903 408 938 q 469 853 469 869 z "},"":{"ha":793,"x_min":67,"x_max":742,"o":"m 649 336 q 663 167 649 235 q 700 92 678 100 q 720 86 708 88 q 737 82 732 85 q 742 71 742 79 q 721 9 742 32 q 660 -14 700 -14 q 599 37 621 -14 q 576 169 576 88 q 472 38 539 89 q 322 -14 406 -14 q 178 42 238 -14 q 67 332 67 144 q 154 596 67 483 q 379 708 242 708 q 560 638 483 708 q 613 708 560 708 q 676 613 676 708 q 649 336 676 518 m 568 324 l 561 538 q 388 618 479 618 q 231 536 296 618 q 165 338 165 454 q 208 149 165 222 q 328 76 251 76 q 469 144 404 76 q 568 324 533 213 m 539 1003 q 475 883 539 943 q 374 822 411 822 q 338 853 338 822 q 353 887 338 871 q 392 932 368 903 q 418 984 403 949 q 449 1038 433 1019 q 489 1056 465 1056 q 526 1040 513 1056 q 539 1003 539 1025 z "},"":{"ha":793,"x_min":67,"x_max":742,"o":"m 649 336 q 663 167 649 235 q 700 92 678 100 q 720 86 708 88 q 737 82 732 85 q 742 71 742 79 q 721 9 742 32 q 660 -14 700 -14 q 599 37 621 -14 q 576 169 576 88 q 472 38 539 89 q 322 -14 406 -14 q 178 42 238 -14 q 67 332 67 144 q 154 596 67 483 q 379 708 242 708 q 560 638 483 708 q 613 708 560 708 q 676 613 676 708 q 649 336 676 518 m 568 324 l 561 538 q 388 618 479 618 q 231 536 296 618 q 165 338 165 454 q 208 149 165 222 q 328 76 251 76 q 469 144 404 76 q 568 324 533 213 m 474 886 q 397 953 418 953 q 319 886 375 953 q 291 850 315 883 q 244 817 267 817 q 207 828 221 817 q 194 856 194 840 q 206 890 194 878 q 236 917 218 901 q 314 999 288 960 q 354 1043 339 1031 q 396 1056 371 1056 q 437 1044 421 1056 q 480 998 453 1032 q 521 950 507 964 q 554 919 535 936 q 593 879 588 893 q 599 861 599 871 q 594 840 599 851 q 556 817 585 817 q 546 817 553 817 q 524 829 539 817 q 492 863 508 842 q 474 886 476 885 z "},"":{"ha":793,"x_min":67,"x_max":742,"o":"m 649 336 q 663 167 649 235 q 700 92 678 100 q 720 86 708 88 q 737 82 732 85 q 742 71 742 79 q 721 9 742 32 q 660 -14 700 -14 q 599 37 621 -14 q 576 169 576 88 q 472 38 539 89 q 322 -14 406 -14 q 178 42 238 -14 q 67 332 67 144 q 154 596 67 483 q 379 708 242 708 q 560 638 483 708 q 613 708 560 708 q 676 613 676 708 q 649 336 676 518 m 568 324 l 561 538 q 388 618 479 618 q 231 536 296 618 q 165 338 165 454 q 208 149 165 222 q 328 76 251 76 q 469 144 404 76 q 568 324 533 213 m 672 947 q 637 865 672 900 q 553 829 601 829 q 440 867 506 829 q 350 906 374 906 q 308 893 326 906 q 285 874 290 881 q 261 842 281 868 q 229 821 243 821 q 206 825 215 821 q 176 879 176 839 q 220 956 176 919 q 323 993 264 993 q 453 954 382 993 q 554 915 524 915 q 608 951 585 915 q 643 986 631 986 q 664 974 656 986 q 672 947 672 963 z "},"":{"ha":793,"x_min":67,"x_max":742,"o":"m 649 336 q 663 167 649 235 q 700 92 678 100 q 720 86 708 88 q 737 82 732 85 q 742 71 742 79 q 721 9 742 32 q 660 -14 700 -14 q 599 37 621 -14 q 576 169 576 88 q 472 38 539 89 q 322 -14 406 -14 q 178 42 238 -14 q 67 332 67 144 q 154 596 67 483 q 379 708 242 708 q 560 638 483 708 q 613 708 560 708 q 676 613 676 708 q 649 336 676 518 m 568 324 l 561 538 q 388 618 479 618 q 231 536 296 618 q 165 338 165 454 q 208 149 165 222 q 328 76 251 76 q 469 144 404 76 q 568 324 533 213 m 292 1007 q 349 940 349 1007 q 328 883 349 910 q 281 856 308 856 q 222 926 222 856 q 242 983 222 960 q 292 1007 263 1007 m 514 1007 q 571 940 571 1007 q 551 883 571 910 q 503 856 531 856 q 444 926 444 856 q 465 983 444 960 q 514 1007 485 1007 z "},"":{"ha":793,"x_min":67,"x_max":742,"o":"m 649 336 q 663 167 649 235 q 700 92 678 100 q 720 86 708 88 q 737 82 732 85 q 742 71 742 79 q 721 9 742 32 q 660 -14 700 -14 q 599 37 621 -14 q 576 169 576 88 q 472 38 539 89 q 322 -14 406 -14 q 178 42 238 -14 q 67 332 67 144 q 154 596 67 483 q 379 708 242 708 q 560 638 483 708 q 613 708 560 708 q 676 613 676 708 q 649 336 676 518 m 568 324 l 561 538 q 388 618 479 618 q 231 536 296 618 q 165 338 165 454 q 208 149 165 222 q 328 76 251 76 q 469 144 404 76 q 568 324 533 213 m 300 1024 q 318 1043 300 1024 q 390 1063 336 1063 q 481 1024 444 1063 q 517 931 517 986 q 482 838 517 875 q 391 800 447 800 q 299 836 335 800 q 264 930 264 874 q 300 1024 264 986 m 347 885 q 356 875 347 885 q 390 865 365 865 q 433 885 415 865 q 451 931 451 906 q 433 977 451 957 q 390 997 414 997 q 348 977 367 997 q 329 931 329 957 q 347 885 329 906 z "},"":{"ha":1163,"x_min":54,"x_max":1094,"o":"m 511 315 q 332 349 417 349 q 200 308 247 349 q 153 208 153 267 q 199 110 153 149 q 317 71 244 71 q 450 135 389 71 q 511 315 511 200 m 618 301 q 690 138 626 206 q 841 69 754 69 q 983 112 928 69 q 1056 154 1039 154 q 1084 144 1074 154 q 1094 118 1094 133 q 1015 29 1094 79 q 842 -21 935 -21 q 567 147 656 -21 q 301 -21 482 -21 q 125 43 197 -21 q 54 207 54 108 q 126 369 54 306 q 306 439 204 439 q 514 404 408 439 q 465 570 514 517 q 337 624 417 624 q 213 583 257 624 q 146 542 169 542 q 99 585 99 542 q 169 672 99 628 q 329 715 239 715 q 485 674 419 715 q 585 561 550 633 q 854 715 685 715 q 1025 653 956 715 q 1094 490 1094 590 q 1008 338 1094 389 q 810 286 922 286 q 618 301 699 286 m 854 625 q 701 556 763 625 q 619 392 639 486 q 786 374 690 374 q 939 406 882 374 q 996 493 996 438 q 958 587 996 549 q 854 625 919 625 z "},"":{"ha":707,"x_min":64,"x_max":654,"o":"m 407 -21 q 482 -97 411 -60 q 553 -189 553 -133 q 504 -282 553 -244 q 390 -319 456 -319 q 280 -289 324 -319 q 236 -222 236 -258 q 243 -204 236 -212 q 261 -196 250 -196 q 310 -214 272 -196 q 377 -232 347 -232 q 430 -218 407 -232 q 453 -189 453 -204 q 431 -156 453 -174 q 399 -133 428 -153 q 358 -102 371 -114 q 332 -65 346 -90 q 318 -8 318 -39 q 133 119 206 21 q 64 360 64 218 q 161 608 64 501 q 419 715 258 715 q 574 676 506 715 q 642 597 642 636 q 614 547 642 558 q 591 544 606 544 q 554 564 576 544 q 407 625 481 625 q 239 544 311 625 q 168 348 168 464 q 241 151 168 232 q 419 69 314 69 q 579 125 503 69 q 619 143 606 143 q 654 106 654 143 q 575 25 654 69 q 407 -21 496 -19 z "},"":{"ha":749,"x_min":33,"x_max":681,"o":"m 440 625 q 287 556 349 625 q 206 396 225 488 q 374 374 281 374 q 525 406 468 374 q 582 493 582 438 q 544 587 582 549 q 440 625 506 625 m 381 286 q 204 307 308 286 q 277 139 213 208 q 428 69 342 69 q 569 112 514 69 q 642 154 625 154 q 670 144 660 154 q 681 118 681 133 q 601 29 681 79 q 428 -21 521 -21 q 198 81 283 -21 q 107 325 113 183 q 33 397 33 349 q 57 439 33 429 q 78 442 65 442 q 115 429 92 442 q 231 635 147 556 q 428 715 315 715 q 611 653 542 715 q 681 490 681 590 q 594 338 681 389 q 381 286 508 286 m 467 853 q 429 824 467 824 q 328 883 392 824 q 265 1003 265 944 q 264 1011 264 1007 q 294 1050 264 1038 q 322 1056 306 1056 q 386 981 354 1056 q 436 903 406 938 q 467 853 467 869 z "},"":{"ha":749,"x_min":33,"x_max":681,"o":"m 440 625 q 287 556 349 625 q 206 396 225 488 q 374 374 281 374 q 525 406 468 374 q 582 493 582 438 q 544 587 582 549 q 440 625 506 625 m 381 286 q 204 307 308 286 q 277 139 213 208 q 428 69 342 69 q 569 112 514 69 q 642 154 625 154 q 670 144 660 154 q 681 118 681 133 q 601 29 681 79 q 428 -21 521 -21 q 198 81 283 -21 q 107 325 113 183 q 33 397 33 349 q 57 439 33 429 q 78 442 65 442 q 115 429 92 442 q 231 635 147 556 q 428 715 315 715 q 611 653 542 715 q 681 490 681 590 q 594 338 681 389 q 381 286 508 286 m 554 1003 q 490 883 554 943 q 390 822 426 822 q 353 853 354 822 q 368 887 353 871 q 407 932 383 903 q 433 984 418 949 q 465 1038 449 1019 q 504 1056 481 1056 q 541 1040 528 1056 q 554 1003 554 1025 z "},"":{"ha":749,"x_min":33,"x_max":681,"o":"m 440 625 q 287 556 349 625 q 206 396 225 488 q 374 374 281 374 q 525 406 468 374 q 582 493 582 438 q 544 587 582 549 q 440 625 506 625 m 381 286 q 204 307 308 286 q 277 139 213 208 q 428 69 342 69 q 569 112 514 69 q 642 154 625 154 q 670 144 660 154 q 681 118 681 133 q 601 29 681 79 q 428 -21 521 -21 q 198 81 283 -21 q 107 325 113 183 q 33 397 33 349 q 57 439 33 429 q 78 442 65 442 q 115 429 92 442 q 231 635 147 556 q 428 715 315 715 q 611 653 542 715 q 681 490 681 590 q 594 338 681 389 q 381 286 508 286 m 492 886 q 415 953 436 953 q 338 886 394 953 q 317 861 331 882 q 262 817 285 817 q 225 828 239 817 q 211 858 211 842 q 224 888 211 875 q 254 917 236 901 q 332 999 306 960 q 372 1043 357 1031 q 414 1056 389 1056 q 455 1044 439 1056 q 498 998 471 1032 q 539 950 525 964 q 572 919 553 936 q 611 879 606 893 q 617 861 617 871 q 613 840 617 851 q 574 817 603 817 q 564 817 571 817 q 542 829 557 817 q 510 863 526 842 q 492 886 494 885 z "},"":{"ha":749,"x_min":33,"x_max":681,"o":"m 440 625 q 287 556 349 625 q 206 396 225 488 q 374 374 281 374 q 525 406 468 374 q 582 493 582 438 q 544 587 582 549 q 440 625 506 625 m 381 286 q 204 307 308 286 q 277 139 213 208 q 428 69 342 69 q 569 112 514 69 q 642 154 625 154 q 670 144 660 154 q 681 118 681 133 q 601 29 681 79 q 428 -21 521 -21 q 198 81 283 -21 q 107 325 113 183 q 33 397 33 349 q 57 439 33 429 q 78 442 65 442 q 115 429 92 442 q 231 635 147 556 q 428 715 315 715 q 611 653 542 715 q 681 490 681 590 q 594 338 681 389 q 381 286 508 286 m 314 1007 q 371 940 371 1007 q 351 883 371 910 q 303 856 331 856 q 244 926 244 856 q 265 983 244 960 q 314 1007 285 1007 m 536 1007 q 593 940 593 1007 q 573 883 593 910 q 525 856 553 856 q 467 926 467 856 q 487 983 467 960 q 536 1007 507 1007 z "},"":{"ha":311,"x_min":40,"x_max":243,"o":"m 208 639 l 201 347 l 208 56 q 156 -14 208 -14 q 103 56 103 -14 l 110 347 q 103 639 107 444 q 156 708 103 708 q 208 639 208 708 m 243 853 q 206 824 243 824 q 104 883 168 824 q 42 1003 42 944 q 40 1011 40 1007 q 71 1050 40 1038 q 99 1056 82 1056 q 163 981 131 1056 q 213 903 182 938 q 243 853 243 869 z "},"":{"ha":311,"x_min":68,"x_max":269,"o":"m 208 639 l 201 347 l 208 56 q 156 -14 208 -14 q 103 56 103 -14 l 110 347 q 103 639 107 444 q 156 708 103 708 q 208 639 208 708 m 269 1003 q 206 883 269 943 q 105 822 142 822 q 68 853 68 822 q 83 887 68 871 q 122 932 99 903 q 149 984 133 949 q 180 1038 164 1019 q 219 1056 196 1056 q 256 1040 243 1056 q 269 1003 269 1025 z "},"":{"ha":311,"x_min":-46,"x_max":360,"o":"m 208 639 l 201 347 l 208 56 q 156 -14 208 -14 q 103 56 103 -14 l 110 347 q 103 639 107 444 q 156 708 103 708 q 208 639 208 708 m 233 886 q 156 953 176 953 q 79 886 136 953 q 58 861 72 882 q 3 817 26 817 q -33 828 -19 817 q -46 854 -46 844 q -26 896 -46 881 q 13 931 -24 899 q 74 999 50 964 q 114 1043 99 1031 q 156 1056 131 1056 q 197 1044 181 1056 q 240 998 213 1032 q 281 950 267 964 q 314 919 294 936 q 353 879 347 893 q 358 861 358 871 q 354 840 358 851 q 315 817 344 817 q 306 817 313 817 q 283 829 299 817 q 252 863 268 842 q 233 886 236 885 z "},"":{"ha":311,"x_min":-18,"x_max":331,"o":"m 208 639 l 201 347 l 208 56 q 156 -14 208 -14 q 103 56 103 -14 l 110 347 q 103 639 107 444 q 156 708 103 708 q 208 639 208 708 m 51 1007 q 108 940 108 1007 q 88 883 108 910 q 40 856 68 856 q -18 926 -18 856 q 2 983 -18 960 q 51 1007 22 1007 m 274 1007 q 331 940 331 1007 q 310 883 331 910 q 263 856 290 856 q 204 926 204 856 q 224 983 204 960 q 274 1007 244 1007 z "},"":{"ha":794,"x_min":67,"x_max":708,"o":"m 708 418 q 626 106 708 225 q 379 -14 543 -14 q 153 92 240 -14 q 67 335 67 199 q 144 575 67 472 q 358 678 222 678 q 498 645 433 678 q 599 564 563 613 q 438 850 564 740 q 356 769 426 840 q 310 744 329 744 q 277 760 290 744 q 264 787 264 776 q 269 804 264 797 q 304 840 276 819 q 338 868 311 847 q 374 896 365 889 q 242 938 315 931 q 197 944 215 939 q 164 986 164 953 q 182 1017 164 1004 q 231 1029 200 1029 q 443 964 328 1029 q 519 1036 468 985 q 565 1061 546 1061 q 599 1048 585 1061 q 613 1022 613 1035 q 608 997 613 1008 q 578 964 603 986 l 511 910 q 656 694 604 825 q 708 418 708 563 m 228 150 q 382 75 290 75 q 536 149 474 75 q 599 327 599 224 q 536 510 599 431 q 376 589 474 589 q 223 516 279 589 q 167 335 167 443 q 228 150 167 228 z "},"":{"ha":804,"x_min":94,"x_max":754,"o":"m 689 438 l 682 219 l 682 160 q 710 92 685 103 q 732 87 719 89 q 749 82 744 85 q 754 71 754 79 q 731 10 754 35 q 678 -14 708 -14 q 606 26 626 -14 q 585 150 585 67 l 590 406 q 549 559 590 501 q 438 617 508 617 q 301 538 367 617 q 207 358 235 460 l 211 57 q 158 -14 211 -14 q 94 81 94 -14 q 122 358 94 176 q 110 522 122 417 q 99 650 99 628 q 114 690 99 672 q 153 708 129 708 q 192 690 176 708 q 207 651 207 672 q 206 589 207 631 q 206 532 206 547 q 456 708 307 708 q 628 628 567 708 q 689 438 689 549 m 640 947 q 605 865 640 900 q 522 829 569 829 q 408 867 474 829 q 318 906 342 906 q 276 893 294 906 q 253 874 258 881 q 229 842 249 868 q 197 821 211 821 q 174 825 183 821 q 144 879 144 839 q 189 956 144 919 q 292 993 233 993 q 421 954 350 993 q 522 915 492 915 q 576 951 553 915 q 611 986 599 986 q 632 974 624 986 q 640 947 640 963 z "},"":{"ha":781,"x_min":64,"x_max":717,"o":"m 163 346 q 163 288 163 346 q 226 150 163 231 q 387 69 290 69 q 551 151 483 69 q 618 347 618 232 q 553 544 618 463 q 394 625 489 625 q 229 543 299 625 q 163 346 163 461 m 156 85 q 110 139 156 85 q 64 346 64 192 q 157 608 64 500 q 392 715 250 715 q 625 609 533 715 q 717 348 717 503 q 623 86 717 193 q 388 -21 529 -21 q 156 85 247 -21 m 463 853 q 425 824 463 824 q 324 883 388 824 q 261 1003 261 944 q 260 1011 260 1007 q 290 1050 260 1038 q 318 1056 301 1056 q 382 981 350 1056 q 432 903 401 938 q 463 853 463 869 z "},"":{"ha":781,"x_min":64,"x_max":717,"o":"m 163 346 q 163 288 163 346 q 226 150 163 231 q 387 69 290 69 q 551 151 483 69 q 618 347 618 232 q 553 544 618 463 q 394 625 489 625 q 229 543 299 625 q 163 346 163 461 m 156 85 q 110 139 156 85 q 64 346 64 192 q 157 608 64 500 q 392 715 250 715 q 625 609 533 715 q 717 348 717 503 q 623 86 717 193 q 388 -21 529 -21 q 156 85 247 -21 m 532 1003 q 468 883 532 943 q 367 822 404 822 q 331 853 331 822 q 346 887 331 871 q 385 932 361 903 q 411 984 396 949 q 442 1038 426 1019 q 482 1056 458 1056 q 519 1040 506 1056 q 532 1003 532 1025 z "},"":{"ha":781,"x_min":64,"x_max":717,"o":"m 163 346 q 163 288 163 346 q 226 150 163 231 q 387 69 290 69 q 551 151 483 69 q 618 347 618 232 q 553 544 618 463 q 394 625 489 625 q 229 543 299 625 q 163 346 163 461 m 156 85 q 110 139 156 85 q 64 346 64 192 q 157 608 64 500 q 392 715 250 715 q 625 609 533 715 q 717 348 717 503 q 623 86 717 193 q 388 -21 529 -21 q 156 85 247 -21 m 467 886 q 390 953 411 953 q 313 886 369 953 q 284 850 308 883 q 237 817 260 817 q 200 828 214 817 q 186 858 186 842 q 199 888 186 875 q 229 917 211 901 q 307 999 281 960 q 347 1043 332 1031 q 389 1056 364 1056 q 430 1044 414 1056 q 473 998 446 1032 q 514 950 500 964 q 547 919 528 936 q 586 879 581 893 q 592 861 592 871 q 588 840 592 851 q 549 817 578 817 q 539 817 546 817 q 517 829 532 817 q 485 863 501 842 q 467 886 469 885 z "},"":{"ha":781,"x_min":64,"x_max":717,"o":"m 163 346 q 163 288 163 346 q 226 150 163 231 q 387 69 290 69 q 551 151 483 69 q 618 347 618 232 q 553 544 618 463 q 394 625 489 625 q 229 543 299 625 q 163 346 163 461 m 156 85 q 110 139 156 85 q 64 346 64 192 q 157 608 64 500 q 392 715 250 715 q 625 609 533 715 q 717 348 717 503 q 623 86 717 193 q 388 -21 529 -21 q 156 85 247 -21 m 638 947 q 602 865 638 900 q 519 829 567 829 q 405 867 471 829 q 315 906 339 906 q 274 893 292 906 q 251 874 256 881 q 226 842 246 868 q 194 821 208 821 q 171 825 181 821 q 142 879 142 839 q 186 956 142 919 q 289 993 231 993 q 418 954 347 993 q 519 915 489 915 q 573 951 550 915 q 608 986 596 986 q 629 974 621 986 q 638 947 638 963 z "},"":{"ha":781,"x_min":64,"x_max":717,"o":"m 163 346 q 163 288 163 346 q 226 150 163 231 q 387 69 290 69 q 551 151 483 69 q 618 347 618 232 q 553 544 618 463 q 394 625 489 625 q 229 543 299 625 q 163 346 163 461 m 156 85 q 110 139 156 85 q 64 346 64 192 q 157 608 64 500 q 392 715 250 715 q 625 609 533 715 q 717 348 717 503 q 623 86 717 193 q 388 -21 529 -21 q 156 85 247 -21 m 285 1007 q 342 940 342 1007 q 322 883 342 910 q 274 856 301 856 q 215 926 215 856 q 235 983 215 960 q 285 1007 256 1007 m 507 1007 q 564 940 564 1007 q 544 883 564 910 q 496 856 524 856 q 438 926 438 856 q 458 983 438 960 q 507 1007 478 1007 z "},"":{"ha":775,"x_min":85,"x_max":690,"o":"m 388 404 l 633 408 q 640 408 638 408 q 680 392 669 408 q 690 363 690 375 q 680 333 690 350 q 640 317 669 317 q 633 317 638 317 l 388 321 l 142 317 q 135 317 138 317 q 95 333 106 317 q 85 363 85 350 q 95 392 85 375 q 135 408 106 408 q 142 408 138 408 l 388 404 m 392 210 q 450 138 450 210 q 431 81 450 107 q 383 56 411 56 q 340 76 356 56 q 325 128 325 97 q 344 185 325 160 q 392 210 364 210 m 392 669 q 450 597 450 669 q 431 541 450 567 q 383 515 411 515 q 340 536 356 515 q 325 588 325 557 q 344 644 325 619 q 392 669 364 669 z "},"":{"ha":781,"x_min":64,"x_max":717,"o":"m 717 347 q 623 86 717 193 q 390 -21 529 -21 q 301 -8 351 -21 l 276 -78 q 219 -126 257 -126 q 185 -112 200 -126 q 171 -75 171 -97 q 208 36 171 -53 q 102 167 140 85 q 64 347 64 249 q 157 608 64 500 q 389 715 250 715 q 476 703 435 715 l 500 767 q 557 815 521 815 q 591 801 576 815 q 606 764 606 786 q 569 658 606 742 q 678 528 639 610 q 717 347 717 446 m 531 569 q 333 76 449 381 q 389 69 368 69 q 551 151 483 69 q 618 359 618 232 q 531 569 618 486 m 249 126 q 446 617 363 390 q 392 625 421 625 q 229 543 299 625 q 163 333 163 461 q 249 126 163 206 z "},"":{"ha":811,"x_min":86,"x_max":760,"o":"m 210 594 l 199 289 q 240 135 199 193 q 351 76 281 76 q 489 156 422 76 q 582 336 554 236 l 578 638 q 631 708 578 708 q 694 613 694 708 q 667 336 694 518 q 681 167 667 235 q 718 92 696 100 q 738 86 726 88 q 755 82 750 85 q 760 71 760 79 q 737 10 760 33 q 679 -14 714 -14 q 592 164 592 -14 q 333 -14 489 -14 q 161 68 222 -14 q 100 271 100 153 l 108 481 q 97 584 108 524 q 86 660 86 644 q 103 692 86 675 q 146 708 121 708 q 210 594 210 708 m 450 853 q 413 824 450 824 q 311 883 375 824 q 249 1003 249 944 q 247 1011 247 1007 q 278 1050 247 1038 q 306 1056 289 1056 q 369 981 338 1056 q 419 903 389 938 q 450 853 450 869 z "},"":{"ha":811,"x_min":86,"x_max":760,"o":"m 210 594 l 199 289 q 240 135 199 193 q 351 76 281 76 q 489 156 422 76 q 582 336 554 236 l 578 638 q 631 708 578 708 q 694 613 694 708 q 667 336 694 518 q 681 167 667 235 q 718 92 696 100 q 738 86 726 88 q 755 82 750 85 q 760 71 760 79 q 737 10 760 33 q 679 -14 714 -14 q 592 164 592 -14 q 333 -14 489 -14 q 161 68 222 -14 q 100 271 100 153 l 108 481 q 97 584 108 524 q 86 660 86 644 q 103 692 86 675 q 146 708 121 708 q 210 594 210 708 m 533 1003 q 469 883 533 943 q 369 822 406 822 q 332 853 332 822 q 347 887 332 871 q 386 932 361 903 q 413 984 397 949 q 444 1038 428 1019 q 483 1056 460 1056 q 520 1040 507 1056 q 533 1003 533 1025 z "},"":{"ha":811,"x_min":86,"x_max":760,"o":"m 210 594 l 199 289 q 240 135 199 193 q 351 76 281 76 q 489 156 422 76 q 582 336 554 236 l 578 638 q 631 708 578 708 q 694 613 694 708 q 667 336 694 518 q 681 167 667 235 q 718 92 696 100 q 738 86 726 88 q 755 82 750 85 q 760 71 760 79 q 737 10 760 33 q 679 -14 714 -14 q 592 164 592 -14 q 333 -14 489 -14 q 161 68 222 -14 q 100 271 100 153 l 108 481 q 97 584 108 524 q 86 660 86 644 q 103 692 86 675 q 146 708 121 708 q 210 594 210 708 m 471 886 q 394 953 415 953 q 317 886 372 953 q 288 850 313 883 q 241 817 264 817 q 204 828 218 817 q 192 856 192 840 q 203 890 192 878 q 233 917 215 901 q 311 999 285 960 q 351 1043 336 1031 q 393 1056 368 1056 q 434 1044 418 1056 q 477 998 450 1032 q 518 950 504 964 q 551 919 532 936 q 590 879 585 893 q 596 861 596 871 q 592 840 596 851 q 553 817 582 817 q 543 817 550 817 q 521 829 536 817 q 490 863 506 842 q 471 886 474 885 z "},"":{"ha":811,"x_min":86,"x_max":760,"o":"m 210 594 l 199 289 q 240 135 199 193 q 351 76 281 76 q 489 156 422 76 q 582 336 554 236 l 578 638 q 631 708 578 708 q 694 613 694 708 q 667 336 694 518 q 681 167 667 235 q 718 92 696 100 q 738 86 726 88 q 755 82 750 85 q 760 71 760 79 q 737 10 760 33 q 679 -14 714 -14 q 592 164 592 -14 q 333 -14 489 -14 q 161 68 222 -14 q 100 271 100 153 l 108 481 q 97 584 108 524 q 86 660 86 644 q 103 692 86 675 q 146 708 121 708 q 210 594 210 708 m 300 1007 q 357 940 357 1007 q 337 883 357 910 q 289 856 317 856 q 231 926 231 856 q 251 983 231 960 q 300 1007 271 1007 m 522 1007 q 579 940 579 1007 q 559 883 579 910 q 511 856 539 856 q 453 926 453 856 q 473 983 453 960 q 522 1007 493 1007 z "},"":{"ha":789,"x_min":86,"x_max":694,"o":"m 582 336 l 578 638 q 631 708 578 708 q 694 604 694 708 q 665 336 694 522 q 682 83 682 167 q 592 -209 682 -99 q 343 -319 503 -319 q 182 -284 260 -319 q 104 -213 104 -249 q 136 -178 104 -178 q 213 -203 150 -178 q 343 -229 275 -229 q 527 -147 458 -229 q 596 69 596 -64 q 592 164 596 118 q 333 -14 489 -14 q 161 68 222 -14 q 100 271 100 153 l 108 481 q 97 584 108 524 q 86 660 86 644 q 103 692 86 675 q 146 708 121 708 q 210 594 210 708 l 199 289 q 240 135 199 193 q 351 76 281 76 q 489 156 422 76 q 582 336 554 236 m 542 1003 q 478 883 542 943 q 377 822 414 822 q 340 853 340 822 q 356 887 340 871 q 394 932 371 903 q 421 984 406 949 q 452 1038 436 1019 q 492 1056 468 1056 q 528 1040 515 1056 q 542 1003 542 1025 z "},"":{"ha":789,"x_min":75,"x_max":724,"o":"m 440 618 q 200 378 294 618 l 200 157 q 397 76 282 76 q 553 158 486 76 q 621 350 621 239 q 573 540 621 461 q 440 618 525 618 m 200 54 q 197 -122 197 -51 q 196 -225 197 -192 q 183 -297 193 -282 q 141 -319 171 -319 q 93 -296 111 -319 q 75 -218 75 -272 q 79 -115 75 -164 l 96 50 q 114 238 113 210 l 114 264 l 115 317 l 115 339 q 102 712 115 446 q 89 998 89 978 q 103 1038 89 1018 q 134 1057 118 1057 q 164 1050 150 1057 q 197 996 197 1035 q 197 986 197 990 l 197 529 q 303 664 246 619 q 450 708 361 708 q 603 650 539 708 q 724 363 724 543 q 632 99 724 211 q 397 -14 540 -14 q 200 54 293 -14 z "},"":{"ha":789,"x_min":86,"x_max":694,"o":"m 582 336 l 578 638 q 631 708 578 708 q 694 604 694 708 q 665 336 694 522 q 682 83 682 167 q 592 -209 682 -99 q 343 -319 503 -319 q 182 -284 260 -319 q 104 -213 104 -249 q 136 -178 104 -178 q 213 -203 150 -178 q 343 -229 275 -229 q 527 -147 458 -229 q 596 69 596 -64 q 592 164 596 118 q 333 -14 489 -14 q 161 68 222 -14 q 100 271 100 153 l 108 481 q 97 584 108 524 q 86 660 86 644 q 103 692 86 675 q 146 708 121 708 q 210 594 210 708 l 199 289 q 240 135 199 193 q 351 76 281 76 q 489 156 422 76 q 582 336 554 236 m 303 1007 q 360 940 360 1007 q 340 883 360 910 q 292 856 319 856 q 233 926 233 856 q 253 983 233 960 q 303 1007 274 1007 m 525 1007 q 582 940 582 1007 q 562 883 582 910 q 514 856 542 856 q 456 926 456 856 q 476 983 456 960 q 525 1007 496 1007 z "},"":{"ha":1042,"x_min":24,"x_max":1018,"o":"m 521 847 l 278 846 q 275 540 275 688 q 435 519 336 519 q 765 656 657 519 l 763 846 q 521 847 689 847 m 168 57 l 174 464 q 82 551 82 494 q 94 588 82 575 q 123 600 107 600 q 172 578 139 600 l 172 843 l 81 843 q 40 856 56 843 q 24 890 24 869 q 40 922 24 910 q 92 935 56 935 q 168 933 129 935 l 168 985 q 185 1035 168 1015 q 225 1056 201 1056 q 265 1035 249 1056 q 282 985 282 1015 q 281 932 282 956 q 520 931 356 931 q 758 932 685 931 l 758 985 q 774 1036 758 1017 q 814 1056 789 1056 q 853 1044 839 1056 q 875 1014 868 1033 q 885 933 885 979 q 952 935 918 935 q 1002 922 986 935 q 1018 889 1018 910 q 1002 856 1018 868 q 961 843 986 843 l 885 843 q 863 607 876 706 l 872 57 q 856 6 872 26 q 815 -14 839 -14 q 775 6 792 -14 q 758 57 758 26 l 767 479 l 767 524 q 617 453 710 479 q 433 426 525 426 q 275 440 340 426 l 282 57 q 265 6 282 26 q 225 -14 249 -14 q 185 6 201 -14 q 168 57 168 26 z "},"":{"ha":801,"x_min":-31,"x_max":751,"o":"m 17 922 l 96 919 q 96 976 96 935 q 110 1038 96 1018 q 140 1057 124 1057 q 169 1050 156 1057 q 203 996 203 1035 q 203 986 203 990 l 203 918 l 379 922 q 386 922 383 922 q 426 906 415 922 q 436 876 436 889 q 426 847 436 864 q 386 831 415 831 q 379 831 383 831 l 203 835 l 203 532 q 453 708 304 708 q 626 628 565 708 q 686 438 686 549 l 679 219 l 679 160 q 707 92 682 103 q 729 87 717 89 q 747 82 742 85 q 751 71 751 79 q 728 10 751 35 q 675 -14 706 -14 q 603 26 624 -14 q 582 150 582 67 l 588 406 q 547 559 588 501 q 435 617 506 617 q 298 538 364 617 q 204 358 232 460 l 208 57 q 156 -14 208 -14 q 92 81 92 -14 q 119 358 92 176 q 100 833 119 471 l 17 831 q -15 844 0 831 q -31 877 -31 857 q -15 910 -31 897 q 17 922 1 922 z "},"":{"ha":831,"x_min":51,"x_max":775,"o":"m 676 617 l 675 382 q 577 78 675 176 q 340 -21 479 -21 q 125 60 200 -21 q 51 242 51 142 q 115 406 51 343 q 263 469 179 469 q 394 417 346 469 q 443 288 443 364 q 392 176 443 211 q 364 167 375 167 q 346 188 343 167 q 350 203 346 189 q 358 278 358 242 q 329 345 358 314 q 256 376 300 376 q 181 341 211 376 q 151 245 151 306 q 196 129 151 185 q 329 76 242 76 q 510 153 444 76 q 575 369 575 231 l 576 617 q 574 932 576 810 q 436 919 492 919 q 136 1007 136 919 q 189 1056 136 1056 q 280 1038 196 1056 q 436 1021 364 1021 q 608 1038 508 1021 q 717 1056 707 1056 q 775 1009 775 1056 q 679 946 775 963 q 676 617 676 815 m 688 1253 q 652 1170 688 1206 q 569 1135 617 1135 q 455 1173 521 1135 q 365 1211 389 1211 q 324 1199 342 1211 q 301 1180 306 1186 q 276 1147 296 1174 q 244 1126 258 1126 q 221 1131 231 1126 q 192 1185 192 1144 q 236 1262 192 1225 q 339 1299 281 1299 q 468 1260 397 1299 q 569 1221 539 1221 q 623 1256 600 1221 q 658 1292 646 1292 q 679 1280 671 1292 q 688 1253 688 1268 z "},"":{"ha":311,"x_min":-92,"x_max":404,"o":"m 208 639 l 201 347 l 208 56 q 156 -14 208 -14 q 103 56 103 -14 l 110 347 q 103 639 107 444 q 156 708 103 708 q 208 639 208 708 m 404 947 q 369 865 404 900 q 285 829 333 829 q 172 867 238 829 q 82 906 106 906 q 40 893 58 906 q 17 874 22 881 q -7 842 13 868 q -39 821 -25 821 q -62 825 -53 821 q -92 879 -92 839 q -47 956 -92 919 q 56 993 -3 993 q 185 954 114 993 q 286 915 256 915 q 340 951 317 915 q 375 986 363 986 q 396 974 388 986 q 404 947 404 963 z "},"":{"ha":831,"x_min":51,"x_max":775,"o":"m 468 1326 q 525 1260 525 1326 q 505 1202 525 1229 q 457 1175 485 1175 q 399 1246 399 1175 q 419 1303 399 1279 q 468 1326 439 1326 m 676 617 l 675 382 q 577 78 675 176 q 340 -21 479 -21 q 125 60 200 -21 q 51 242 51 142 q 115 406 51 343 q 263 469 179 469 q 394 417 346 469 q 443 288 443 364 q 392 176 443 211 q 364 167 375 167 q 346 188 343 167 q 350 203 346 189 q 358 278 358 242 q 329 345 358 314 q 256 376 300 376 q 181 341 211 376 q 151 245 151 306 q 196 129 151 185 q 329 76 242 76 q 510 153 444 76 q 575 369 575 231 l 576 617 q 574 932 576 810 q 436 919 492 919 q 136 1007 136 919 q 189 1056 136 1056 q 280 1038 196 1056 q 436 1021 364 1021 q 608 1038 508 1021 q 717 1056 707 1056 q 775 1009 775 1056 q 679 946 775 963 q 676 617 676 815 z "},"":{"ha":311,"x_min":103,"x_max":208,"o":"m 208 639 l 201 347 l 208 56 q 156 -14 208 -14 q 103 56 103 -14 l 110 347 q 103 639 107 444 q 156 708 103 708 q 208 639 208 708 z "},"":{"ha":1522,"x_min":51,"x_max":1460,"o":"m 1361 674 l 1360 331 l 1360 104 q 1266 -219 1360 -112 q 1031 -326 1172 -326 q 811 -237 890 -326 q 733 -37 733 -147 q 800 145 733 72 q 954 218 867 218 q 1094 165 1042 218 q 1146 36 1146 113 q 1093 -75 1146 -40 q 1067 -85 1076 -85 q 1049 -64 1046 -85 q 1053 -47 1049 -62 q 1061 27 1061 -10 q 1031 95 1061 64 q 951 126 1000 126 q 868 78 903 126 q 833 -42 833 31 q 885 -174 833 -115 q 1025 -232 936 -232 q 1200 -142 1138 -232 q 1263 106 1263 -53 q 1260 675 1263 485 q 1258 933 1258 865 q 1121 921 1178 921 q 821 1008 821 921 q 874 1057 821 1057 q 965 1040 881 1057 q 1121 1022 1049 1022 q 1292 1040 1193 1022 q 1401 1057 1392 1057 q 1460 1010 1460 1057 q 1364 947 1460 964 l 1364 928 l 1361 674 m 676 617 l 675 382 q 577 78 675 176 q 340 -21 479 -21 q 125 60 200 -21 q 51 242 51 142 q 115 406 51 343 q 263 469 179 469 q 394 417 346 469 q 443 288 443 364 q 392 176 443 211 q 364 167 375 167 q 346 188 343 167 q 350 203 346 189 q 358 278 358 242 q 329 345 358 314 q 256 376 300 376 q 181 341 211 376 q 151 245 151 306 q 196 129 151 185 q 329 76 242 76 q 510 153 444 76 q 575 369 575 231 l 576 617 q 574 932 576 810 q 436 919 492 919 q 136 1007 136 919 q 189 1056 136 1056 q 280 1038 196 1056 q 436 1021 364 1021 q 608 1038 508 1021 q 717 1056 707 1056 q 775 1009 775 1056 q 679 946 775 963 q 676 617 676 815 z "},"":{"ha":646,"x_min":93,"x_max":556,"o":"m 163 1007 q 219 940 219 1007 q 199 883 219 910 q 151 856 179 856 q 93 926 93 856 q 113 983 93 960 q 163 1007 133 1007 m 208 639 l 201 347 l 208 56 q 156 -14 208 -14 q 103 56 103 -14 l 110 347 l 103 639 q 156 708 103 708 q 208 639 208 708 m 499 1007 q 556 940 556 1007 q 535 883 556 910 q 488 856 515 856 q 429 926 429 856 q 449 983 429 960 q 499 1007 469 1007 m 544 639 l 538 319 l 536 14 q 476 -184 536 -106 q 364 -262 415 -262 q 326 -236 326 -262 q 386 -158 326 -217 q 429 -85 411 -135 q 447 28 447 -35 l 446 319 l 439 639 q 492 708 439 708 q 544 639 544 708 z "},"":{"ha":800,"x_min":11,"x_max":738,"o":"m 639 674 l 638 331 l 638 104 q 544 -219 638 -112 q 309 -326 450 -326 q 89 -237 168 -326 q 11 -37 11 -147 q 78 145 11 72 q 233 218 144 218 q 372 165 321 218 q 424 36 424 113 q 371 -75 424 -40 q 344 -85 354 -85 q 326 -64 324 -85 q 331 -47 326 -62 q 339 27 339 -10 q 308 95 339 64 q 229 126 278 126 q 146 78 181 126 q 111 -42 111 31 q 163 -174 111 -115 q 303 -232 214 -232 q 478 -142 415 -232 q 540 106 540 -53 q 538 675 540 485 q 536 933 536 865 q 399 921 456 921 q 99 1008 99 921 q 151 1057 99 1057 q 242 1040 158 1057 q 398 1022 325 1022 q 570 1040 471 1022 q 679 1057 669 1057 q 738 1010 738 1057 q 642 947 738 964 l 642 928 l 639 674 m 492 1199 q 415 1265 436 1265 q 338 1199 394 1265 q 309 1163 333 1196 q 262 1129 285 1129 q 225 1140 239 1129 q 211 1172 211 1156 q 224 1201 211 1189 q 254 1229 236 1214 q 332 1311 306 1272 q 372 1356 357 1343 q 414 1368 389 1368 q 455 1356 439 1368 q 498 1310 471 1344 q 539 1263 525 1276 q 572 1233 553 1249 q 611 1192 606 1206 q 617 1175 617 1185 q 613 1153 617 1165 q 574 1129 603 1129 q 564 1129 571 1129 q 542 1142 557 1129 q 510 1176 526 1154 q 492 1199 494 1197 z "},"":{"ha":310,"x_min":-47,"x_max":358,"o":"m 208 639 l 201 319 l 200 14 q 140 -184 200 -106 q 28 -262 79 -262 q -10 -236 -10 -262 q 50 -158 -10 -217 q 93 -85 75 -135 q 111 28 111 -35 l 110 319 l 103 639 q 156 708 103 708 q 208 639 208 708 m 232 886 q 154 953 175 953 q 78 886 133 953 q 49 850 74 883 q 2 817 25 817 q -35 828 -21 817 q -47 854 -47 844 q -28 896 -47 881 q 12 931 -25 899 q 72 999 49 964 q 113 1043 97 1031 q 154 1056 129 1056 q 195 1044 179 1056 q 238 998 211 1032 q 279 950 265 964 q 313 919 293 936 q 351 879 346 893 q 357 861 357 871 q 353 840 357 851 q 314 817 343 817 q 304 817 311 817 q 282 829 297 817 q 251 863 267 842 q 232 886 235 885 z "},"":{"ha":981,"x_min":58,"x_max":979,"o":"m 497 -137 q 444 -262 497 -197 q 356 -326 390 -326 q 333 -318 342 -326 q 323 -301 324 -310 q 328 -279 322 -292 q 346 -247 333 -267 q 365 -212 358 -226 q 381 -158 371 -199 q 405 -96 390 -117 q 436 -75 419 -75 q 465 -81 453 -75 q 499 -128 499 -96 q 497 -137 499 -132 m 331 607 l 332 485 q 464 524 421 493 q 331 607 418 592 m 236 493 l 236 613 q 176 591 199 607 q 154 554 154 575 q 236 493 154 513 m 229 47 l 233 393 q 105 455 151 410 q 58 558 58 500 q 106 661 58 617 q 233 715 153 706 l 226 985 q 242 1036 226 1017 q 283 1056 257 1056 q 325 1036 310 1056 q 340 991 340 1017 q 333 711 340 965 q 542 592 469 688 q 656 774 608 667 q 721 994 704 882 q 778 1056 732 1056 q 812 1042 799 1056 q 825 1004 825 1028 q 756 757 825 906 q 597 511 686 608 q 821 90 736 226 q 944 -6 878 -1 l 956 -6 q 979 -12 979 -6 l 979 -19 q 955 -87 979 -61 q 897 -112 931 -112 q 841 -99 864 -112 q 809 -75 818 -85 q 781 -42 800 -65 q 663 151 740 4 l 513 446 q 333 389 433 401 l 343 57 q 343 47 343 51 q 317 -6 343 11 q 286 -14 301 -14 l 256 -6 q 229 47 229 11 z "},"":{"ha":708,"x_min":92,"x_max":661,"o":"m 394 -137 q 341 -262 394 -197 q 253 -326 288 -326 q 230 -318 239 -326 q 221 -301 221 -310 q 227 -280 221 -292 q 244 -249 233 -268 q 277 -162 267 -207 q 302 -96 288 -117 q 333 -75 317 -75 q 363 -81 350 -75 q 396 -128 396 -96 q 394 -137 396 -132 m 204 358 l 208 57 q 156 -14 208 -14 q 92 81 92 -14 q 119 358 92 176 q 107 715 119 453 q 94 997 94 976 q 109 1038 94 1018 q 140 1057 124 1057 q 169 1050 156 1057 q 203 996 203 1035 q 203 986 203 990 l 203 532 q 453 708 304 708 q 581 662 532 708 q 631 546 631 615 q 513 351 631 432 l 444 307 l 547 149 q 588 104 565 119 q 627 87 611 89 q 653 82 643 85 q 661 71 663 79 q 640 12 661 38 q 590 -14 619 -14 q 568 -14 585 -14 q 482 71 533 -14 q 478 78 481 75 q 428 159 476 81 q 351 276 379 238 q 292 296 315 276 q 268 351 268 315 q 308 404 268 388 q 331 408 319 408 q 399 374 363 408 q 492 446 451 397 q 533 533 533 494 q 447 617 533 617 q 300 539 369 617 q 204 358 231 461 z "},"":{"ha":701,"x_min":103,"x_max":669,"o":"m 201 303 l 208 56 q 156 -14 208 -14 q 103 56 103 -14 l 110 347 l 103 639 q 156 708 103 708 q 208 639 208 708 q 205 538 208 631 q 201 413 201 444 q 298 432 257 432 q 361 429 339 432 q 453 531 413 463 q 515 660 494 600 q 569 708 531 708 q 601 694 588 708 q 614 663 614 681 q 556 516 614 607 q 429 364 499 425 l 556 150 q 647 86 590 96 q 665 81 660 83 q 669 72 671 78 q 648 13 669 39 q 598 -12 626 -12 q 545 1 569 -12 q 466 110 521 15 q 347 311 411 206 q 258 297 314 297 l 201 303 z "},"":{"ha":863,"x_min":49,"x_max":815,"o":"m 456 654 q 466 667 456 654 q 506 681 476 681 q 551 660 535 681 q 567 605 567 639 q 546 544 567 571 q 497 518 525 518 q 453 540 469 518 q 436 594 436 561 q 456 654 436 628 m 222 18 q 125 -12 157 -12 q 71 10 93 -12 q 49 67 49 33 q 69 122 49 100 q 117 146 90 146 q 176 136 143 146 q 204 531 204 228 q 186 840 204 690 q 168 1008 168 990 q 183 1042 168 1025 q 222 1058 199 1058 q 283 988 272 1058 q 304 534 304 836 q 275 107 304 232 q 508 76 371 76 q 652 116 592 76 q 713 221 713 156 q 692 276 713 253 q 643 299 672 299 q 578 244 589 299 q 538 190 564 190 q 508 213 521 190 q 496 261 496 235 q 538 351 496 313 q 646 390 581 390 q 763 344 711 390 q 815 221 815 299 q 725 47 815 111 q 501 -21 629 -21 q 222 18 374 -21 z "},"":{"ha":469,"x_min":103,"x_max":450,"o":"m 208 986 l 201 521 l 208 56 q 156 -14 208 -14 q 103 56 103 -14 l 110 521 l 103 986 q 156 1056 103 1056 q 208 986 208 1056 m 340 585 q 350 598 340 585 q 389 611 360 611 q 434 590 418 611 q 450 535 450 569 q 429 475 450 501 q 381 449 408 449 q 336 470 353 449 q 319 525 319 492 q 340 585 319 558 z "},"":{"ha":863,"x_min":49,"x_max":815,"o":"m 303 625 l 304 531 q 275 107 304 232 q 508 76 372 76 q 652 116 592 76 q 713 221 713 156 q 692 276 713 253 q 643 299 672 299 q 598 282 614 299 q 578 244 582 265 q 538 190 564 190 q 508 213 519 190 q 496 261 496 235 q 538 351 496 311 q 644 390 579 390 q 763 344 710 390 q 815 221 815 299 q 722 45 815 111 q 508 -21 628 -21 q 222 18 389 -21 q 124 -12 156 -12 q 71 10 93 -12 q 49 67 49 33 q 69 124 49 101 q 114 146 90 146 q 176 136 138 146 q 203 539 203 222 l 144 486 q 105 469 124 469 q 74 482 86 469 q 61 515 61 494 q 85 557 61 536 q 133 595 92 564 q 203 650 174 626 q 183 870 199 754 q 168 1006 168 986 q 183 1042 168 1025 q 222 1058 199 1058 q 285 981 274 1058 q 301 728 296 903 l 397 819 q 437 836 418 836 q 468 824 456 836 q 481 790 481 811 q 457 749 481 769 q 399 703 456 749 q 303 625 342 658 z "},"":{"ha":356,"x_min":1,"x_max":422,"o":"m 25 531 l 136 618 l 129 986 q 182 1056 129 1056 q 235 986 235 1056 q 233 935 235 961 l 228 696 l 293 753 q 358 806 349 803 q 376 810 368 810 q 418 782 407 810 q 421 760 421 775 q 397 722 421 746 l 336 674 q 228 586 261 615 l 228 521 q 231 175 228 250 q 235 56 235 63 q 182 -14 235 -14 q 129 56 129 -14 q 133 175 129 88 q 136 506 136 263 l 85 460 q 54 443 67 443 q 3 483 3 443 q 25 531 3 506 z "},"":{"ha":1219,"x_min":43,"x_max":1186,"o":"m 221 -11 q 91 48 139 -11 q 43 183 43 107 q 95 320 43 260 q 219 381 147 381 q 270 366 250 381 q 290 324 290 351 q 224 272 290 272 q 171 247 193 272 q 149 183 149 221 q 169 120 149 144 q 228 96 190 96 q 357 496 357 96 q 335 783 357 606 q 313 991 313 961 q 332 1039 313 1021 q 378 1057 351 1057 q 440 1008 417 1057 q 654 618 515 863 q 894 213 793 374 q 881 406 889 213 q 874 661 874 600 q 904 924 874 815 q 963 1022 922 986 q 1058 1057 1004 1057 q 1149 1028 1111 1057 q 1186 963 1186 1000 q 1154 925 1186 925 q 1114 938 1144 925 q 1060 950 1083 950 q 972 549 972 950 q 988 260 972 454 q 1003 43 1003 65 q 984 3 1003 21 q 940 -15 965 -15 q 875 33 903 -15 q 717 310 806 157 l 540 625 q 435 811 464 767 q 454 463 454 628 q 221 -11 454 -11 m 857 1294 q 793 1174 857 1235 q 693 1114 729 1114 q 656 1144 657 1114 q 670 1178 656 1163 q 710 1224 685 1194 q 736 1276 721 1240 q 767 1329 751 1311 q 807 1347 783 1347 q 844 1332 831 1347 q 857 1294 857 1317 z "},"":{"ha":804,"x_min":94,"x_max":754,"o":"m 689 438 l 682 219 l 682 160 q 710 92 685 103 q 732 87 719 89 q 749 82 744 85 q 754 71 754 79 q 731 10 754 35 q 678 -14 708 -14 q 606 26 626 -14 q 585 150 585 67 l 590 406 q 549 559 590 501 q 438 617 508 617 q 301 538 367 617 q 207 358 235 460 l 211 57 q 158 -14 211 -14 q 94 81 94 -14 q 122 358 94 176 q 110 522 122 417 q 99 650 99 628 q 114 690 99 672 q 153 708 129 708 q 192 690 176 708 q 207 651 207 672 q 206 589 207 631 q 206 532 206 547 q 456 708 307 708 q 628 628 567 708 q 689 438 689 549 m 556 1003 q 492 883 556 943 q 391 822 428 822 q 354 853 354 822 q 369 887 354 871 q 408 932 385 903 q 435 984 419 949 q 466 1038 450 1019 q 506 1056 482 1056 q 542 1040 529 1056 q 556 1003 556 1025 z "},"":{"ha":1375,"x_min":76,"x_max":1313,"o":"m 775 -7 l 542 -18 q 212 133 347 -18 q 76 522 76 285 q 96 677 76 614 q 157 740 115 740 q 189 727 176 740 q 201 694 201 714 q 192 628 201 674 q 183 522 183 582 q 290 199 183 318 q 540 81 397 81 q 778 214 683 81 q 874 520 874 347 q 790 827 874 693 q 610 961 707 961 q 449 892 514 961 q 358 728 383 822 q 333 543 333 633 q 341 408 333 453 q 349 350 349 364 q 317 315 349 315 q 265 385 289 315 q 242 549 242 456 q 263 733 242 642 q 326 899 283 824 q 442 1019 368 975 q 613 1063 515 1063 l 767 1049 l 1035 1042 l 1243 1049 q 1313 996 1313 1049 q 1243 943 1313 943 l 1035 950 q 832 944 878 950 q 981 601 957 815 q 1173 608 1147 608 q 1217 594 1199 608 q 1236 554 1236 579 q 1167 503 1236 503 q 986 508 1164 503 q 943 277 985 385 q 831 96 901 169 q 1018 92 904 92 l 1243 99 q 1313 46 1313 99 q 1243 -7 1313 -7 l 1018 0 l 775 -7 z "},"":{"ha":1261,"x_min":64,"x_max":1193,"o":"m 893 286 q 717 307 821 286 q 790 139 725 208 q 940 69 854 69 q 1082 112 1026 69 q 1155 154 1138 154 q 1183 144 1172 154 q 1193 118 1193 133 q 1113 29 1193 79 q 940 -21 1033 -21 q 665 147 754 -21 q 550 24 622 68 q 390 -21 478 -21 q 156 85 247 -21 q 64 346 64 192 q 157 608 64 500 q 389 715 250 715 q 555 669 481 715 q 671 540 629 622 q 953 715 769 715 q 1123 653 1053 715 q 1193 490 1193 590 q 1107 338 1193 389 q 893 286 1021 286 m 163 346 q 163 288 163 346 q 226 150 163 231 q 387 69 290 69 q 551 151 483 69 q 618 347 618 232 q 553 544 618 463 q 394 625 489 625 q 229 543 299 625 q 163 346 163 461 m 953 625 q 799 556 861 625 q 718 396 738 488 q 887 374 793 374 q 1038 406 981 374 q 1094 493 1094 438 q 1056 587 1094 549 q 953 625 1018 625 z "},"":{"ha":1026,"x_min":58,"x_max":993,"o":"m 328 933 q 333 660 328 854 q 485 606 413 651 q 601 497 558 560 q 710 605 669 539 q 750 740 750 671 q 669 905 750 844 q 469 965 589 965 q 328 933 404 965 m 332 569 l 332 439 q 411 436 364 436 q 506 454 458 436 q 332 569 446 543 m 236 449 l 236 575 q 154 520 154 564 q 236 449 154 476 m 969 -8 q 993 -15 993 -8 l 993 -22 q 969 -87 993 -58 q 919 -115 944 -115 q 864 -99 894 -115 q 784 -14 833 -82 q 683 153 735 54 l 556 376 q 379 346 469 346 q 333 347 343 346 l 342 57 q 326 6 342 25 q 285 -14 311 -14 q 243 6 258 -14 q 228 76 228 25 q 233 358 228 126 q 103 421 147 378 q 58 519 58 464 q 108 617 58 575 q 233 665 157 658 l 222 942 q 271 1025 222 1001 q 471 1063 354 1063 q 749 971 640 1063 q 858 743 858 879 q 802 559 858 647 q 651 417 746 471 q 835 93 808 133 q 958 -8 899 -4 l 969 -8 m 635 1294 q 571 1174 635 1235 q 471 1114 507 1114 q 433 1144 435 1114 q 448 1178 433 1163 q 488 1224 463 1194 q 514 1276 499 1240 q 545 1329 529 1311 q 585 1347 561 1347 q 622 1332 608 1347 q 635 1294 635 1317 z "},"":{"ha":1026,"x_min":58,"x_max":993,"o":"m 328 933 q 333 660 328 854 q 485 606 413 651 q 601 497 558 560 q 710 605 669 539 q 750 740 750 671 q 669 905 750 844 q 469 965 589 965 q 328 933 404 965 m 332 569 l 332 439 q 411 436 364 436 q 506 454 458 436 q 332 569 446 543 m 236 449 l 236 575 q 154 520 154 564 q 236 449 154 476 m 969 -8 q 993 -15 993 -8 l 993 -22 q 969 -87 993 -58 q 919 -115 944 -115 q 864 -99 894 -115 q 784 -14 833 -82 q 683 153 735 54 l 556 376 q 379 346 469 346 q 333 347 343 346 l 342 57 q 326 6 342 25 q 285 -14 311 -14 q 243 6 258 -14 q 228 76 228 25 q 233 358 228 126 q 103 421 147 378 q 58 519 58 464 q 108 617 58 575 q 233 665 157 658 l 222 942 q 271 1025 222 1001 q 471 1063 354 1063 q 749 971 640 1063 q 858 743 858 879 q 802 559 858 647 q 651 417 746 471 q 835 93 808 133 q 958 -8 899 -4 l 969 -8 m 469 -137 q 416 -262 469 -197 q 328 -326 363 -326 q 305 -318 314 -326 q 296 -301 296 -310 q 302 -280 296 -292 q 319 -249 308 -268 q 352 -162 342 -207 q 377 -96 363 -117 q 408 -75 392 -75 q 438 -81 425 -75 q 471 -128 471 -96 q 469 -137 471 -132 z "},"":{"ha":567,"x_min":25,"x_max":544,"o":"m 199 -137 q 145 -262 199 -197 q 57 -326 92 -326 q 34 -318 43 -326 q 25 -301 25 -310 q 31 -280 25 -292 q 47 -249 38 -268 q 81 -162 71 -207 q 106 -96 92 -117 q 138 -75 121 -75 q 167 -81 154 -75 q 200 -128 200 -96 q 199 -137 200 -132 m 207 318 l 211 57 q 158 -14 211 -14 q 94 81 94 -14 q 122 358 94 176 q 110 522 122 417 q 99 649 99 626 q 114 690 99 671 q 153 708 129 708 q 192 690 176 708 q 207 651 207 671 q 206 589 207 632 q 206 529 206 546 q 292 654 232 599 q 413 708 353 708 q 509 684 474 708 q 544 629 544 660 q 529 582 544 599 q 490 565 514 565 q 436 590 465 565 q 392 617 410 617 q 285 517 346 617 q 207 318 224 418 z "},"":{"ha":1026,"x_min":58,"x_max":993,"o":"m 328 933 q 333 660 328 854 q 485 606 413 651 q 601 497 558 560 q 710 605 669 539 q 750 740 750 671 q 669 905 750 844 q 469 965 589 965 q 328 933 404 965 m 332 569 l 332 439 q 411 436 364 436 q 506 454 458 436 q 332 569 446 543 m 236 449 l 236 575 q 154 520 154 564 q 236 449 154 476 m 969 -8 q 993 -15 993 -8 l 993 -22 q 969 -87 993 -58 q 919 -115 944 -115 q 864 -99 894 -115 q 784 -14 833 -82 q 683 153 735 54 l 556 376 q 379 346 469 346 q 333 347 343 346 l 342 57 q 326 6 342 25 q 285 -14 311 -14 q 243 6 258 -14 q 228 76 228 25 q 233 358 228 126 q 103 421 147 378 q 58 519 58 464 q 108 617 58 575 q 233 665 157 658 l 222 942 q 271 1025 222 1001 q 471 1063 354 1063 q 749 971 640 1063 q 858 743 858 879 q 802 559 858 647 q 651 417 746 471 q 835 93 808 133 q 958 -8 899 -4 l 969 -8 m 306 1299 q 301 1305 306 1299 q 296 1324 296 1311 q 299 1344 296 1338 q 332 1369 310 1369 q 369 1359 354 1369 q 401 1324 383 1349 l 421 1300 q 498 1233 483 1233 q 575 1300 513 1233 l 593 1325 q 652 1369 629 1369 q 688 1358 675 1369 q 700 1327 700 1347 q 682 1289 700 1307 q 595 1205 636 1256 q 538 1142 554 1154 q 497 1131 522 1131 q 456 1143 472 1131 q 415 1188 440 1156 q 376 1234 390 1221 q 340 1267 363 1247 q 306 1299 317 1288 z "},"":{"ha":567,"x_min":94,"x_max":544,"o":"m 207 318 l 211 57 q 158 -14 211 -14 q 94 81 94 -14 q 122 358 94 176 q 110 522 122 417 q 99 649 99 626 q 114 690 99 671 q 153 708 129 708 q 192 690 176 708 q 207 651 207 671 q 206 589 207 632 q 206 529 206 546 q 292 654 232 599 q 413 708 353 708 q 509 684 474 708 q 544 629 544 660 q 529 582 544 599 q 490 565 514 565 q 436 590 465 565 q 392 617 410 617 q 285 517 346 617 q 207 318 224 418 m 119 985 q 114 991 119 985 q 108 1010 108 997 q 111 1031 108 1024 q 144 1056 122 1056 q 181 1045 167 1056 q 214 1010 196 1035 l 233 986 q 310 919 296 919 q 388 986 325 919 l 406 1011 q 465 1056 442 1056 q 500 1044 488 1056 q 513 1013 513 1033 q 494 975 513 993 q 408 891 449 942 q 351 828 367 840 q 310 817 335 817 q 268 829 285 817 q 228 874 253 842 q 189 920 203 907 q 152 953 175 933 q 119 985 129 974 z "},"":{"ha":810,"x_min":29,"x_max":772,"o":"m 29 990 q 79 1056 29 1056 q 107 1042 93 1056 q 127 1010 121 1029 q 144 948 133 992 q 172 849 156 904 q 303 586 219 690 q 390 529 349 529 q 421 535 411 529 q 581 1019 482 922 q 672 1061 622 1061 q 747 1030 721 1061 q 772 946 772 999 q 692 699 772 831 q 518 475 613 568 q 507 288 507 406 q 514 65 507 169 q 521 -61 521 -40 q 505 -100 521 -82 q 464 -118 489 -118 q 403 11 411 -118 q 401 129 401 44 q 418 431 401 214 q 382 428 401 428 q 253 481 311 428 q 142 649 196 535 q 59 856 89 763 q 29 990 29 950 m 663 961 q 581 817 633 961 q 522 603 528 672 q 626 768 575 664 q 678 932 678 872 q 663 961 678 961 m 296 1325 q 353 1258 353 1325 q 333 1201 353 1228 q 285 1174 313 1174 q 226 1244 226 1174 q 247 1301 226 1278 q 296 1325 267 1325 m 518 1325 q 575 1258 575 1325 q 555 1201 575 1228 q 507 1174 535 1174 q 449 1244 449 1174 q 469 1301 449 1278 q 518 1325 489 1325 z "},"":{"ha":571,"x_min":83,"x_max":489,"o":"m 363 886 q 285 953 306 953 q 208 886 264 953 q 180 850 204 883 q 133 817 156 817 q 96 828 110 817 q 83 856 83 840 q 95 890 83 878 q 125 917 107 901 q 203 999 176 960 q 243 1043 228 1031 q 285 1056 260 1056 q 326 1044 310 1056 q 369 998 342 1032 q 410 950 396 964 q 443 919 424 936 q 482 879 476 893 q 488 861 488 871 q 483 840 488 851 q 444 817 474 817 q 435 817 442 817 q 413 829 428 817 q 381 863 397 842 q 363 886 365 885 z "},"":{"ha":571,"x_min":82,"x_max":488,"o":"m 94 985 q 89 991 94 985 q 83 1010 83 997 q 86 1031 83 1024 q 119 1056 97 1056 q 156 1045 142 1056 q 189 1010 171 1035 l 208 986 q 285 919 271 919 q 363 986 300 919 l 381 1011 q 440 1056 417 1056 q 475 1044 463 1056 q 488 1013 488 1033 q 469 975 488 993 q 383 891 424 942 q 326 828 342 840 q 285 817 310 817 q 243 829 260 817 q 203 874 228 842 q 164 920 178 907 q 127 953 150 933 q 94 985 104 974 z "},"":{"ha":576,"x_min":83,"x_max":493,"o":"m 451 1056 q 493 1003 493 1056 q 435 890 493 950 q 288 831 376 831 q 140 889 199 831 q 83 1003 83 950 q 125 1056 83 1056 q 189 986 160 1056 q 226 938 199 958 q 288 918 253 918 q 349 938 322 918 q 388 986 375 958 q 451 1056 417 1056 z "},"":{"ha":265,"x_min":69,"x_max":196,"o":"m 139 1056 q 196 989 196 1056 q 176 931 196 958 q 128 904 156 904 q 69 975 69 904 q 90 1032 69 1008 q 139 1056 110 1056 z "},"":{"ha":253,"x_min":0,"x_max":253,"o":"m 36 1024 q 54 1043 36 1024 q 126 1063 72 1063 q 217 1024 181 1063 q 253 931 253 986 q 218 838 253 875 q 127 800 183 800 q 35 836 71 800 q 0 930 0 874 q 36 1024 0 986 m 83 885 q 92 875 83 885 q 126 865 101 865 q 169 885 151 865 q 188 931 188 906 q 169 977 188 957 q 126 997 150 997 q 84 977 103 997 q 65 931 65 957 q 83 885 65 906 z "},"":{"ha":493,"x_min":115,"x_max":432,"o":"m 432 -222 q 387 -287 432 -256 q 276 -319 342 -319 q 163 -280 211 -319 q 115 -176 115 -240 q 247 -8 115 -74 l 350 -8 q 208 -165 208 -79 q 258 -225 208 -212 q 292 -231 275 -231 l 358 -212 q 411 -195 403 -192 q 422 -201 419 -199 q 428 -212 425 -203 q 432 -222 431 -221 z "},"":{"ha":690,"x_min":97,"x_max":593,"o":"m 593 947 q 558 865 593 900 q 474 829 522 829 q 360 867 426 829 q 271 906 294 906 q 229 893 247 906 q 206 874 211 881 q 182 842 201 868 q 150 821 164 821 q 126 825 136 821 q 97 879 97 839 q 142 956 97 919 q 244 993 186 993 q 374 954 303 993 q 475 915 444 915 q 528 951 506 915 q 564 986 551 986 q 585 974 576 986 q 593 947 593 963 z "},"":{"ha":1151,"x_min":39,"x_max":1114,"o":"m 425 -8 l 261 0 l 106 -8 q 99 -8 101 -8 q 47 17 63 -8 q 39 44 39 31 q 47 72 39 58 q 99 99 63 99 q 106 99 101 99 l 261 92 q 325 93 311 92 q 136 525 136 282 q 267 856 136 718 q 577 993 397 993 q 887 858 757 993 q 1017 529 1017 722 q 828 92 1017 282 q 892 90 840 90 l 1047 97 q 1106 71 1089 97 q 1114 44 1114 58 q 1106 17 1114 31 q 1047 -10 1089 -10 l 892 -1 l 726 -10 q 713 -11 722 -11 q 687 5 704 -11 q 669 47 669 21 q 703 92 669 74 q 850 267 792 139 q 908 538 908 396 q 815 788 908 681 q 578 896 721 896 q 340 786 435 896 q 244 535 244 676 q 303 267 244 393 q 450 93 361 140 q 485 46 485 74 q 464 6 485 18 q 425 -8 446 -8 z "},"":{"ha":789,"x_min":92,"x_max":697,"o":"m 394 404 l 640 408 q 647 408 644 408 q 687 392 676 408 q 697 363 697 375 q 687 333 697 350 q 647 317 676 317 q 640 317 644 317 l 394 321 l 149 317 q 142 317 144 317 q 102 333 113 317 q 92 363 92 350 q 102 392 92 375 q 142 408 113 408 q 149 408 144 408 l 394 404 z "},"":{"ha":1178,"x_min":92,"x_max":1086,"o":"m 142 408 l 589 404 l 1029 408 q 1036 408 1033 408 q 1076 392 1065 408 q 1086 363 1086 375 q 1076 333 1086 350 q 1036 317 1065 317 q 1029 317 1033 317 l 589 321 l 149 317 q 142 317 144 317 q 102 333 113 317 q 92 363 92 350 q 102 392 92 375 q 142 408 113 408 z "},"":{"ha":303,"x_min":69,"x_max":243,"o":"m 192 846 l 200 744 q 181 687 200 713 q 131 661 161 661 q 85 682 101 661 q 69 731 69 703 q 118 918 69 825 q 215 1011 168 1011 q 235 1003 226 1011 q 243 985 243 996 q 217 932 243 975 q 192 846 192 889 z "},"":{"ha":304,"x_min":67,"x_max":240,"o":"m 118 826 l 110 928 q 129 985 110 960 q 178 1011 149 1011 q 224 991 208 1011 q 240 942 240 971 q 191 754 240 847 q 94 661 142 661 q 75 669 83 661 q 67 685 67 676 q 92 738 67 694 q 118 826 118 782 z "},"":{"ha":292,"x_min":78,"x_max":211,"o":"m 86 -158 l 90 -47 q 85 1 90 -31 q 79 47 79 32 q 80 76 79 61 q 101 117 81 92 q 142 142 122 142 q 175 136 161 142 q 211 81 211 118 q 210 68 211 75 q 178 -101 210 -15 q 114 -187 147 -187 q 86 -158 86 -187 z "},"":{"ha":528,"x_min":69,"x_max":468,"o":"m 417 846 l 425 744 q 406 687 425 713 q 356 661 386 661 q 310 682 326 661 q 294 731 294 703 q 343 918 294 825 q 440 1011 393 1011 q 460 1003 451 1011 q 468 985 468 996 q 442 932 468 975 q 417 846 417 889 m 192 846 l 200 744 q 181 687 200 713 q 131 661 161 661 q 85 682 101 661 q 69 731 69 703 q 118 918 69 825 q 215 1011 168 1011 q 235 1003 226 1011 q 243 985 243 996 q 217 932 243 975 q 192 846 192 889 z "},"":{"ha":529,"x_min":67,"x_max":465,"o":"m 118 826 l 110 928 q 129 985 110 960 q 178 1011 149 1011 q 224 991 208 1011 q 240 942 240 971 q 191 754 240 847 q 94 661 142 661 q 75 669 83 661 q 67 685 67 676 q 92 738 67 694 q 118 826 118 782 m 343 826 l 335 928 q 354 985 335 960 q 403 1011 374 1011 q 449 991 433 1011 q 465 942 465 971 q 416 754 465 847 q 319 661 367 661 q 300 669 308 661 q 292 685 292 676 q 317 738 292 694 q 343 826 343 782 z "},"":{"ha":542,"x_min":78,"x_max":461,"o":"m 86 -158 l 90 -47 q 85 1 90 -31 q 79 47 79 32 q 80 76 79 61 q 101 117 81 92 q 142 142 122 142 q 175 136 161 142 q 211 81 211 118 q 210 68 211 75 q 178 -101 210 -15 q 114 -187 147 -187 q 86 -158 86 -187 m 336 -158 l 340 -47 q 335 1 340 -31 q 329 47 329 32 q 330 76 329 61 q 351 117 331 92 q 392 142 372 142 q 425 136 411 142 q 461 81 461 118 q 460 68 461 75 q 428 -101 460 -15 q 364 -187 397 -187 q 336 -158 336 -187 z "},"":{"ha":731,"x_min":53,"x_max":675,"o":"m 404 694 l 618 699 q 625 699 622 699 q 665 682 654 699 q 675 653 675 665 q 665 624 675 640 q 625 607 654 607 q 585 607 622 607 q 403 611 549 607 l 403 411 q 406 19 403 175 q 410 -160 410 -136 q 396 -202 410 -183 q 360 -221 382 -221 q 324 -202 338 -221 q 310 -147 310 -183 q 313 0 310 -110 q 317 340 317 110 q 315 611 317 571 q 133 607 178 607 q 71 620 88 607 q 54 647 54 633 q 60 669 54 660 q 113 699 75 699 l 314 694 l 310 985 q 324 1036 310 1017 q 359 1056 338 1056 q 395 1037 381 1056 q 410 963 410 1018 q 404 694 410 907 z "},"":{"ha":760,"x_min":67,"x_max":690,"o":"m 689 272 q 610 226 689 226 q 418 231 564 226 l 425 -164 q 425 -172 425 -168 q 407 -222 425 -208 q 375 -235 389 -235 l 349 -225 q 325 -172 325 -208 q 325 -164 325 -168 l 331 231 q 147 226 193 226 q 85 240 101 226 q 68 266 68 253 q 74 289 68 279 q 126 318 89 318 l 332 314 l 332 411 q 331 611 332 571 q 148 607 193 607 q 86 620 103 607 q 69 647 69 633 q 75 669 69 660 q 128 699 90 699 l 329 694 l 325 985 q 339 1036 325 1017 q 374 1056 353 1056 q 410 1037 396 1056 q 425 963 425 1018 q 419 694 425 907 l 633 699 q 640 699 638 699 q 680 682 669 699 q 690 653 690 665 q 680 624 690 640 q 640 607 669 607 q 601 607 638 607 q 418 611 564 607 l 417 411 l 418 314 l 632 318 q 673 306 657 318 q 689 272 689 293 z "},"":{"ha":401,"x_min":71,"x_max":332,"o":"m 71 537 q 71 570 71 537 q 111 656 71 603 q 210 708 151 708 q 301 667 269 708 q 332 558 332 625 q 292 436 332 492 q 194 383 251 383 q 103 427 136 383 q 71 537 71 471 z "},"":{"ha":810,"x_min":78,"x_max":731,"o":"m 98 122 q 108 135 98 122 q 147 149 118 149 q 192 128 176 149 q 208 73 208 107 q 188 13 208 39 q 139 -14 167 -14 q 94 8 111 -14 q 78 63 78 29 q 98 122 78 96 m 359 122 q 369 135 359 122 q 408 149 379 149 q 453 128 438 149 q 469 73 469 107 q 449 13 469 39 q 400 -14 428 -14 q 356 8 372 -14 q 339 63 339 29 q 359 122 339 96 m 620 122 q 630 135 620 122 q 669 149 640 149 q 715 128 699 149 q 731 73 731 107 q 710 13 731 39 q 661 -14 689 -14 q 617 8 633 -14 q 600 63 600 29 q 620 122 600 96 z "},"":{"ha":1603,"x_min":68,"x_max":1539,"o":"m 1183 46 q 1128 218 1128 114 q 1186 391 1128 322 q 1335 460 1244 460 q 1483 393 1426 460 q 1539 222 1539 326 q 1481 48 1539 117 q 1331 -21 1422 -21 q 1183 46 1240 -21 m 1217 221 q 1217 185 1217 221 q 1248 104 1217 150 q 1333 58 1279 58 q 1418 103 1386 58 q 1450 218 1450 147 q 1419 335 1450 289 q 1334 381 1388 381 q 1249 336 1281 381 q 1217 221 1217 292 m 776 1049 q 815 976 815 1029 q 736 836 814 922 q 446 10 458 42 q 397 -21 433 -21 q 367 -8 379 -21 q 354 26 354 4 q 389 132 354 49 q 636 801 538 499 q 573 790 613 790 q 468 810 533 790 q 475 753 475 782 q 418 582 475 651 q 271 513 361 513 q 124 579 181 513 q 68 751 68 647 q 126 924 68 856 q 267 993 185 993 q 422 933 349 993 q 561 872 494 872 q 657 897 628 872 l 668 936 q 719 1046 693 1028 q 744 1058 729 1058 q 776 1049 758 1058 m 156 754 q 156 719 156 754 q 188 638 156 683 q 273 592 219 592 q 358 636 326 592 q 390 751 390 681 q 359 868 390 822 q 274 914 328 914 q 188 869 219 914 q 156 754 156 825 m 994 48 q 965 14 994 48 q 844 -21 936 -21 q 697 47 753 -21 q 642 218 642 114 q 700 391 642 322 q 849 460 758 460 q 997 393 940 460 q 1053 222 1053 326 q 994 48 1053 117 m 731 221 q 731 185 731 221 q 762 104 731 150 q 847 58 793 58 q 932 103 900 58 q 964 218 964 147 q 933 335 964 289 q 848 381 901 381 q 763 336 794 381 q 731 221 731 292 z "},"":{"ha":414,"x_min":61,"x_max":328,"o":"m 246 694 q 254 702 246 694 q 278 710 263 710 q 300 706 293 710 q 328 669 328 694 q 316 633 328 644 q 271 596 304 621 q 231 564 238 571 q 164 485 164 503 q 231 406 164 467 q 271 374 238 399 q 316 337 304 349 q 328 306 328 325 q 315 274 328 288 q 287 260 301 260 q 257 268 272 260 l 235 285 q 172 353 190 335 q 92 428 154 371 q 61 481 61 458 q 72 519 61 504 q 119 567 83 535 l 171 615 q 205 651 181 624 q 246 694 229 678 z "},"":{"ha":413,"x_min":86,"x_max":353,"o":"m 168 276 q 160 269 168 276 q 136 261 151 261 q 114 264 121 261 q 86 301 86 276 q 97 337 86 325 q 142 374 108 349 q 183 406 175 399 q 250 485 250 467 q 183 564 250 503 q 142 596 175 571 q 97 633 108 621 q 86 663 86 644 q 99 696 86 682 q 127 710 113 710 q 156 700 142 710 q 174 688 169 694 q 214 645 179 682 q 281 579 249 608 q 321 542 313 550 q 353 489 353 513 q 342 450 353 465 q 294 401 331 435 l 243 354 q 209 318 233 344 q 168 276 185 292 z "},"":{"ha":492,"x_min":21,"x_max":472,"o":"m 214 301 l 135 65 q 100 -6 115 8 q 71 -21 85 -21 q 21 25 21 -21 q 42 107 21 50 l 113 283 q 214 558 163 408 q 311 842 265 708 q 367 1006 357 975 q 431 1063 386 1063 q 460 1051 450 1058 q 471 1014 471 1044 q 450 935 471 983 l 379 758 q 214 301 293 553 z "},"":{"ha":893,"x_min":68,"x_max":808,"o":"m 128 442 l 374 438 l 619 442 q 626 442 624 442 q 666 425 656 442 q 676 396 676 408 q 666 367 676 383 q 626 350 656 350 q 619 350 624 350 l 374 354 q 290 353 308 354 q 382 144 315 221 q 542 68 449 68 q 691 114 635 68 q 767 160 747 160 q 797 148 786 160 q 808 118 808 136 q 731 27 808 75 q 550 -21 654 -21 q 317 82 411 -21 q 193 351 222 188 q 140 351 178 351 q 86 364 103 351 q 69 390 69 376 q 75 414 69 403 q 128 442 90 442 m 288 610 l 374 610 l 619 614 q 626 614 624 614 q 666 597 656 614 q 676 568 676 581 q 666 539 676 556 q 626 522 656 522 q 619 522 624 522 l 374 526 l 128 522 q 121 522 124 522 q 81 539 92 522 q 71 568 71 556 q 81 597 71 581 q 121 614 92 614 q 128 614 124 614 l 192 613 q 313 888 219 781 q 550 993 408 993 q 719 949 649 993 q 789 857 789 906 q 765 819 789 829 q 744 815 757 815 q 718 824 731 815 q 691 846 706 832 q 666 867 676 860 q 638 886 656 875 q 550 906 603 906 q 378 826 447 906 q 288 610 310 746 z "},"":{"ha":1201,"x_min":93,"x_max":1075,"o":"m 150 1047 l 293 1043 l 428 1049 q 472 1037 456 1049 q 488 1007 488 1025 q 428 965 488 965 l 335 968 q 331 760 331 872 l 335 518 q 293 465 335 465 q 251 518 251 465 l 256 760 q 251 969 256 919 l 150 965 q 93 1006 93 965 q 150 1047 93 1047 m 569 757 l 569 872 l 568 996 q 581 1033 568 1018 q 614 1049 593 1049 q 687 996 661 1049 q 828 683 713 943 q 908 865 857 739 q 979 1019 958 990 q 1024 1048 1000 1047 q 1060 1033 1047 1049 q 1074 986 1074 1018 q 1072 872 1074 954 l 1072 757 q 1075 517 1074 676 q 1035 465 1075 465 q 992 518 992 465 l 996 757 q 994 901 996 875 l 857 582 q 826 558 847 558 q 793 585 806 558 q 732 722 793 589 q 647 901 671 854 q 646 757 646 875 l 650 518 q 607 465 650 465 q 567 518 567 465 l 569 757 z "},"":{"ha":1131,"x_min":28,"x_max":1090,"o":"m 169 526 l 563 526 l 1019 533 q 1070 519 1050 533 q 1090 481 1090 504 q 1070 442 1090 457 q 1019 428 1050 428 l 563 435 l 169 435 l 282 340 q 385 253 329 300 q 460 188 442 207 q 479 142 479 169 q 450 103 479 115 q 425 100 442 100 q 379 122 408 100 q 247 247 310 185 q 119 368 185 310 l 56 426 q 28 481 28 453 q 56 535 28 508 l 119 592 q 240 707 171 638 q 379 839 310 776 q 425 861 408 861 q 479 813 479 861 q 450 761 479 789 q 417 733 440 753 l 169 526 z "},"":{"ha":797,"x_min":18,"x_max":779,"o":"m 360 6 q 346 57 346 25 q 349 176 346 89 q 353 514 353 264 l 353 907 l 200 725 q 107 617 126 636 q 60 597 88 597 q 22 628 33 597 q 18 653 18 636 q 40 697 18 669 q 165 829 103 767 q 286 957 228 892 l 344 1021 q 399 1047 372 1047 l 453 1021 l 510 957 q 625 836 556 906 q 757 697 694 767 q 779 653 779 669 q 731 597 779 597 q 681 626 707 597 q 651 660 671 636 l 444 907 l 444 514 q 448 191 444 315 q 451 47 451 67 q 437 7 451 28 q 399 -14 422 -14 q 360 6 375 -14 z "},"":{"ha":1131,"x_min":40,"x_max":1103,"o":"m 111 533 l 568 526 l 961 526 l 849 621 q 745 708 801 661 q 670 773 689 754 q 651 819 651 792 q 681 858 651 846 q 706 861 689 861 q 751 839 722 861 q 890 707 821 776 q 1011 592 960 638 l 1075 535 q 1103 481 1103 508 q 1075 426 1103 453 l 1011 368 q 883 246 972 333 q 751 122 793 158 q 706 100 722 100 q 651 149 651 100 q 681 200 651 172 q 714 228 690 208 l 961 435 l 568 435 l 111 428 q 60 442 81 428 q 40 481 40 457 q 60 519 40 504 q 111 533 81 533 z "},"":{"ha":797,"x_min":18,"x_max":779,"o":"m 349 860 l 346 988 q 360 1029 346 1010 q 399 1049 375 1049 q 437 1028 422 1049 q 451 977 451 1008 q 448 858 451 946 q 444 521 444 771 l 444 128 l 597 308 q 689 417 668 396 q 737 438 710 438 q 775 408 764 438 q 779 383 779 400 q 757 338 779 367 q 625 199 694 268 q 510 78 556 129 l 453 14 q 399 -14 425 -14 l 344 14 l 286 78 q 164 206 251 117 q 40 338 76 296 q 18 383 18 367 q 67 438 18 438 q 117 408 90 438 q 146 375 126 399 l 353 128 l 353 521 q 349 860 353 753 z "},"":{"ha":878,"x_min":108,"x_max":769,"o":"m 158 408 l 439 404 l 713 408 q 719 408 717 408 q 759 392 749 408 q 769 363 769 375 q 759 333 769 350 q 719 317 749 317 q 713 317 717 317 l 439 321 l 165 317 q 158 317 161 317 q 119 333 129 317 q 108 363 108 350 q 119 392 108 375 q 158 408 129 408 z "},"":{"ha":825,"x_min":108,"x_max":717,"o":"m 108 422 q 168 507 108 468 q 297 549 228 549 q 444 508 367 549 q 553 467 521 467 q 603 479 586 467 q 636 506 619 492 q 681 536 668 536 q 713 500 713 536 q 663 422 713 464 q 559 381 613 381 q 431 421 506 381 q 316 461 357 461 q 233 421 275 461 q 160 376 189 376 q 119 390 131 376 q 108 422 108 404 m 113 208 q 172 293 113 254 q 301 335 233 335 q 447 294 369 335 q 557 253 525 253 q 606 265 589 253 q 639 292 624 278 q 685 322 672 322 q 717 286 717 322 q 667 208 717 250 q 563 167 617 167 q 435 207 510 167 q 320 247 361 247 q 239 207 279 247 q 164 163 193 163 q 124 176 135 163 q 113 208 113 190 z "},"":{"ha":775,"x_min":85,"x_max":690,"o":"m 639 417 l 481 419 l 400 304 l 633 308 q 640 308 638 308 q 680 292 669 308 q 690 263 690 275 q 680 233 690 250 q 640 217 669 217 q 633 217 638 217 l 344 221 l 263 92 q 217 60 243 60 q 181 73 192 60 q 169 104 169 86 q 185 144 169 122 l 242 218 l 142 217 q 101 229 117 217 q 85 263 85 242 q 151 308 85 308 q 299 304 186 308 l 376 421 l 142 417 q 135 417 138 417 q 95 433 106 417 q 85 463 85 450 q 95 492 85 475 q 135 508 106 508 q 142 508 138 508 l 431 504 l 510 628 q 558 657 535 657 q 572 654 565 657 q 601 617 601 643 q 593 579 601 592 l 538 506 l 639 508 q 675 495 660 508 q 690 462 690 482 q 674 429 690 442 q 639 417 658 417 z "},"":{"ha":782,"x_min":83,"x_max":689,"o":"m 386 83 l 632 88 q 639 88 636 88 q 678 71 668 88 q 689 42 689 54 q 678 13 689 29 q 639 -4 668 -4 q 632 -4 636 -4 l 386 0 l 140 -4 q 133 -4 136 -4 q 94 13 104 -4 q 83 42 83 29 q 94 71 83 54 q 133 88 104 88 q 140 88 136 88 l 386 83 m 304 642 l 508 746 q 617 795 600 793 q 647 797 635 797 q 672 783 658 797 q 685 747 685 769 q 664 708 685 724 q 578 667 643 692 l 468 617 q 404 588 436 600 q 275 525 317 547 q 233 492 233 503 q 251 471 233 481 l 311 438 q 384 404 335 428 q 503 350 433 381 q 635 291 586 317 q 683 238 683 265 q 640 196 678 196 q 586 210 613 196 q 444 279 524 242 l 292 353 q 197 399 256 371 q 111 449 138 426 q 85 494 85 471 q 110 536 85 517 q 167 573 135 556 q 304 642 199 590 z "},"":{"ha":782,"x_min":93,"x_max":699,"o":"m 396 83 l 642 88 q 649 88 646 88 q 688 71 678 88 q 699 42 699 54 q 688 13 699 29 q 649 -4 678 -4 q 642 -4 646 -4 l 396 0 l 150 -4 q 143 -4 146 -4 q 103 13 114 -4 q 93 42 93 29 q 103 71 93 54 q 143 88 114 88 q 150 88 146 88 l 396 83 m 338 279 q 263 243 303 263 q 197 211 224 224 q 143 199 169 199 q 110 208 117 199 q 99 238 103 218 q 117 273 94 257 q 165 301 139 289 q 194 313 192 313 q 199 315 196 314 l 278 350 q 335 375 307 363 q 404 407 389 401 q 525 468 450 425 q 549 492 549 481 q 319 614 549 511 q 204 665 276 636 q 111 715 128 701 q 97 749 97 729 q 110 783 97 769 q 138 797 124 797 q 163 796 153 797 q 272 746 183 793 l 478 642 q 615 573 583 590 q 672 536 647 556 q 697 493 697 517 q 603 407 697 451 q 572 392 590 401 q 534 374 553 383 q 490 353 515 365 l 338 279 z "},"":{"ha":1407,"x_min":38,"x_max":1388,"o":"m 104 1049 l 371 1042 l 775 1050 q 826 1035 807 1050 q 846 998 846 1021 q 842 794 846 975 q 839 531 839 614 q 1089 707 936 707 q 1261 627 1200 707 q 1322 436 1322 547 l 1315 218 l 1315 158 q 1343 90 1318 101 q 1365 85 1353 88 q 1383 81 1378 83 q 1388 69 1388 78 q 1365 9 1388 33 q 1311 -15 1342 -15 q 1238 24 1258 -15 q 1219 148 1218 63 q 1224 404 1219 233 q 1182 557 1224 499 q 1070 615 1140 615 q 933 535 1000 615 q 840 357 865 456 l 844 56 q 792 -15 844 -15 q 728 80 728 -15 q 756 357 728 175 q 749 696 756 501 q 740 942 740 929 l 428 949 q 421 517 421 601 l 428 57 q 428 47 428 51 q 401 -6 428 11 q 371 -14 386 -14 l 340 -6 q 314 47 314 11 q 314 57 314 51 l 321 517 q 314 950 321 603 l 104 943 q 38 996 38 943 q 104 1049 38 1049 z "},"":{"ha":1235,"x_min":28,"x_max":1169,"o":"m 81 697 l 150 696 l 150 813 q 232 999 150 942 q 436 1056 317 1056 q 639 1015 556 1056 q 678 935 678 993 q 674 802 678 908 q 671 547 671 696 q 772 664 708 619 q 917 708 836 708 q 1058 653 999 708 q 1169 363 1169 550 q 1082 99 1169 211 q 857 -14 994 -14 q 676 57 753 -14 q 624 -14 676 -14 q 560 82 560 -14 q 588 357 560 178 q 581 696 588 501 q 572 942 572 929 q 440 963 504 963 q 243 800 243 963 l 243 694 l 378 697 q 415 685 400 697 q 431 653 431 674 q 378 611 431 611 l 243 614 l 243 521 q 247 199 243 331 q 251 46 251 67 q 237 6 251 25 q 197 -14 222 -14 q 158 5 172 -14 q 143 57 143 24 q 147 221 143 90 q 151 521 151 351 l 151 613 l 81 611 q 28 653 28 611 q 43 685 28 674 q 81 697 58 697 m 668 371 l 675 157 q 849 76 757 76 q 1006 158 940 76 q 1071 356 1071 240 q 1028 545 1071 472 q 908 618 985 618 q 767 550 832 618 q 668 371 703 482 z "},"":{"ha":1664,"x_min":28,"x_max":1599,"o":"m 582 521 l 582 611 l 458 613 q 242 608 438 613 l 242 521 q 246 199 242 331 q 250 57 250 67 q 197 -14 250 -14 q 143 57 143 -14 q 147 179 143 90 q 150 521 150 268 l 150 606 l 94 606 q 28 651 28 606 q 94 700 28 700 q 149 699 133 700 l 149 813 q 197 995 149 935 q 313 1056 244 1056 q 426 1031 381 1056 q 471 975 471 1006 q 432 929 471 929 q 383 946 414 929 q 328 963 353 963 q 242 800 242 963 l 242 696 q 444 693 364 693 q 579 694 525 693 l 579 818 q 661 999 579 943 q 864 1056 743 1056 q 1068 1015 985 1056 q 1107 935 1107 993 q 1103 839 1107 908 q 1100 547 1100 769 q 1201 664 1138 619 q 1346 708 1265 708 q 1486 653 1426 708 q 1599 363 1599 551 q 1511 99 1599 211 q 1286 -14 1424 -14 q 1106 57 1183 -14 q 1053 -14 1106 -14 q 989 82 989 -14 q 1017 357 989 178 q 1010 696 1017 501 q 1001 942 1001 929 q 869 963 933 963 q 672 800 672 963 l 672 694 l 790 701 q 861 651 861 701 q 790 604 861 604 q 674 608 753 604 l 674 521 q 678 199 674 331 q 682 57 682 67 q 629 -14 682 -14 q 590 6 604 -14 q 575 57 575 25 l 582 521 m 1097 371 l 1104 157 q 1278 76 1186 76 q 1435 158 1369 76 q 1500 356 1500 240 q 1457 545 1500 472 q 1338 618 1414 618 q 1197 550 1261 618 q 1097 371 1132 482 z "},"":{"ha":1700,"x_min":28,"x_max":1649,"o":"m 582 521 l 582 611 l 458 613 q 242 608 438 613 l 242 521 q 246 199 242 331 q 250 57 250 67 q 197 -14 250 -14 q 143 57 143 -14 q 147 179 143 90 q 150 521 150 268 l 150 606 l 94 606 q 28 651 28 606 q 94 700 28 700 q 149 699 133 700 l 149 813 q 197 995 149 935 q 313 1056 244 1056 q 426 1031 381 1056 q 471 975 471 1006 q 432 929 471 929 q 383 946 414 929 q 328 963 353 963 q 242 800 242 963 l 242 696 q 444 693 364 693 q 579 694 525 693 l 579 818 q 661 999 579 943 q 864 1056 743 1056 q 1068 1015 985 1056 q 1107 935 1107 993 q 1103 832 1107 907 q 1100 531 1100 757 q 1350 707 1201 707 q 1522 627 1461 707 q 1583 436 1583 547 l 1576 218 l 1576 158 q 1604 90 1579 101 q 1626 85 1614 88 q 1644 81 1639 83 q 1649 69 1649 78 q 1626 9 1649 33 q 1572 -15 1603 -15 q 1500 25 1521 -15 q 1479 149 1479 65 l 1485 404 q 1444 558 1485 500 q 1332 615 1403 615 q 1195 537 1261 615 q 1101 357 1129 458 l 1106 56 q 1053 -15 1106 -15 q 989 80 989 -15 q 1017 357 989 175 q 1010 696 1017 501 q 1001 942 1001 929 q 869 963 933 963 q 672 800 672 963 l 672 694 l 790 701 q 861 651 861 701 q 790 604 861 604 q 674 608 753 604 l 674 521 q 678 199 674 331 q 682 57 682 67 q 629 -14 682 -14 q 590 6 604 -14 q 575 57 575 25 l 582 521 z "},"":{"ha":1200,"x_min":28,"x_max":1107,"o":"m 1042 860 q 981 931 981 860 q 1001 988 981 964 q 1050 1011 1021 1011 q 1107 944 1107 1011 q 1089 886 1107 913 q 1042 860 1071 860 m 674 694 l 703 694 l 1043 703 q 1097 635 1097 703 l 1090 315 l 1089 10 q 1028 -188 1089 -110 q 917 -267 967 -267 q 879 -240 879 -267 q 939 -162 879 -221 q 982 -89 964 -139 q 1000 24 1000 -39 l 999 315 q 992 611 999 326 q 819 617 900 617 q 672 614 739 617 l 672 521 q 676 199 672 331 q 681 45 681 67 q 665 5 681 24 q 626 -14 650 -14 q 575 57 575 -14 l 582 521 l 582 611 l 458 613 q 242 608 438 613 l 242 521 q 246 199 242 331 q 250 57 250 67 q 197 -14 250 -14 q 143 57 143 -14 q 147 179 143 90 q 150 521 150 268 l 150 606 l 94 606 q 28 651 28 606 q 94 700 28 700 q 149 699 133 700 l 149 813 q 197 995 149 935 q 313 1056 244 1056 q 426 1031 381 1056 q 471 975 471 1006 q 432 929 471 929 q 383 946 414 929 q 328 963 353 963 q 242 800 242 963 l 242 696 q 440 693 357 693 q 581 694 522 693 l 581 813 q 628 995 581 935 q 744 1056 676 1056 q 858 1031 813 1056 q 903 975 903 1006 q 864 929 903 929 q 814 946 844 929 q 760 963 783 963 q 674 800 674 963 l 674 694 z "},"":{"ha":1608,"x_min":28,"x_max":1561,"o":"m 582 521 l 582 611 l 458 613 q 242 608 438 613 l 242 521 q 246 199 242 331 q 250 57 250 67 q 197 -14 250 -14 q 143 57 143 -14 q 147 179 143 90 q 150 521 150 268 l 150 606 l 94 606 q 28 651 28 606 q 94 700 28 700 q 149 699 133 700 l 149 813 q 197 995 149 935 q 313 1056 244 1056 q 426 1031 381 1056 q 471 975 471 1006 q 432 929 471 929 q 383 946 414 929 q 328 963 353 963 q 242 800 242 963 l 242 696 q 444 693 364 693 q 579 694 525 693 l 579 818 q 661 999 579 943 q 865 1056 743 1056 q 1069 1015 986 1056 q 1108 935 1108 993 q 1106 806 1108 907 q 1103 532 1103 706 q 1353 708 1204 708 q 1481 662 1432 708 q 1531 546 1531 615 q 1413 351 1531 432 l 1344 307 l 1447 149 q 1488 104 1465 119 q 1527 87 1511 89 q 1553 82 1543 85 q 1561 71 1563 79 q 1540 12 1561 38 q 1490 -14 1519 -14 q 1468 -14 1485 -14 q 1382 71 1433 -14 q 1378 78 1381 75 q 1328 159 1376 81 q 1251 276 1279 238 q 1192 296 1215 276 q 1168 351 1168 315 q 1208 404 1168 388 q 1231 408 1219 408 q 1299 374 1263 408 q 1392 446 1351 397 q 1433 533 1433 494 q 1347 617 1433 617 q 1200 539 1269 617 q 1104 358 1131 461 l 1108 57 q 1056 -14 1108 -14 q 992 81 992 -14 q 1019 358 992 176 q 1011 708 1019 481 q 1003 942 1003 936 q 869 963 933 963 q 672 800 672 963 l 672 694 l 790 701 q 861 651 861 701 q 790 604 861 604 q 674 608 753 604 l 674 521 q 678 199 674 331 q 682 57 682 67 q 629 -14 682 -14 q 590 6 604 -14 q 575 57 575 25 l 582 521 z "},"":{"ha":1271,"x_min":28,"x_max":1219,"o":"m 672 357 l 676 56 q 624 -15 676 -15 q 560 80 560 -15 q 588 357 560 175 q 581 696 588 501 q 572 942 572 929 q 440 963 504 963 q 243 800 243 963 l 243 694 l 378 697 q 415 685 400 697 q 431 653 431 674 q 378 611 431 611 l 243 614 l 243 521 q 247 199 243 331 q 251 46 251 67 q 237 6 251 25 q 197 -14 222 -14 q 158 5 172 -14 q 143 57 143 24 q 147 221 143 90 q 151 521 151 351 l 151 613 l 81 611 q 28 653 28 611 q 43 685 28 674 q 81 697 58 697 l 150 696 l 150 813 q 232 999 150 942 q 436 1056 317 1056 q 639 1015 556 1056 q 678 935 678 993 q 674 791 678 907 q 671 531 671 675 q 921 707 772 707 q 1094 627 1033 707 q 1154 436 1154 547 l 1147 218 l 1147 158 q 1175 90 1150 101 q 1197 85 1185 88 q 1215 81 1210 83 q 1219 69 1219 78 q 1197 9 1219 33 q 1143 -15 1174 -15 q 1071 25 1092 -15 q 1050 149 1050 65 l 1056 404 q 1015 558 1056 500 q 903 615 974 615 q 766 537 832 615 q 672 357 700 458 z "},"":{"ha":771,"x_min":28,"x_max":678,"o":"m 613 860 q 551 931 551 860 q 572 988 551 964 q 621 1011 592 1011 q 678 944 678 1011 q 660 886 678 913 q 613 860 642 860 m 571 24 l 569 315 q 563 611 569 326 q 390 617 469 617 q 243 614 310 617 l 243 521 q 247 199 243 331 q 251 46 251 67 q 237 6 251 25 q 197 -14 222 -14 q 158 5 172 -14 q 143 57 143 24 q 147 221 143 90 q 151 521 151 351 l 151 614 l 81 611 q 28 653 28 611 q 43 685 28 674 q 81 697 58 697 l 150 694 l 150 813 q 198 995 150 935 q 314 1056 246 1056 q 427 1031 382 1056 q 472 975 472 1006 q 433 929 472 929 q 383 946 414 929 q 329 963 353 963 q 243 800 243 963 l 243 694 l 274 694 l 614 703 q 668 635 668 703 l 661 315 l 660 10 q 599 -188 660 -110 q 488 -267 539 -267 q 450 -240 450 -267 q 511 -162 450 -221 q 553 -88 535 -139 q 571 24 571 -37 z "},"":{"ha":1178,"x_min":28,"x_max":1131,"o":"m 674 358 l 678 57 q 625 -14 678 -14 q 561 81 561 -14 q 589 358 561 176 q 581 708 589 481 q 572 942 572 936 q 440 963 504 963 q 243 800 243 963 l 243 694 l 378 697 q 415 685 400 697 q 431 653 431 674 q 378 611 431 611 l 243 614 l 243 521 q 247 199 243 331 q 251 46 251 67 q 237 6 251 25 q 197 -14 222 -14 q 158 5 172 -14 q 143 57 143 24 q 147 221 143 90 q 151 521 151 351 l 151 613 l 81 611 q 28 653 28 611 q 43 685 28 674 q 81 697 58 697 l 150 696 l 150 813 q 232 999 150 942 q 436 1056 317 1056 q 639 1015 556 1056 q 678 935 678 993 q 675 806 678 907 q 672 532 672 706 q 922 708 774 708 q 1051 662 1001 708 q 1100 546 1100 615 q 982 351 1100 432 l 914 307 l 1017 149 q 1058 104 1035 119 q 1097 87 1081 89 q 1122 82 1113 85 q 1131 71 1132 79 q 1110 12 1131 38 q 1060 -14 1089 -14 q 1038 -14 1054 -14 q 951 71 1003 -14 q 948 78 950 75 q 897 159 946 81 q 821 276 849 238 q 761 296 785 276 q 738 351 738 315 q 778 404 738 388 q 800 408 789 408 q 868 374 832 408 q 962 446 921 397 q 1003 533 1003 494 q 917 617 1003 617 q 769 539 839 617 q 674 358 700 461 z "},"":{"ha":1210,"x_min":28,"x_max":1108,"o":"m 1000 57 l 1003 133 q 1008 521 1008 307 l 1001 942 q 869 963 933 963 q 672 800 672 963 l 672 694 l 790 701 q 861 651 861 701 q 790 604 861 604 q 674 608 753 604 l 674 521 q 678 199 674 331 q 682 57 682 67 q 629 -14 682 -14 q 590 6 604 -14 q 575 57 575 25 l 582 521 l 582 611 l 458 613 q 242 608 438 613 l 242 521 q 246 199 242 331 q 250 57 250 67 q 197 -14 250 -14 q 143 57 143 -14 q 147 179 143 90 q 150 521 150 268 l 150 606 l 94 606 q 28 651 28 606 q 94 700 28 700 q 149 699 133 700 l 149 813 q 197 995 149 935 q 313 1056 244 1056 q 426 1031 381 1056 q 471 975 471 1006 q 432 929 471 929 q 383 946 414 929 q 328 963 353 963 q 242 800 242 963 l 242 696 q 444 693 364 693 q 579 694 525 693 l 579 818 q 661 999 579 943 q 864 1056 743 1056 q 1068 1015 985 1056 q 1107 935 1107 993 q 1103 827 1107 906 q 1100 562 1100 749 q 1104 223 1100 375 q 1108 57 1108 71 q 1054 -14 1108 -14 q 1000 57 1000 -14 z "},"":{"ha":297,"x_min":49,"x_max":224,"o":"m 222 -137 q 169 -262 222 -197 q 81 -326 115 -326 q 58 -318 67 -326 q 49 -301 49 -310 q 55 -280 49 -292 q 72 -249 61 -268 q 105 -162 94 -207 q 130 -96 115 -117 q 161 -75 144 -75 q 190 -81 178 -75 q 224 -128 224 -96 q 222 -137 224 -132 z "},"":{"ha":771,"x_min":28,"x_max":678,"o":"m 613 860 q 551 931 551 860 q 572 988 551 964 q 621 1011 592 1011 q 678 944 678 1011 q 660 886 678 913 q 613 860 642 860 m 81 697 l 150 694 l 150 813 q 198 995 150 935 q 314 1056 246 1056 q 427 1031 382 1056 q 472 975 472 1006 q 433 929 472 929 q 383 946 414 929 q 329 963 353 963 q 243 800 243 963 l 243 694 l 274 694 l 614 703 q 668 636 668 703 l 661 347 l 669 57 q 669 49 669 53 q 632 -10 669 3 q 604 -14 621 -14 q 574 5 588 -14 q 561 38 561 24 q 561 57 561 51 l 569 347 q 567 448 569 360 q 563 611 564 536 q 390 617 469 617 q 243 614 310 617 l 243 521 q 247 199 243 331 q 251 46 251 67 q 237 6 251 25 q 197 -14 222 -14 q 158 5 172 -14 q 143 57 143 24 q 147 221 143 90 q 151 521 151 351 l 151 614 l 81 611 q 28 653 28 611 q 43 685 28 674 q 81 697 58 697 z "},"":{"ha":781,"x_min":28,"x_max":679,"o":"m 678 935 l 671 521 q 675 199 671 331 q 679 57 679 67 q 625 -14 679 -14 q 571 57 571 -14 q 575 221 571 90 q 579 521 579 351 l 572 942 q 440 963 504 963 q 243 800 243 963 l 243 694 l 378 697 q 415 685 400 697 q 431 653 431 674 q 382 612 431 611 q 243 614 333 613 l 243 521 q 247 199 243 331 q 251 46 251 67 q 237 6 251 25 q 197 -14 222 -14 q 158 5 172 -14 q 143 57 143 24 q 147 221 143 90 q 151 521 151 351 l 151 613 l 81 611 q 28 653 28 611 q 43 685 28 674 q 81 697 58 697 l 150 696 l 150 813 q 232 999 150 942 q 436 1056 317 1056 q 639 1015 556 1056 q 678 935 678 993 z "},"":{"ha":1200,"x_min":28,"x_max":1107,"o":"m 1042 860 q 981 931 981 860 q 1001 988 981 964 q 1050 1011 1021 1011 q 1107 944 1107 1011 q 1089 886 1107 913 q 1042 860 1071 860 m 674 694 l 703 694 l 1043 703 q 1097 636 1097 703 l 1090 347 l 1099 57 q 1099 49 1099 53 q 1061 -10 1099 3 q 1033 -14 1050 -14 q 1003 5 1017 -14 q 990 38 990 24 q 990 57 990 51 l 999 347 q 996 448 999 360 q 992 611 993 536 q 819 617 900 617 q 672 614 739 617 l 672 521 q 676 199 672 331 q 681 45 681 67 q 665 5 681 24 q 626 -14 650 -14 q 575 57 575 -14 l 582 521 l 582 611 l 458 613 q 242 608 438 613 l 242 521 q 246 199 242 331 q 250 57 250 67 q 197 -14 250 -14 q 143 57 143 -14 q 147 179 143 90 q 150 521 150 268 l 150 606 l 94 606 q 28 651 28 606 q 94 700 28 700 q 149 699 133 700 l 149 813 q 197 995 149 935 q 313 1056 244 1056 q 426 1031 381 1056 q 471 975 471 1006 q 432 929 471 929 q 383 946 414 929 q 328 963 353 963 q 242 800 242 963 l 242 696 q 440 693 357 693 q 581 694 522 693 l 581 813 q 628 995 581 935 q 744 1056 676 1056 q 858 1031 813 1056 q 903 975 903 1006 q 864 929 903 929 q 814 946 844 929 q 760 963 783 963 q 674 800 674 963 l 674 694 z "}}}
